<?xml version="1.0" standalone="no"?>
<!DOCTYPE svg PUBLIC "-//W3C//DTD SVG 1.1//EN" "http://www.w3.org/Graphics/SVG/1.1/DTD/svg11.dtd" >
<svg xmlns="http://www.w3.org/2000/svg" xmlns:xlink="http://www.w3.org/1999/xlink" version="1.1">
<metadata></metadata>
<defs>
<font id="misti_fontregular" horiz-adv-x="1392" >
<font-face units-per-em="2048" ascent="1638" descent="-410" />
<missing-glyph horiz-adv-x="491" />
<glyph unicode="&#xfb01;" horiz-adv-x="1167" d="M31 834v163h196v154q0 158 81.5 252t219.5 94q98 0 168 -43l-55 -145q-39 22 -86 22q-68 0 -105.5 -47t-37.5 -133v-154h237v-163h-237v-834h-185v834h-196zM801 1366q0 56 37.5 93.5t93.5 37.5t93.5 -37.5t37.5 -93.5t-37.5 -93.5t-93.5 -37.5t-93.5 37.5t-37.5 93.5z M840 0v997h184v-997h-184z" />
<glyph unicode="&#xfb02;" horiz-adv-x="1208" d="M31 834v163h196v154q0 158 81.5 252t219.5 94q98 0 168 -43l-55 -145q-39 22 -86 22q-68 0 -105.5 -47t-37.5 -133v-154h237v-163h-237v-834h-185v834h-196zM881 0v1475h184v-1475h-184z" />
<glyph horiz-adv-x="0" />
<glyph horiz-adv-x="682" />
<glyph unicode="&#xd;" horiz-adv-x="491" />
<glyph unicode=" "  horiz-adv-x="491" />
<glyph unicode="&#x09;" horiz-adv-x="491" />
<glyph unicode="&#xa0;" horiz-adv-x="491" />
<glyph unicode="!" horiz-adv-x="507" d="M113 129q0 59 41.5 100t99.5 41t99.5 -41t41.5 -100t-41.5 -100t-99.5 -41t-99.5 41t-41.5 100zM158 403v1031h194v-1031h-194z" />
<glyph unicode="&#x22;" horiz-adv-x="890" d="M154 1434h194l-10 -533h-174zM543 1434h194l-10 -533h-174z" />
<glyph unicode="#" horiz-adv-x="1540" d="M20 322v163h273l158 451h-242v164h299l117 334h194l-117 -334h420l117 334h195l-117 -334h203v-164h-260l-158 -451h229v-163h-287l-112 -322h-195l113 322h-420l-113 -322h-194l113 322h-216zM487 485h420l158 451h-420z" />
<glyph unicode="$" horiz-adv-x="1165" d="M82 422l190 37q12 -145 102 -225t240 -80q126 0 198.5 63.5t72.5 173.5q0 163 -201 213l-201 49q-170 41 -258 141.5t-88 254.5q0 153 95 260.5t253 136.5v151h195v-147q154 -20 255 -111t136 -243l-182 -60q-22 114 -100 179t-193 65q-128 0 -194 -58.5t-66 -172.5 q0 -163 182 -209l201 -49q364 -88 364 -400q0 -165 -111.5 -277.5t-291.5 -131.5v-146h-195v154q-172 31 -279 145t-124 287z" />
<glyph unicode="%" horiz-adv-x="1894" d="M61 1057q0 172 113 285.5t283 113.5q169 0 281 -113.5t112 -285.5t-112 -286t-281 -114q-170 0 -283 114t-113 286zM238 1057q0 -103 62.5 -171.5t156.5 -68.5t155.5 68.5t61.5 171.5q0 104 -61.5 172.5t-155.5 68.5t-156.5 -68.5t-62.5 -172.5zM395 0l912 1434h204 l-911 -1434h-205zM1044 362q0 172 113 286t283 114q169 0 281 -114t112 -286t-112 -285.5t-281 -113.5q-170 0 -283 113.5t-113 285.5zM1221 362q0 -103 62.5 -171t156.5 -68t155.5 68t61.5 171q0 104 -61.5 173t-155.5 69t-156.5 -69t-62.5 -173z" />
<glyph unicode="&#x26;" horiz-adv-x="1363" d="M133 406q0 137 75 253.5t181 155.5q-74 51 -119 127t-45 160q0 155 107.5 254.5t273.5 99.5t272.5 -99.5t106.5 -254.5q0 -105 -59.5 -191.5t-155.5 -128.5l223 -323l127 334h193l-199 -508l199 -285h-217l-95 137q-63 -73 -163 -116.5t-215 -43.5q-225 0 -357.5 116.5 t-132.5 312.5zM332 424q0 -119 78.5 -189.5t212.5 -70.5q187 0 276 119l-309 444q-102 -2 -180 -91.5t-78 -211.5zM408 1092q0 -85 55 -139t143 -54q87 0 142 54t55 139t-55.5 138.5t-141.5 53.5q-87 0 -142.5 -54t-55.5 -138z" />
<glyph unicode="'" horiz-adv-x="501" d="M154 1434h194l-10 -533h-174z" />
<glyph unicode="(" horiz-adv-x="649" d="M174 567q0 295 89 569t235 431l141 -103q-124 -135 -202.5 -386t-78.5 -511t78.5 -511t202.5 -386l-141 -102q-146 157 -235 430.5t-89 568.5z" />
<glyph unicode=")" horiz-adv-x="649" d="M10 -330q124 135 202.5 386t78.5 511t-78.5 511t-202.5 386l142 103q146 -157 234.5 -431t88.5 -569t-88.5 -568.5t-234.5 -430.5z" />
<glyph unicode="*" horiz-adv-x="892" d="M51 891l260 133l-260 133l82 143l246 -159l-14 293h163l-14 -293l246 159l82 -143l-260 -133l260 -133l-82 -143l-246 159l14 -293h-163l14 293l-246 -159z" />
<glyph unicode="+" horiz-adv-x="1228" d="M133 559v164h385v369h174v-369h383v-164h-383v-389h-174v389h-385z" />
<glyph unicode="," horiz-adv-x="518" d="M92 -176q74 13 129 60.5t74 111.5q-16 -8 -41 -8q-63 0 -102 40.5t-39 100.5t39 100.5t102 40.5q68 0 110 -49.5t42 -128.5q0 -149 -76.5 -255t-204.5 -124z" />
<glyph unicode="-" horiz-adv-x="849" d="M123 502v174h604v-174h-604z" />
<glyph unicode="." horiz-adv-x="507" d="M113 129q0 59 41.5 100t99.5 41t99.5 -41t41.5 -100t-41.5 -100t-99.5 -41t-99.5 41t-41.5 100z" />
<glyph unicode="/" horiz-adv-x="813" d="M-20 -410l659 1885h195l-660 -1885h-194z" />
<glyph unicode="0" horiz-adv-x="1306" d="M82 717q0 342 153.5 540.5t417.5 198.5q265 0 418.5 -198t153.5 -541t-153.5 -541.5t-418.5 -198.5q-264 0 -417.5 198.5t-153.5 541.5zM281 717q0 -263 97.5 -408t274.5 -145t275 145.5t98 407.5t-98 407.5t-275 145.5t-274.5 -145t-97.5 -408z" />
<glyph unicode="1" horiz-adv-x="761" d="M51 967v215q143 60 226.5 120t123.5 132h187v-1434h-195v1178q-102 -127 -342 -211z" />
<glyph unicode="2" horiz-adv-x="1144" d="M82 0v174l559 518q109 102 156 181t47 163q0 106 -70 172t-182 66q-121 0 -199 -64.5t-100 -183.5l-193 49q40 180 170 280.5t322 100.5q206 0 328 -114t122 -306q0 -117 -60.5 -224t-205.5 -243l-409 -387h696v-182h-981z" />
<glyph unicode="3" horiz-adv-x="1234" d="M92 414l201 43q14 -138 103.5 -215.5t236.5 -77.5q134 0 212.5 64t78.5 173q0 121 -79 183.5t-231 62.5h-79v180h79q136 0 208.5 59.5t72.5 170.5q0 101 -70.5 157t-199.5 56q-124 0 -201.5 -59.5t-99.5 -172.5l-193 49q37 175 167 272t327 97q214 0 341.5 -108 t127.5 -291q0 -117 -60.5 -201t-165.5 -113q115 -28 184.5 -121t69.5 -221q0 -192 -133.5 -308t-355.5 -116q-232 0 -375.5 116.5t-165.5 320.5z" />
<glyph unicode="4" horiz-adv-x="1269" d="M82 352v217q195 210 290 422.5t95 442.5h205q0 -219 -109.5 -477t-269.5 -422h520v462h195v-462h211v-183h-211v-352h-195v352h-731z" />
<glyph unicode="5" horiz-adv-x="1177" d="M72 410l200 43q17 -141 101 -215t225 -74q140 0 224.5 83.5t84.5 221.5q0 135 -83 217t-218 82q-190 0 -297 -131l-186 59l98 738h821v-183h-669l-58 -436q56 62 140.5 95.5t185.5 33.5q214 0 339.5 -128.5t125.5 -346.5q0 -221 -140 -356.5t-368 -135.5 q-218 0 -359.5 117t-166.5 316z" />
<glyph unicode="6" horiz-adv-x="1216" d="M82 651q0 382 151 593.5t424 211.5q183 0 310 -90t168 -248l-189 -69q-26 105 -101.5 163t-187.5 58q-173 0 -274.5 -146t-101.5 -395q50 102 149.5 159.5t226.5 57.5q212 0 345 -134.5t133 -348.5q0 -213 -141.5 -349.5t-362.5 -136.5q-262 0 -405.5 176.5t-143.5 497.5 zM315 463q0 -134 86.5 -216.5t225.5 -82.5q138 0 223.5 82.5t85.5 216.5q0 133 -85.5 215t-223.5 82q-140 0 -226 -82t-86 -215z" />
<glyph unicode="7" horiz-adv-x="1103" d="M41 997v437h1022v-174q-235 -243 -357 -539t-163 -721h-205q41 410 169.5 714t340.5 537h-623v-254h-184z" />
<glyph unicode="8" horiz-adv-x="1275" d="M113 393q0 132 82 227t217 123q-128 31 -199.5 115.5t-71.5 204.5q0 174 138.5 283.5t359.5 109.5q218 0 357 -110t139 -283q0 -120 -71.5 -204.5t-197.5 -115.5q135 -28 216 -123.5t81 -226.5q0 -183 -146.5 -299.5t-377.5 -116.5q-233 0 -379.5 116t-146.5 300z M311 401q0 -104 91.5 -170.5t236.5 -66.5q143 0 234.5 66.5t91.5 170.5q0 113 -87 177.5t-239 64.5q-155 0 -241.5 -64t-86.5 -178zM340 1051q0 -101 81.5 -161.5t217.5 -60.5q133 0 215 61t82 161t-81 159.5t-216 59.5q-138 0 -218.5 -59t-80.5 -160z" />
<glyph unicode="9" horiz-adv-x="1216" d="M82 315l188 70q26 -105 101.5 -163t187.5 -58q173 0 275 146t102 395q-50 -102 -150 -160t-227 -58q-212 0 -344.5 135t-132.5 349q0 212 141.5 348.5t362.5 136.5q262 0 405.5 -176.5t143.5 -497.5q0 -381 -151.5 -593t-424.5 -212q-183 0 -309.5 90t-167.5 248z M281 971q0 -133 85.5 -215t223.5 -82q140 0 225.5 82t85.5 215q0 134 -86 216.5t-225 82.5q-138 0 -223.5 -82.5t-85.5 -216.5z" />
<glyph unicode=":" horiz-adv-x="507" d="M113 129q0 59 41.5 100t99.5 41t99.5 -41t41.5 -100t-41.5 -100t-99.5 -41t-99.5 41t-41.5 100zM113 795q0 59 41.5 100t99.5 41t99.5 -41t41.5 -100t-41.5 -100.5t-99.5 -41.5t-99.5 41.5t-41.5 100.5z" />
<glyph unicode=";" horiz-adv-x="518" d="M92 -176q74 13 129 60.5t74 111.5q-16 -8 -41 -8q-63 0 -102 40.5t-39 100.5t39 100.5t102 40.5q68 0 110 -49.5t42 -128.5q0 -149 -76.5 -255t-204.5 -124zM123 795q0 59 41.5 100t99.5 41q59 0 100.5 -41.5t41.5 -99.5q0 -59 -42 -100.5t-100 -41.5t-99.5 41.5 t-41.5 100.5z" />
<glyph unicode="&#x3c;" horiz-adv-x="1228" d="M133 559v164l942 448v-190l-751 -340l751 -340v-190z" />
<glyph unicode="=" horiz-adv-x="1228" d="M133 272v164h942v-164h-942zM133 846v164h942v-164h-942z" />
<glyph unicode="&#x3e;" horiz-adv-x="1228" d="M133 111v190l752 340l-752 340v190l942 -448v-164z" />
<glyph unicode="?" horiz-adv-x="1060" d="M61 1075q35 179 164 280t322 101q207 0 329.5 -108t122.5 -291q0 -102 -48 -191t-160 -194l-39 -37q-63 -60 -90 -99t-27 -71v-62h-195v62q0 61 38.5 121t139.5 157l39 37q78 75 111 138t33 139q0 94 -71 153.5t-183 59.5q-121 0 -199 -64t-98 -180zM399 129 q0 58 41.5 99.5t100.5 41.5t100 -41t41 -100t-41 -100t-100 -41t-100.5 41.5t-41.5 99.5z" />
<glyph unicode="@" horiz-adv-x="1890" d="M82 459q0 246 116 448.5t319.5 318t451.5 115.5q235 0 427.5 -104.5t302 -288t109.5 -407.5q0 -223 -97 -363.5t-251 -140.5q-102 0 -172 54.5t-90 150.5q-29 -96 -106.5 -150.5t-184.5 -54.5q-161 0 -264.5 118.5t-103.5 303.5t103.5 303.5t264.5 118.5q88 0 151.5 -45 t94.5 -129v145h182v-487q0 -168 125 -168q77 0 121.5 86.5t44.5 238.5q0 290 -182.5 471t-474.5 181q-201 0 -361.5 -91.5t-250 -255t-89.5 -368.5q0 -211 91 -376t254.5 -256t373.5 -91q113 0 219.5 30t179.5 82l68 -163q-217 -117 -467 -117q-260 0 -466.5 114.5 t-322.5 318t-116 458.5zM725 459q0 -115 58 -184.5t155 -69.5t155 69.5t58 184.5t-58 184.5t-155 69.5t-155 -69.5t-58 -184.5z" />
<glyph unicode="A" horiz-adv-x="1298" d="M41 0l487 1434h238l491 -1434h-202l-135 408h-543l-133 -408h-203zM436 590h424l-213 643z" />
<glyph unicode="B" horiz-adv-x="1251" d="M174 0v1434h481q204 0 320.5 -101.5t116.5 -279.5q0 -103 -58.5 -189.5t-150.5 -122.5q112 -31 184 -126.5t72 -217.5q0 -189 -121.5 -293t-341.5 -104h-502zM369 182h307q127 0 195.5 58.5t68.5 167.5q0 110 -68.5 169.5t-195.5 59.5h-307v-455zM369 821h286 q106 0 172 64t66 168q0 91 -64.5 144.5t-173.5 53.5h-286v-430z" />
<glyph unicode="C" horiz-adv-x="1325" d="M82 717q0 335 168 537t446 202q217 0 363 -142.5t168 -375.5h-195q-25 164 -110 248t-226 84q-193 0 -304 -148t-111 -405q0 -261 109.5 -407t305.5 -146q146 0 231.5 80t119.5 248h196q-29 -235 -178 -375t-369 -140q-283 0 -448.5 199.5t-165.5 540.5z" />
<glyph unicode="D" horiz-adv-x="1312" d="M174 0v1434h367q312 0 501 -196t189 -519q0 -160 -50 -294t-139.5 -227.5t-218 -145.5t-282.5 -52h-367zM369 182h172q224 0 357.5 146t133.5 391q0 243 -133.5 387.5t-357.5 144.5h-172v-1069z" />
<glyph unicode="E" horiz-adv-x="1142" d="M174 0v1434h846v-183h-651v-434h620v-182h-620v-453h661v-182h-856z" />
<glyph unicode="F" horiz-adv-x="1075" d="M174 0v1434h809v-183h-614v-454h583v-183h-583v-614h-195z" />
<glyph unicode="G" d="M82 717q0 333 167 536t447 203q206 0 350.5 -130.5t176.5 -346.5l-191 -41q-25 162 -109.5 247t-226.5 85q-194 0 -304.5 -148.5t-110.5 -404.5q0 -262 110 -407.5t305 -145.5q170 0 276.5 111t131.5 315h-383v182h590v-55q0 -341 -166 -540.5t-449 -199.5t-448.5 199.5 t-165.5 540.5z" />
<glyph unicode="H" horiz-adv-x="1361" d="M174 0v1434h195v-617h624v617h195v-1434h-195v635h-624v-635h-195z" />
<glyph unicode="I" horiz-adv-x="542" d="M174 0v1434h195v-1434h-195z" />
<glyph unicode="J" horiz-adv-x="1169" d="M113 444v88h194v-88q0 -132 68 -206t188 -74q117 0 182.5 74t65.5 206v807h-436v183h631v-990q0 -207 -123.5 -337t-319.5 -130q-207 0 -328.5 126t-121.5 341z" />
<glyph unicode="K" horiz-adv-x="1212" d="M174 0v1434h195v-703l551 703h231l-471 -598l471 -836h-225l-373 674l-184 -236v-438h-195z" />
<glyph unicode="L" horiz-adv-x="1040" d="M174 0v1434h195v-1252h620v-182h-815z" />
<glyph unicode="M" horiz-adv-x="1589" d="M174 0v1434h297l324 -979l323 979h297v-1434h-194v1151l-318 -946h-217l-317 946v-1151h-195z" />
<glyph unicode="N" horiz-adv-x="1388" d="M174 0v1434h215l631 -1092v1092h194v-1434h-215l-630 1092v-1092h-195z" />
<glyph unicode="O" d="M82 717q0 333 167 536t447 203t447.5 -203t167.5 -536q0 -341 -166 -540.5t-449 -199.5t-448.5 199.5t-165.5 540.5zM281 717q0 -262 110 -407.5t305 -145.5q196 0 306 145.5t110 407.5q0 256 -111 404.5t-305 148.5t-304.5 -148.5t-110.5 -404.5z" />
<glyph unicode="P" horiz-adv-x="1177" d="M174 0v1434h471q214 0 342.5 -116.5t128.5 -309.5q0 -192 -129 -309t-342 -117h-276v-582h-195zM369 764h276q128 0 200.5 65t72.5 179t-72.5 178.5t-200.5 64.5h-276v-487z" />
<glyph unicode="Q" d="M82 717q0 333 167 536t447 203t447.5 -203t167.5 -536q0 -227 -76 -394.5t-215 -256.5l291 -271h-244l-225 199q-76 -17 -146 -17q-283 0 -448.5 199.5t-165.5 540.5zM281 717q0 -262 110 -407.5t305 -145.5q196 0 306 145.5t110 407.5q0 256 -111 404.5t-305 148.5 t-304.5 -148.5t-110.5 -404.5z" />
<glyph unicode="R" horiz-adv-x="1234" d="M174 0v1434h490q213 0 341 -115t128 -307q0 -157 -87.5 -265t-240.5 -143l328 -604h-215l-310 590h-239v-590h-195zM369 772h295q126 0 198 64t72 176t-72 175.5t-198 63.5h-295v-479z" />
<glyph unicode="S" horiz-adv-x="1165" d="M82 422l190 37q12 -145 102 -225t240 -80q126 0 198.5 63.5t72.5 173.5q0 163 -201 213l-201 49q-170 41 -258 141.5t-88 254.5q0 180 129 293.5t330 113.5q187 0 311 -94t164 -266l-182 -60q-22 114 -100 179t-193 65q-128 0 -194 -58.5t-66 -172.5q0 -163 182 -209 l201 -49q364 -88 364 -400q0 -181 -131.5 -297.5t-337.5 -116.5q-225 0 -368.5 120.5t-163.5 324.5z" />
<glyph unicode="T" horiz-adv-x="1075" d="M31 1251v183h1013v-183h-409v-1251h-195v1251h-409z" />
<glyph unicode="U" horiz-adv-x="1355" d="M164 502v932h194v-932q0 -164 82.5 -251t237.5 -87t237 87t82 251v932h195v-932q0 -244 -138 -384.5t-376 -140.5t-376 140.5t-138 384.5z" />
<glyph unicode="V" horiz-adv-x="1257" d="M41 1434h209l381 -1223l377 1223h209l-472 -1434h-229z" />
<glyph unicode="W" horiz-adv-x="1728" d="M41 1434h209l246 -1201l237 1201h262l238 -1201l246 1201h209l-318 -1434h-260l-248 1143l-239 -1143h-267z" />
<glyph unicode="X" horiz-adv-x="1239" d="M41 0l465 715l-445 719h232l336 -545l338 545h231l-465 -715l445 -719h-232l-334 541l-340 -541h-231z" />
<glyph unicode="Y" horiz-adv-x="1208" d="M41 1434h211l352 -648l352 648h211l-467 -828v-606h-194v606z" />
<glyph unicode="Z" horiz-adv-x="1130" d="M102 0v174l707 1077h-694v183h913v-174l-706 -1078h706v-182h-926z" />
<glyph unicode="[" horiz-adv-x="606" d="M174 -410v1954h381v-155h-197v-1643h197v-156h-381z" />
<glyph unicode="\" horiz-adv-x="813" d="M-20 1475h194l660 -1885h-195z" />
<glyph unicode="]" horiz-adv-x="606" d="M51 -254h197v1643h-197v155h381v-1954h-381v156z" />
<glyph unicode="^" horiz-adv-x="1228" d="M172 799l322 635h221l321 -635h-215l-215 465l-219 -465h-215z" />
<glyph unicode="_" horiz-adv-x="686" d="M41 0h604v-174h-604v174z" />
<glyph unicode="`" horiz-adv-x="632" d="M102 1475h244l184 -328h-180z" />
<glyph unicode="a" horiz-adv-x="1062" d="M82 276q0 158 110.5 240t325.5 82q120 0 227 -39v103q0 93 -55.5 141.5t-161.5 48.5q-85 0 -144.5 -38.5t-84.5 -108.5l-166 59q37 117 143 186.5t252 69.5q190 0 296 -94.5t106 -263.5v-662h-185v115q-46 -65 -128 -101.5t-183 -36.5q-166 0 -259 79t-93 220zM268 276 q0 -70 50.5 -110.5t138.5 -40.5q126 0 207 75.5t81 192.5v2q-99 47 -227 47q-130 0 -190 -40t-60 -126z" />
<glyph unicode="b" horiz-adv-x="1234" d="M143 0v1475h185v-641q44 83 141.5 134.5t212.5 51.5q206 0 338.5 -146.5t132.5 -375.5q0 -227 -133 -374t-338 -147q-116 0 -211.5 52.5t-142.5 142.5v-172h-185zM322 498q0 -155 91 -254t232 -99t231.5 99t90.5 254t-90.5 254.5t-231.5 99.5q-143 0 -233 -98.5 t-90 -255.5z" />
<glyph unicode="c" horiz-adv-x="1110" d="M82 498q0 227 142 374.5t360 147.5q166 0 286.5 -88t161.5 -240l-168 -55q-29 101 -103 158t-177 57q-138 0 -227 -99.5t-89 -254.5t88.5 -254t227.5 -99q101 0 180 57t108 152l166 -57q-43 -143 -168.5 -231.5t-285.5 -88.5q-218 0 -360 147.5t-142 373.5z" />
<glyph unicode="d" horiz-adv-x="1234" d="M82 498q0 229 132.5 375.5t338.5 146.5q115 0 212.5 -51.5t141.5 -134.5v641h185v-1475h-185v172q-47 -90 -142.5 -142.5t-211.5 -52.5q-205 0 -338 147t-133 374zM268 498q0 -155 90.5 -254t231.5 -99t232 99t91 254q0 157 -90 255.5t-233 98.5q-141 0 -231.5 -99.5 t-90.5 -254.5z" />
<glyph unicode="e" horiz-adv-x="1126" d="M82 498q0 228 141.5 375t360.5 147q212 0 336 -136t124 -368q0 -42 -4 -74h-768q15 -134 100.5 -215.5t211.5 -81.5q80 0 149 38t109 104l147 -99q-64 -98 -171.5 -154.5t-233.5 -56.5q-219 0 -360.5 147.5t-141.5 373.5zM279 598h583q-14 119 -87.5 186.5t-190.5 67.5 q-114 0 -196 -69.5t-109 -184.5z" />
<glyph unicode="f" horiz-adv-x="776" d="M31 834v163h196v189q0 150 84.5 230.5t241.5 80.5q110 0 187.5 -52t111.5 -149l-160 -69q-19 54 -52 78t-87 24q-67 0 -104 -37.5t-37 -105.5v-189h360v-163h-360v-834h-185v834h-196z" />
<glyph unicode="g" horiz-adv-x="1236" d="M82 522q0 215 134 356.5t335 141.5q121 0 216 -52t142 -143v172h185v-923q0 -240 -130 -373t-368 -133q-181 0 -310 82.5t-169 222.5l172 59q28 -89 111.5 -142.5t195.5 -53.5q154 0 233.5 86t79.5 252v141q-42 -86 -139 -138t-219 -52q-203 0 -336 141t-133 356z M268 522q0 -146 90.5 -237.5t233.5 -91.5t233 91.5t90 237.5t-90 238t-233 92t-233.5 -92t-90.5 -238z" />
<glyph unicode="h" horiz-adv-x="1114" d="M143 0v1475h185v-629q40 80 121.5 127t179.5 47q162 0 257 -102.5t95 -276.5v-641h-184v608q0 117 -61 180.5t-171 63.5q-103 0 -170 -74t-67 -192v-586h-185z" />
<glyph unicode="i" horiz-adv-x="471" d="M104 1366q0 55 38 93t94 38t93.5 -37.5t37.5 -93.5t-37.5 -93.5t-93.5 -37.5t-94 38t-38 93zM143 0v997h185v-997h-185z" />
<glyph unicode="j" horiz-adv-x="471" d="M-117 -393l49 153q31 -24 95 -24q57 0 86.5 36t29.5 103v1122h185v-1122q0 -145 -73 -226t-202 -81q-102 0 -170 39zM104 1366q0 55 38 93t94 38t93.5 -37.5t37.5 -93.5t-37.5 -93.5t-93.5 -37.5t-94 38t-38 93z" />
<glyph unicode="k" horiz-adv-x="1044" d="M143 0v1475h185v-924l436 446h240l-408 -411l408 -586h-213l-320 459l-143 -146v-313h-185z" />
<glyph unicode="l" horiz-adv-x="471" d="M143 0v1475h185v-1475h-185z" />
<glyph unicode="m" horiz-adv-x="1767" d="M143 0v997h185v-151q40 80 122.5 127t184.5 47q216 0 303 -172q110 172 338 172q166 0 262 -101t96 -278v-641h-184v608q0 116 -60.5 180t-170.5 64q-104 0 -171 -74.5t-67 -191.5v-586h-184v608q0 116 -61 180t-171 64q-103 0 -170 -74.5t-67 -191.5v-586h-185z" />
<glyph unicode="n" horiz-adv-x="1114" d="M143 0v997h185v-151q40 80 121.5 127t179.5 47q162 0 257 -102.5t95 -276.5v-641h-184v608q0 117 -61 180.5t-171 63.5q-103 0 -170 -74t-67 -192v-586h-185z" />
<glyph unicode="o" horiz-adv-x="1181" d="M82 498q0 227 144.5 374.5t365.5 147.5q220 0 364 -147.5t144 -374.5q0 -225 -144.5 -373t-363.5 -148q-221 0 -365.5 148t-144.5 373zM268 498q0 -155 91 -254t233 -99q141 0 231 99t90 254q0 156 -90 255t-231 99q-143 0 -233.5 -98.5t-90.5 -255.5z" />
<glyph unicode="p" horiz-adv-x="1234" d="M143 -410v1407h185v-172q47 90 142.5 142.5t211.5 52.5q206 0 338.5 -146.5t132.5 -373.5q0 -229 -132.5 -376t-338.5 -147q-115 0 -212.5 51.5t-141.5 135.5v-574h-185zM322 500q0 -157 90 -256t233 -99q141 0 231.5 100t90.5 255t-90.5 253.5t-231.5 98.5t-232 -98.5 t-91 -253.5z" />
<glyph unicode="q" horiz-adv-x="1234" d="M82 500q0 227 132.5 373.5t338.5 146.5q116 0 211.5 -52.5t142.5 -142.5v172h185v-1407h-185v574q-44 -84 -141.5 -135.5t-212.5 -51.5q-206 0 -338.5 147t-132.5 376zM268 500q0 -155 90.5 -255t231.5 -100q143 0 233 99t90 256q0 155 -91 253.5t-232 98.5t-231.5 -98.5 t-90.5 -253.5z" />
<glyph unicode="r" horiz-adv-x="907" d="M143 0v997h185v-151q28 85 92.5 129.5t144.5 44.5q240 0 291 -309l-186 -49q-19 102 -51.5 146t-112.5 44q-93 0 -135.5 -72t-42.5 -194v-586h-185z" />
<glyph unicode="s" horiz-adv-x="903" d="M72 270l166 41q13 -88 74.5 -137t156.5 -49q86 0 135 37t49 102q0 55 -34 87.5t-111 49.5l-137 31q-129 29 -198 104.5t-69 186.5q0 133 97 215t254 82q146 0 246.5 -72.5t123.5 -195.5l-161 -45q-13 79 -68 122t-141 43q-78 0 -125 -39.5t-47 -105.5q0 -103 135 -133 l137 -31q145 -32 210.5 -99t65.5 -183q0 -137 -99 -220.5t-263 -83.5q-157 0 -269.5 83.5t-127.5 209.5z" />
<glyph unicode="t" horiz-adv-x="919" d="M31 834v163h196v303h185v-303h360v-163h-360v-545q0 -68 37 -106t104 -38q63 0 99 35t53 113l163 -49q-23 -128 -104.5 -197.5t-210.5 -69.5q-157 0 -241.5 80.5t-84.5 231.5v545h-196z" />
<glyph unicode="u" horiz-adv-x="1114" d="M133 356v641h184v-608q0 -117 61 -180.5t171 -63.5q103 0 170 74.5t67 192.5v585h185v-997h-185v152q-40 -80 -121.5 -127.5t-179.5 -47.5q-162 0 -257 102.5t-95 276.5z" />
<glyph unicode="v" horiz-adv-x="1060" d="M31 997h205l294 -794l295 794h205l-401 -997h-197z" />
<glyph unicode="w" horiz-adv-x="1562" d="M31 997h205l208 -798l234 798h209l233 -798l207 798h205l-305 -997h-213l-230 791l-229 -791h-221z" />
<glyph unicode="x" horiz-adv-x="1028" d="M41 0l371 508l-355 489h209l256 -354l240 354h209l-353 -487l369 -510h-209l-268 373l-260 -373h-209z" />
<glyph unicode="y" horiz-adv-x="1064" d="M31 997h205l305 -776l288 776h205l-471 -1153q-60 -148 -139.5 -212t-202.5 -64q-117 0 -170 39l43 155q32 -26 111 -26q68 0 111.5 38t84.5 126l50 104z" />
<glyph unicode="z" horiz-adv-x="929" d="M86 0v156l532 678h-524v163h750v-155l-533 -678h533v-164h-758z" />
<glyph unicode="{" horiz-adv-x="690" d="M51 477v180q121 0 164 34.5t43 131.5v387q0 334 350 334h31v-155h-31q-82 0 -124 -45.5t-42 -133.5v-387q0 -95 -50.5 -161t-145.5 -95q95 -29 145.5 -95t50.5 -161v-387q0 -178 166 -178h31v-156h-31q-350 0 -350 334v387q0 97 -43 131.5t-164 34.5z" />
<glyph unicode="|" horiz-adv-x="573" d="M195 -410v1885h184v-1885h-184z" />
<glyph unicode="}" horiz-adv-x="690" d="M51 -254h31q166 0 166 178v387q0 95 50.5 161t145.5 95q-95 29 -145.5 95t-50.5 161v387q0 88 -42 133.5t-124 45.5h-31v155h31q350 0 350 -334v-387q0 -97 43 -131.5t164 -34.5v-180q-121 0 -164 -34.5t-43 -131.5v-387q0 -334 -350 -334h-31v156z" />
<glyph unicode="~" horiz-adv-x="1228" d="M133 545q0 116 65 179.5t183 63.5q61 0 125.5 -18t109 -39t95.5 -39t88 -18q52 0 80 27.5t36 86.5l160 -40q0 -116 -65 -180t-183 -64q-77 0 -157 28.5t-147.5 57t-112.5 28.5q-53 0 -81.5 -28t-35.5 -86z" />
<glyph unicode="&#xa1;" horiz-adv-x="507" d="M113 1026q0 58 41.5 99.5t99.5 41.5t99.5 -41.5t41.5 -99.5t-41.5 -99.5t-99.5 -41.5t-99.5 41.5t-41.5 99.5zM158 -279v1031h194v-1031h-194z" />
<glyph unicode="&#xa2;" horiz-adv-x="1110" d="M82 498q0 202 115 343.5t299 172.5v147h184v-149q131 -23 224 -107.5t128 -212.5l-168 -55q-29 101 -103 158t-177 57q-138 0 -227 -99.5t-89 -254.5t88.5 -254t227.5 -99q101 0 180 57t108 152l166 -57q-36 -120 -132.5 -203t-225.5 -108v-150h-184v148 q-184 31 -299 172t-115 342z" />
<glyph unicode="&#xa3;" horiz-adv-x="1181" d="M92 0v174q266 115 266 293q0 40 -10 88h-256v182h176q-30 56 -46.5 92t-32 93.5t-15.5 113.5q0 179 135 299.5t336 120.5q195 0 324.5 -102.5t160.5 -280.5l-182 -59q-22 125 -99.5 190.5t-203.5 65.5q-129 0 -200.5 -62t-71.5 -172q0 -19 3 -40t5.5 -36.5t11.5 -40 t12 -34.5t16.5 -39t16 -34.5t19.5 -39t18 -35.5h375v-182h-303q10 -48 10 -88q0 -174 -145 -285h718v-182h-1038z" />
<glyph unicode="&#xa5;" horiz-adv-x="1208" d="M41 1434h211l352 -648l352 648h211l-460 -818h364v-163h-371v-125h371v-164h-371v-164h-194v164h-367v164h367v125h-367v163h361z" />
<glyph unicode="&#xa7;" horiz-adv-x="1112" d="M133 565q0 99 49 175t133 110q-182 83 -182 266q0 148 116 244t294 96q166 0 279 -85.5t139 -231.5l-177 -45q-20 97 -83 147.5t-164 50.5q-98 0 -158 -46.5t-60 -123.5q0 -63 51 -100t179 -66l110 -24q164 -37 242 -112.5t78 -198.5q0 -99 -49 -175t-133 -110 q182 -83 182 -266q0 -148 -116 -244t-294 -96q-166 0 -278.5 85.5t-138.5 231.5l176 45q20 -97 83 -147.5t164 -50.5q98 0 158 46.5t60 122.5q0 63 -51 100t-179 66l-110 25q-164 37 -242 112.5t-78 198.5zM317 588q0 -72 44.5 -111t156.5 -65l72 -17q76 -19 140.5 45 t64.5 158q0 72 -44.5 111t-156.5 65l-72 17q-76 19 -140.5 -45t-64.5 -158z" />
<glyph unicode="&#xa8;" horiz-adv-x="999" d="M102 1366q0 56 38 93.5t93 37.5q56 0 94 -38t38 -93t-38 -93t-94 -38q-55 0 -93 37.5t-38 93.5zM635 1366q0 56 37.5 93.5t93.5 37.5t93.5 -37.5t37.5 -93.5t-37.5 -93.5t-93.5 -37.5t-93.5 37.5t-37.5 93.5z" />
<glyph unicode="&#xa9;" horiz-adv-x="1679" d="M82 717q0 150 60 287t161.5 236t242 157.5t294.5 58.5q206 0 380 -99t275.5 -269t101.5 -371q0 -150 -60 -287t-161.5 -236.5t-241.5 -158t-294 -58.5t-294.5 58.5t-242 158t-161.5 236.5t-60 287zM258 717q0 -158 78 -292t212 -212t292 -78t292 78t211.5 212t77.5 292 t-77.5 292t-211.5 211.5t-292 77.5t-292 -77.5t-212 -211.5t-78 -292zM428 717q0 190 118 313t300 123q138 0 239.5 -79.5t135.5 -215.5l-172 -45q-22 78 -75.5 122t-127.5 44q-100 0 -165 -74t-65 -188q0 -115 65 -188.5t165 -73.5q72 0 129.5 44t79.5 117l172 -47 q-37 -129 -142 -207.5t-239 -78.5q-182 0 -300 122.5t-118 311.5z" />
<glyph unicode="&#xaa;" horiz-adv-x="862" d="M61 856q0 127 89.5 193.5t261.5 66.5h174v47q0 69 -40.5 105.5t-117.5 36.5q-70 0 -119 -37.5t-59 -108.5l-160 37q13 116 107.5 188t230.5 72q157 0 244.5 -77.5t87.5 -215.5v-528h-174v90q-38 -52 -102 -80.5t-144 -28.5q-130 0 -204.5 64.5t-74.5 175.5zM236 862 q0 -52 37 -82t102 -30q92 0 151.5 55.5t59.5 140.5v39h-166q-95 0 -139.5 -30t-44.5 -93z" />
<glyph unicode="&#xab;" horiz-adv-x="1120" d="M82 522l307 420h199l-307 -420l307 -420h-199zM553 522l307 420h199l-307 -420l307 -420h-199z" />
<glyph unicode="&#xad;" horiz-adv-x="849" d="M123 502v174h604v-174h-604z" />
<glyph unicode="&#xae;" horiz-adv-x="1091" d="M72 983q0 97 37.5 184.5t100.5 150.5t150.5 100.5t184.5 37.5t185 -37.5t151.5 -100.5t101 -150.5t37.5 -184.5q0 -198 -138.5 -336.5t-336.5 -138.5q-97 0 -184.5 37.5t-150.5 101t-100.5 151.5t-37.5 185zM184 983q0 -152 105 -257t256 -105q152 0 257 105t105 257 q0 151 -105 255.5t-257 104.5q-151 0 -256 -104.5t-105 -255.5zM336 692v582h242q82 0 133 -48t51 -124q0 -66 -36.5 -111t-98.5 -59l135 -240h-131l-129 236h-43v-236h-123zM459 1030h98q82 0 82 72q0 69 -82 69h-98v-141z" />
<glyph unicode="&#xaf;" horiz-adv-x="827" d="M102 1251v183h623v-183h-623z" />
<glyph unicode="&#xb0;" horiz-adv-x="962" d="M61 1038q0 172 123.5 295t296.5 123t296.5 -123t123.5 -295q0 -173 -123.5 -296.5t-296.5 -123.5t-296.5 123.5t-123.5 296.5zM238 1038q0 -103 71 -174t172 -71t172.5 71.5t71.5 173.5q0 101 -71.5 172.5t-172.5 71.5t-172 -71.5t-71 -172.5z" />
<glyph unicode="&#xb4;" horiz-adv-x="632" d="M102 1147l185 328h243l-247 -328h-181z" />
<glyph unicode="&#xb5;" horiz-adv-x="1114" d="M133 -410v1407h184v-608q0 -117 61 -180.5t171 -63.5q103 0 170 74.5t67 192.5v585h185v-997h-185v152q-40 -80 -121.5 -127.5t-179.5 -47.5q-95 0 -168 37v-424h-184z" />
<glyph unicode="&#xb6;" horiz-adv-x="1282" d="M133 1126q0 136 102.5 222t286.5 86h195v-1844h-185v1229h-30q-170 0 -269.5 86t-99.5 221zM924 -410v1844h184v-1844h-184z" />
<glyph unicode="&#xb7;" horiz-adv-x="507" d="M113 641q0 59 41.5 100t99.5 41t99.5 -41t41.5 -100t-41.5 -100t-99.5 -41t-99.5 41t-41.5 100z" />
<glyph unicode="&#xb8;" horiz-adv-x="602" d="M102 -369l41 140q60 -31 125 -31q70 0 70 45q0 26 -28 37.5t-93 11.5l-61 72l53 131h141l-43 -94q93 -11 143 -55.5t50 -118.5q0 -83 -56.5 -131t-154.5 -48q-121 0 -187 41z" />
<glyph unicode="&#xba;" horiz-adv-x="952" d="M61 1036q0 183 118 301.5t298 118.5q179 0 296.5 -118.5t117.5 -301.5q0 -181 -117.5 -300.5t-296.5 -119.5q-180 0 -298 119t-118 301zM238 1036q0 -115 66.5 -187.5t172.5 -72.5q105 0 171.5 72.5t66.5 187.5t-67 188.5t-171 73.5q-106 0 -172.5 -72.5t-66.5 -189.5z " />
<glyph unicode="&#xbb;" horiz-adv-x="1120" d="M61 102l308 420l-308 420h199l307 -420l-307 -420h-199zM532 102l308 420l-308 420h199l307 -420l-307 -420h-199z" />
<glyph unicode="&#xbf;" horiz-adv-x="1019" d="M61 98q0 101 48.5 190t160.5 195l39 37q63 60 90 99t27 71v62h195v-62q0 -61 -38.5 -121t-140.5 -157l-39 -37q-78 -75 -110.5 -138t-32.5 -139q0 -94 71 -153.5t183 -59.5q121 0 199 64t98 180l188 -49q-35 -179 -163.5 -280t-321.5 -101q-207 0 -330 108t-123 291z M379 1026q0 58 41.5 99.5t99.5 41.5q59 0 100.5 -41.5t41.5 -99.5t-41.5 -99.5t-100.5 -41.5q-58 0 -99.5 41.5t-41.5 99.5z" />
<glyph unicode="&#xc0;" horiz-adv-x="1298" d="M41 0l487 1434h238l491 -1434h-202l-135 408h-543l-133 -408h-203zM352 1782h264l205 -266h-200zM436 590h424l-213 643z" />
<glyph unicode="&#xc1;" horiz-adv-x="1298" d="M41 0l487 1434h238l491 -1434h-202l-135 408h-543l-133 -408h-203zM436 590h424l-213 643zM537 1516l204 266h265l-269 -266h-200z" />
<glyph unicode="&#xc2;" horiz-adv-x="1298" d="M41 0l487 1434h238l491 -1434h-202l-135 408h-543l-133 -408h-203zM270 1516l242 266h272l242 -266h-215l-164 194l-162 -194h-215zM436 590h424l-213 643z" />
<glyph unicode="&#xc3;" horiz-adv-x="1298" d="M41 0l487 1434h238l491 -1434h-202l-135 408h-543l-133 -408h-203zM262 1556q0 116 54.5 180t152.5 64q48 0 99.5 -18t87 -39t76 -39t69.5 -18q67 0 76 114l159 -41q0 -115 -54.5 -179t-152.5 -64q-61 0 -124.5 28.5t-117 57t-89.5 28.5q-67 0 -76 -114zM436 590h424 l-213 643z" />
<glyph unicode="&#xc4;" horiz-adv-x="1298" d="M41 0l487 1434h238l491 -1434h-202l-135 408h-543l-133 -408h-203zM252 1651q0 55 38 93t93 38t93 -38t38 -93t-38 -93t-93 -38t-93 38t-38 93zM436 590h424l-213 643zM784 1651q0 55 38 93t93 38q56 0 94 -38t38 -93t-38 -93t-94 -38q-55 0 -93 38t-38 93z" />
<glyph unicode="&#xc5;" horiz-adv-x="1298" d="M41 0l487 1434h238l491 -1434h-202l-135 408h-543l-133 -408h-203zM412 1688q0 92 67 152.5t170 60.5t170.5 -60.5t67.5 -152.5t-67.5 -152.5t-170.5 -60.5t-170 60.5t-67 152.5zM436 590h424l-213 643zM561 1688q0 -39 25.5 -65t62.5 -26t62.5 26t25.5 65t-25.5 64.5 t-62.5 25.5t-62.5 -25.5t-25.5 -64.5z" />
<glyph unicode="&#xc6;" horiz-adv-x="1910" d="M41 0l850 1434h897v-183h-610v-434h579v-182h-579v-453h620v-182h-815v408h-489l-234 -408h-219zM598 590h385v670z" />
<glyph unicode="&#xc7;" horiz-adv-x="1325" d="M82 717q0 335 168 537t446 202q217 0 363 -142.5t168 -375.5h-195q-25 164 -110 248t-226 84q-193 0 -304 -148t-111 -405q0 -261 109.5 -407t305.5 -146q146 0 231.5 80t119.5 248h196q-26 -212 -151.5 -348t-315.5 -162l-18 -39q93 -11 142.5 -55t49.5 -119 q0 -83 -56.5 -131t-154.5 -48q-120 0 -186 41l41 140q60 -31 125 -31q69 0 69 45q0 26 -28 37.5t-92 11.5l-62 72l31 74q-257 22 -406 218.5t-149 518.5z" />
<glyph unicode="&#xc8;" horiz-adv-x="1142" d="M174 0v1434h846v-183h-651v-434h620v-182h-620v-453h661v-182h-856zM322 1782h264l205 -266h-201z" />
<glyph unicode="&#xc9;" horiz-adv-x="1142" d="M174 0v1434h846v-183h-651v-434h620v-182h-620v-453h661v-182h-856zM506 1516l205 266h264l-268 -266h-201z" />
<glyph unicode="&#xca;" horiz-adv-x="1142" d="M174 0v1434h846v-183h-651v-434h620v-182h-620v-453h661v-182h-856zM240 1516l241 266h273l241 -266h-215l-164 194l-161 -194h-215z" />
<glyph unicode="&#xcb;" horiz-adv-x="1142" d="M174 0v1434h846v-183h-651v-434h620v-182h-620v-453h661v-182h-856zM221 1651q0 55 37.5 93t93.5 38t93.5 -38t37.5 -93t-37.5 -93t-93.5 -38t-93.5 38t-37.5 93zM754 1651q0 55 38 93t93 38t93 -38t38 -93t-38 -93t-93 -38t-93 38t-38 93z" />
<glyph unicode="&#xcc;" horiz-adv-x="542" d="M-25 1782h265l204 -266h-200zM174 0v1434h195v-1434h-195z" />
<glyph unicode="&#xcd;" horiz-adv-x="542" d="M160 1516l205 266h264l-269 -266h-200zM174 0v1434h195v-1434h-195z" />
<glyph unicode="&#xce;" horiz-adv-x="542" d="M-106 1516l241 266h273l241 -266h-215l-164 194l-161 -194h-215zM174 0v1434h195v-1434h-195z" />
<glyph unicode="&#xcf;" horiz-adv-x="542" d="M-125 1651q0 55 37.5 93t93.5 38t93.5 -38t37.5 -93t-37.5 -93t-93.5 -38t-93.5 38t-37.5 93zM174 0v1434h195v-1434h-195zM408 1651q0 55 38 93t93 38t93 -38t38 -93t-38 -93t-93 -38t-93 38t-38 93z" />
<glyph unicode="&#xd0;" horiz-adv-x="1312" d="M-10 627v182h184v625h367q312 0 501 -196t189 -519q0 -160 -50 -294t-139.5 -227.5t-218 -145.5t-282.5 -52h-367v627h-184zM369 182h172q224 0 357.5 146t133.5 391q0 243 -133.5 387.5t-357.5 144.5h-172v-442h379v-182h-379v-445z" />
<glyph unicode="&#xd1;" horiz-adv-x="1388" d="M174 0v1434h215l631 -1092v1092h194v-1434h-215l-630 1092v-1092h-195zM307 1556q0 116 54.5 180t152.5 64q48 0 99.5 -18t87 -39t76 -39t69.5 -18q67 0 76 114l159 -41q0 -115 -54.5 -179t-152.5 -64q-61 0 -124.5 28.5t-117 57t-89.5 28.5q-67 0 -76 -114z" />
<glyph unicode="&#xd2;" d="M82 717q0 333 167 536t447 203t447.5 -203t167.5 -536q0 -341 -166 -540.5t-449 -199.5t-448.5 199.5t-165.5 540.5zM281 717q0 -262 110 -407.5t305 -145.5q196 0 306 145.5t110 407.5q0 256 -111 404.5t-305 148.5t-304.5 -148.5t-110.5 -404.5zM401 1782h265l204 -266 h-200z" />
<glyph unicode="&#xd3;" d="M82 717q0 333 167 536t447 203t447.5 -203t167.5 -536q0 -341 -166 -540.5t-449 -199.5t-448.5 199.5t-165.5 540.5zM281 717q0 -262 110 -407.5t305 -145.5q196 0 306 145.5t110 407.5q0 256 -111 404.5t-305 148.5t-304.5 -148.5t-110.5 -404.5zM586 1516l205 266h264 l-269 -266h-200z" />
<glyph unicode="&#xd4;" d="M82 717q0 333 167 536t447 203t447.5 -203t167.5 -536q0 -341 -166 -540.5t-449 -199.5t-448.5 199.5t-165.5 540.5zM281 717q0 -262 110 -407.5t305 -145.5q196 0 306 145.5t110 407.5q0 256 -111 404.5t-305 148.5t-304.5 -148.5t-110.5 -404.5zM319 1516l242 266h273 l241 -266h-215l-164 194l-161 -194h-216z" />
<glyph unicode="&#xd5;" d="M82 717q0 333 167 536t447 203t447.5 -203t167.5 -536q0 -341 -166 -540.5t-449 -199.5t-448.5 199.5t-165.5 540.5zM281 717q0 -262 110 -407.5t305 -145.5q196 0 306 145.5t110 407.5q0 256 -111 404.5t-305 148.5t-304.5 -148.5t-110.5 -404.5zM311 1556 q0 116 54.5 180t152.5 64q48 0 99.5 -18t87 -39t76 -39t69.5 -18q67 0 76 114l159 -41q0 -116 -54 -179.5t-152 -63.5q-48 0 -99.5 18t-87 39t-76 39t-69.5 18q-67 0 -76 -114z" />
<glyph unicode="&#xd6;" d="M82 717q0 333 167 536t447 203t447.5 -203t167.5 -536q0 -341 -166 -540.5t-449 -199.5t-448.5 199.5t-165.5 540.5zM281 717q0 -262 110 -407.5t305 -145.5q196 0 306 145.5t110 407.5q0 256 -111 404.5t-305 148.5t-304.5 -148.5t-110.5 -404.5zM301 1651q0 55 37.5 93 t93.5 38t93.5 -38t37.5 -93t-37.5 -93t-93.5 -38t-93.5 38t-37.5 93zM834 1651q0 55 38 93t93 38t93 -38t38 -93t-38 -93t-93 -38t-93 38t-38 93z" />
<glyph unicode="&#xd8;" d="M-53 0l237 270q-102 178 -102 447q0 333 167 536t447 203q234 0 394 -147l108 125h250l-240 -275q103 -189 103 -442q0 -341 -166 -540.5t-449 -199.5q-235 0 -395 144l-104 -121h-250zM281 717q0 -169 45 -285l637 733q-105 105 -267 105q-194 0 -304.5 -148.5 t-110.5 -404.5zM428 266q105 -102 268 -102q196 0 306 145.5t110 407.5q0 156 -45 280z" />
<glyph unicode="&#xd9;" horiz-adv-x="1355" d="M164 502v932h194v-932q0 -164 82.5 -251t237.5 -87t237 87t82 251v932h195v-932q0 -244 -138 -384.5t-376 -140.5t-376 140.5t-138 384.5zM381 1782h264l205 -266h-201z" />
<glyph unicode="&#xda;" horiz-adv-x="1355" d="M164 502v932h194v-932q0 -164 82.5 -251t237.5 -87t237 87t82 251v932h195v-932q0 -244 -138 -384.5t-376 -140.5t-376 140.5t-138 384.5zM565 1516l205 266h264l-268 -266h-201z" />
<glyph unicode="&#xdb;" horiz-adv-x="1355" d="M164 502v932h194v-932q0 -164 82.5 -251t237.5 -87t237 87t82 251v932h195v-932q0 -244 -138 -384.5t-376 -140.5t-376 140.5t-138 384.5zM299 1516l242 266h272l242 -266h-215l-164 194l-162 -194h-215z" />
<glyph unicode="&#xdc;" horiz-adv-x="1355" d="M164 502v932h194v-932q0 -164 82.5 -251t237.5 -87t237 87t82 251v932h195v-932q0 -244 -138 -384.5t-376 -140.5t-376 140.5t-138 384.5zM281 1651q0 55 37.5 93t93.5 38t93.5 -38t37.5 -93t-37.5 -93t-93.5 -38t-93.5 38t-37.5 93zM813 1651q0 55 37.5 93t93.5 38 t93.5 -38t37.5 -93t-37.5 -93t-93.5 -38t-93.5 38t-37.5 93z" />
<glyph unicode="&#xdd;" horiz-adv-x="1208" d="M41 1434h211l352 -648l352 648h211l-467 -828v-606h-194v606zM492 1516l204 266h265l-269 -266h-200z" />
<glyph unicode="&#xde;" horiz-adv-x="1198" d="M174 0v1434h195v-246h297q214 0 342.5 -116.5t128.5 -309.5q0 -192 -129 -309t-342 -117h-297v-336h-195zM369 518h297q127 0 199.5 65t72.5 179t-72.5 179t-199.5 65h-297v-488z" />
<glyph unicode="&#xdf;" horiz-adv-x="1234" d="M143 0v997q0 223 132 350.5t362 127.5q209 0 333 -110.5t124 -295.5q0 -121 -61 -208t-165 -118q113 -28 183.5 -125.5t70.5 -230.5q0 -193 -113.5 -301.5t-316.5 -108.5q-73 0 -146 20.5t-118 53.5l66 158q70 -64 192 -64q123 0 186.5 61t63.5 181q0 127 -79 193.5 t-230 66.5h-80v164h80q136 0 208 66.5t72 191.5q0 114 -70.5 176t-199.5 62q-146 0 -227.5 -82t-81.5 -228v-997h-185z" />
<glyph unicode="&#xe0;" horiz-adv-x="1062" d="M82 276q0 158 110.5 240t325.5 82q120 0 227 -39v103q0 93 -55.5 141.5t-161.5 48.5q-85 0 -144.5 -38.5t-84.5 -108.5l-166 59q37 117 143 186.5t252 69.5q190 0 296 -94.5t106 -263.5v-662h-185v115q-46 -65 -128 -101.5t-183 -36.5q-166 0 -259 79t-93 220zM246 1475 h243l185 -328h-180zM268 276q0 -70 50.5 -110.5t138.5 -40.5q126 0 207 75.5t81 192.5v2q-99 47 -227 47q-130 0 -190 -40t-60 -126z" />
<glyph unicode="&#xe1;" horiz-adv-x="1062" d="M82 276q0 158 110.5 240t325.5 82q120 0 227 -39v103q0 93 -55.5 141.5t-161.5 48.5q-85 0 -144.5 -38.5t-84.5 -108.5l-166 59q37 117 143 186.5t252 69.5q190 0 296 -94.5t106 -263.5v-662h-185v115q-46 -65 -128 -101.5t-183 -36.5q-166 0 -259 79t-93 220zM268 276 q0 -70 50.5 -110.5t138.5 -40.5q126 0 207 75.5t81 192.5v2q-99 47 -227 47q-130 0 -190 -40t-60 -126zM440 1147l185 328h243l-247 -328h-181z" />
<glyph unicode="&#xe2;" horiz-adv-x="1062" d="M82 276q0 158 110.5 240t325.5 82q120 0 227 -39v103q0 93 -55.5 141.5t-161.5 48.5q-85 0 -144.5 -38.5t-84.5 -108.5l-166 59q37 117 143 186.5t252 69.5q190 0 296 -94.5t106 -263.5v-662h-185v115q-46 -65 -128 -101.5t-183 -36.5q-166 0 -259 79t-93 220zM154 1147 l241 328h273l241 -328h-215l-164 239l-161 -239h-215zM268 276q0 -70 50.5 -110.5t138.5 -40.5q126 0 207 75.5t81 192.5v2q-99 47 -227 47q-130 0 -190 -40t-60 -126z" />
<glyph unicode="&#xe3;" horiz-adv-x="1062" d="M82 276q0 158 110.5 240t325.5 82q120 0 227 -39v103q0 93 -55.5 141.5t-161.5 48.5q-85 0 -144.5 -38.5t-84.5 -108.5l-166 59q37 117 143 186.5t252 69.5q190 0 296 -94.5t106 -263.5v-662h-185v115q-46 -65 -128 -101.5t-183 -36.5q-166 0 -259 79t-93 220zM145 1231 q0 116 54.5 180t152.5 64q48 0 99.5 -18t87 -39.5t76 -39.5t69.5 -18q67 0 76 115l160 -41q0 -116 -54.5 -180t-152.5 -64q-61 0 -125 29t-117.5 57.5t-89.5 28.5q-67 0 -76 -115zM268 276q0 -70 50.5 -110.5t138.5 -40.5q126 0 207 75.5t81 192.5v2q-99 47 -227 47 q-130 0 -190 -40t-60 -126z" />
<glyph unicode="&#xe4;" horiz-adv-x="1062" d="M82 276q0 158 110.5 240t325.5 82q120 0 227 -39v103q0 93 -55.5 141.5t-161.5 48.5q-85 0 -144.5 -38.5t-84.5 -108.5l-166 59q37 117 143 186.5t252 69.5q190 0 296 -94.5t106 -263.5v-662h-185v115q-46 -65 -128 -101.5t-183 -36.5q-166 0 -259 79t-93 220zM135 1366 q0 56 37.5 93.5t93.5 37.5t93.5 -37.5t37.5 -93.5t-37.5 -93.5t-93.5 -37.5t-93.5 37.5t-37.5 93.5zM268 276q0 -70 50.5 -110.5t138.5 -40.5q126 0 207 75.5t81 192.5v2q-99 47 -227 47q-130 0 -190 -40t-60 -126zM668 1366q0 56 38 93.5t93 37.5t93 -37.5t38 -93.5 t-38 -93.5t-93 -37.5t-93 37.5t-38 93.5z" />
<glyph unicode="&#xe5;" horiz-adv-x="1062" d="M82 276q0 158 110.5 240t325.5 82q120 0 227 -39v103q0 93 -55.5 141.5t-161.5 48.5q-85 0 -144.5 -38.5t-84.5 -108.5l-166 59q37 117 143 186.5t252 69.5q190 0 296 -94.5t106 -263.5v-662h-185v115q-46 -65 -128 -101.5t-183 -36.5q-166 0 -259 79t-93 220zM268 276 q0 -70 50.5 -110.5t138.5 -40.5q126 0 207 75.5t81 192.5v2q-99 47 -227 47q-130 0 -190 -40t-60 -126zM295 1323q0 92 67 152.5t170 60.5t170.5 -60.5t67.5 -152.5t-67.5 -152.5t-170.5 -60.5t-170 60.5t-67 152.5zM444 1323q0 -39 25.5 -64.5t62.5 -25.5t63 25.5t26 64.5 t-26 64.5t-63 25.5t-62.5 -25.5t-25.5 -64.5z" />
<glyph unicode="&#xe6;" horiz-adv-x="1787" d="M82 276q0 158 110.5 240t325.5 82h227v64q0 93 -55.5 141.5t-161.5 48.5q-99 0 -162.5 -51.5t-76.5 -143.5l-170 41q17 145 130 233.5t279 88.5q251 0 349 -158q145 158 368 158q212 0 336.5 -136t124.5 -368l-4 -74h-768q15 -133 100 -215t211 -82q101 0 180.5 57.5 t108.5 151.5l166 -57q-43 -142 -169 -231t-286 -89q-128 0 -232 53.5t-171 149.5q-70 -108 -166 -155.5t-242 -47.5q-166 0 -259 79t-93 220zM268 276q0 -70 50.5 -110.5t138.5 -40.5q126 0 207 75.5t81 192.5v49h-227q-130 0 -190 -40t-60 -126zM940 598h584 q-14 119 -88 186.5t-191 67.5q-115 0 -197 -69t-108 -185z" />
<glyph unicode="&#xe7;" horiz-adv-x="1110" d="M82 498q0 227 142 374.5t360 147.5q166 0 286.5 -88t161.5 -240l-168 -55q-29 101 -103 158t-177 57q-138 0 -227 -99.5t-89 -254.5t88.5 -254t227.5 -99q101 0 180 57t108 152l166 -57q-40 -132 -150 -217.5t-255 -99.5l-17 -37q93 -11 143 -55.5t50 -118.5 q0 -83 -56.5 -131t-154.5 -48q-120 0 -186 41l41 140q60 -31 125 -31q69 0 69 45q0 26 -28 37.5t-93 11.5l-61 72l33 78q-185 29 -300.5 170.5t-115.5 343.5z" />
<glyph unicode="&#xe8;" horiz-adv-x="1126" d="M82 498q0 228 141.5 375t360.5 147q212 0 336 -136t124 -368q0 -42 -4 -74h-768q15 -134 100.5 -215.5t211.5 -81.5q80 0 149 38t109 104l147 -99q-64 -98 -171.5 -154.5t-233.5 -56.5q-219 0 -360.5 147.5t-141.5 373.5zM276 1475h244l185 -328h-181zM279 598h583 q-14 119 -87.5 186.5t-190.5 67.5q-114 0 -196 -69.5t-109 -184.5z" />
<glyph unicode="&#xe9;" horiz-adv-x="1126" d="M82 498q0 228 141.5 375t360.5 147q212 0 336 -136t124 -368q0 -42 -4 -74h-768q15 -134 100.5 -215.5t211.5 -81.5q80 0 149 38t109 104l147 -99q-64 -98 -171.5 -154.5t-233.5 -56.5q-219 0 -360.5 147.5t-141.5 373.5zM279 598h583q-14 119 -87.5 186.5t-190.5 67.5 q-114 0 -196 -69.5t-109 -184.5zM471 1147l184 328h244l-248 -328h-180z" />
<glyph unicode="&#xea;" horiz-adv-x="1126" d="M82 498q0 228 141.5 375t360.5 147q212 0 336 -136t124 -368q0 -42 -4 -74h-768q15 -134 100.5 -215.5t211.5 -81.5q80 0 149 38t109 104l147 -99q-64 -98 -171.5 -154.5t-233.5 -56.5q-219 0 -360.5 147.5t-141.5 373.5zM184 1147l242 328h272l242 -328h-215l-164 239 l-162 -239h-215zM279 598h583q-14 119 -87.5 186.5t-190.5 67.5q-114 0 -196 -69.5t-109 -184.5z" />
<glyph unicode="&#xeb;" horiz-adv-x="1126" d="M82 498q0 228 141.5 375t360.5 147q212 0 336 -136t124 -368q0 -42 -4 -74h-768q15 -134 100.5 -215.5t211.5 -81.5q80 0 149 38t109 104l147 -99q-64 -98 -171.5 -154.5t-233.5 -56.5q-219 0 -360.5 147.5t-141.5 373.5zM166 1366q0 56 38 93.5t93 37.5t93 -37.5 t38 -93.5t-38 -93.5t-93 -37.5t-93 37.5t-38 93.5zM279 598h583q-14 119 -87.5 186.5t-190.5 67.5q-114 0 -196 -69.5t-109 -184.5zM698 1366q0 56 38 93.5t93 37.5q56 0 94 -38t38 -93t-38 -93t-94 -38q-55 0 -93 37.5t-38 93.5z" />
<glyph unicode="&#xec;" horiz-adv-x="471" d="M-51 1475h244l184 -328h-180zM143 0v997h185v-997h-185z" />
<glyph unicode="&#xed;" horiz-adv-x="471" d="M143 0v997h185v-997h-185zM143 1147l185 328h243l-247 -328h-181z" />
<glyph unicode="&#xee;" horiz-adv-x="471" d="M-102 1147l200 328h273l200 -328h-215l-123 227l-120 -227h-215zM143 0v997h185v-997h-185z" />
<glyph unicode="&#xef;" horiz-adv-x="471" d="M-100 1366q0 56 38 93.5t93 37.5t93 -37.5t38 -93.5t-38 -93.5t-93 -37.5t-93 37.5t-38 93.5zM143 0v997h185v-997h-185zM309 1366q0 56 37.5 93.5t93.5 37.5t93.5 -37.5t37.5 -93.5t-37.5 -93.5t-93.5 -37.5t-93.5 37.5t-37.5 93.5z" />
<glyph unicode="&#xf0;" horiz-adv-x="1216" d="M82 463q0 214 132.5 348.5t344.5 134.5q127 0 227 -58t150 -159q0 252 -201 412l-469 -170v164l289 104q-131 49 -289 49v187q307 0 529 -150l340 123v-164l-205 -74q205 -218 205 -559q0 -321 -143.5 -497.5t-405.5 -176.5q-221 0 -362.5 136.5t-141.5 349.5zM281 463 q0 -134 85.5 -216.5t223.5 -82.5q139 0 225 82.5t86 216.5q0 133 -85.5 215t-225.5 82q-138 0 -223.5 -82t-85.5 -215z" />
<glyph unicode="&#xf1;" horiz-adv-x="1114" d="M143 0v997h185v-151q40 80 121.5 127t179.5 47q162 0 257 -102.5t95 -276.5v-641h-184v608q0 117 -61 180.5t-171 63.5q-103 0 -170 -74t-67 -192v-586h-185zM170 1231q0 116 54.5 180t152.5 64q48 0 99.5 -18t87 -39.5t76 -39.5t69.5 -18q66 0 75 115l160 -41 q0 -116 -54.5 -180t-152.5 -64q-48 0 -99 18t-86.5 39.5t-76 39.5t-69.5 18q-67 0 -76 -115z" />
<glyph unicode="&#xf2;" horiz-adv-x="1181" d="M82 498q0 227 144.5 374.5t365.5 147.5q220 0 364 -147.5t144 -374.5q0 -225 -144.5 -373t-363.5 -148q-221 0 -365.5 148t-144.5 373zM268 498q0 -155 91 -254t233 -99q141 0 231 99t90 254q0 156 -90 255t-231 99q-143 0 -233.5 -98.5t-90.5 -255.5zM305 1475h244 l184 -328h-180z" />
<glyph unicode="&#xf3;" horiz-adv-x="1181" d="M82 498q0 227 144.5 374.5t365.5 147.5q220 0 364 -147.5t144 -374.5q0 -225 -144.5 -373t-363.5 -148q-221 0 -365.5 148t-144.5 373zM268 498q0 -155 91 -254t233 -99q141 0 231 99t90 254q0 156 -90 255t-231 99q-143 0 -233.5 -98.5t-90.5 -255.5zM500 1147l184 328 h244l-248 -328h-180z" />
<glyph unicode="&#xf4;" horiz-adv-x="1181" d="M82 498q0 227 144.5 374.5t365.5 147.5q220 0 364 -147.5t144 -374.5q0 -225 -144.5 -373t-363.5 -148q-221 0 -365.5 148t-144.5 373zM213 1147l242 328h272l242 -328h-215l-164 239l-162 -239h-215zM268 498q0 -155 91 -254t233 -99q141 0 231 99t90 254q0 156 -90 255 t-231 99q-143 0 -233.5 -98.5t-90.5 -255.5z" />
<glyph unicode="&#xf5;" horiz-adv-x="1181" d="M82 498q0 227 144.5 374.5t365.5 147.5q220 0 364 -147.5t144 -374.5q0 -225 -144.5 -373t-363.5 -148q-221 0 -365.5 148t-144.5 373zM205 1231q0 116 54.5 180t152.5 64q48 0 99 -18t86.5 -39.5t76 -39.5t69.5 -18q67 0 76 115l160 -41q0 -116 -54.5 -180t-152.5 -64 q-61 0 -125 29t-117.5 57.5t-89.5 28.5q-66 0 -75 -115zM268 498q0 -155 91 -254t233 -99q141 0 231 99t90 254q0 156 -90 255t-231 99q-143 0 -233.5 -98.5t-90.5 -255.5z" />
<glyph unicode="&#xf6;" horiz-adv-x="1181" d="M82 498q0 227 144.5 374.5t365.5 147.5q220 0 364 -147.5t144 -374.5q0 -225 -144.5 -373t-363.5 -148q-221 0 -365.5 148t-144.5 373zM195 1366q0 56 37.5 93.5t93.5 37.5t93.5 -37.5t37.5 -93.5t-37.5 -93.5t-93.5 -37.5t-93.5 37.5t-37.5 93.5zM268 498 q0 -155 91 -254t233 -99q141 0 231 99t90 254q0 156 -90 255t-231 99q-143 0 -233.5 -98.5t-90.5 -255.5zM727 1366q0 56 37.5 93.5t93.5 37.5t93.5 -37.5t37.5 -93.5t-37.5 -93.5t-93.5 -37.5t-93.5 37.5t-37.5 93.5z" />
<glyph unicode="&#xf7;" horiz-adv-x="1228" d="M133 559v164h942v-164h-942zM463 213q0 59 41.5 100t99.5 41t99.5 -41t41.5 -100t-41.5 -100t-99.5 -41t-99.5 41t-41.5 100zM463 1069q0 59 41.5 100t99.5 41t99.5 -41t41.5 -100t-41.5 -100t-99.5 -41t-99.5 41t-41.5 100z" />
<glyph unicode="&#xf8;" horiz-adv-x="1181" d="M74 0l129 152q-121 143 -121 346q0 227 144.5 374.5t365.5 147.5q152 0 276 -78l47 55h195l-129 -153q119 -141 119 -346q0 -225 -144.5 -373t-363.5 -148q-152 0 -279 78l-45 -55h-194zM268 498q0 -117 54 -205l434 516q-75 43 -164 43q-143 0 -233.5 -98.5 t-90.5 -255.5zM428 188q70 -43 164 -43q141 0 231 99t90 254q0 118 -53 204z" />
<glyph unicode="&#xf9;" horiz-adv-x="1114" d="M133 356v641h184v-608q0 -117 61 -180.5t171 -63.5q103 0 170 74.5t67 192.5v585h185v-997h-185v152q-40 -80 -121.5 -127.5t-179.5 -47.5q-162 0 -257 102.5t-95 276.5zM281 1475h243l185 -328h-181z" />
<glyph unicode="&#xfa;" horiz-adv-x="1114" d="M133 356v641h184v-608q0 -117 61 -180.5t171 -63.5q103 0 170 74.5t67 192.5v585h185v-997h-185v152q-40 -80 -121.5 -127.5t-179.5 -47.5q-162 0 -257 102.5t-95 276.5zM475 1147l184 328h244l-248 -328h-180z" />
<glyph unicode="&#xfb;" horiz-adv-x="1114" d="M133 356v641h184v-608q0 -117 61 -180.5t171 -63.5q103 0 170 74.5t67 192.5v585h185v-997h-185v152q-40 -80 -121.5 -127.5t-179.5 -47.5q-162 0 -257 102.5t-95 276.5zM188 1147l242 328h272l242 -328h-215l-164 239l-162 -239h-215z" />
<glyph unicode="&#xfc;" horiz-adv-x="1114" d="M133 356v641h184v-608q0 -117 61 -180.5t171 -63.5q103 0 170 74.5t67 192.5v585h185v-997h-185v152q-40 -80 -121.5 -127.5t-179.5 -47.5q-162 0 -257 102.5t-95 276.5zM170 1366q0 56 38 93.5t93 37.5t93 -37.5t38 -93.5t-38 -93.5t-93 -37.5t-93 37.5t-38 93.5z M702 1366q0 55 38 93t94 38t93.5 -37.5t37.5 -93.5t-37.5 -93.5t-93.5 -37.5t-94 38t-38 93z" />
<glyph unicode="&#xfd;" horiz-adv-x="1064" d="M31 997h205l305 -776l288 776h205l-471 -1153q-60 -148 -139.5 -212t-202.5 -64q-117 0 -170 39l43 155q32 -26 111 -26q68 0 111.5 38t84.5 126l50 104zM440 1147l185 328h243l-247 -328h-181z" />
<glyph unicode="&#xfe;" horiz-adv-x="1234" d="M143 -410v1885h185v-650q47 90 142.5 142.5t211.5 52.5q206 0 338.5 -146.5t132.5 -373.5q0 -229 -132.5 -376t-338.5 -147q-115 0 -212.5 51.5t-141.5 135.5v-574h-185zM322 500q0 -157 90 -256t233 -99q141 0 231.5 100t90.5 255t-90.5 253.5t-231.5 98.5t-232 -98.5 t-91 -253.5z" />
<glyph unicode="&#xff;" horiz-adv-x="1064" d="M31 997h205l305 -776l288 776h205l-471 -1153q-60 -148 -139.5 -212t-202.5 -64q-117 0 -170 39l43 155q32 -26 111 -26q68 0 111.5 38t84.5 126l50 104zM135 1366q0 56 37.5 93.5t93.5 37.5t93.5 -37.5t37.5 -93.5t-37.5 -93.5t-93.5 -37.5t-93.5 37.5t-37.5 93.5z M668 1366q0 56 38 93.5t93 37.5t93 -37.5t38 -93.5t-38 -93.5t-93 -37.5t-93 37.5t-38 93.5z" />
<glyph unicode="&#x131;" horiz-adv-x="471" d="M143 0v997h185v-997h-185z" />
<glyph unicode="&#x152;" horiz-adv-x="1951" d="M82 719q0 323 195 519t516 196h1036v-183h-629v-434h598v-182h-598v-453h639v-182h-1046q-320 0 -515.5 197.5t-195.5 521.5zM281 719q0 -245 139.5 -391t372.5 -146h211v1069h-211q-233 0 -372.5 -144.5t-139.5 -387.5z" />
<glyph unicode="&#x153;" horiz-adv-x="1957" d="M82 498q0 227 144.5 374.5t365.5 147.5q130 0 237.5 -55t176.5 -152q67 98 173.5 152.5t235.5 54.5q212 0 336.5 -136t124.5 -368q0 -42 -4 -74h-768q15 -134 100 -215.5t211 -81.5q80 0 149 38t109 104l148 -99q-64 -98 -172 -154.5t-234 -56.5q-130 0 -236 55t-173 152 q-69 -97 -176.5 -152t-237.5 -55q-221 0 -365.5 148t-144.5 373zM268 498q0 -155 91 -254t233 -99q141 0 231 99t90 254q0 156 -90 255t-231 99q-143 0 -233.5 -98.5t-90.5 -255.5zM1110 598h584q-14 119 -88 186.5t-191 67.5q-114 0 -196 -69.5t-109 -184.5z" />
<glyph unicode="&#x178;" horiz-adv-x="1208" d="M41 1434h211l352 -648l352 648h211l-467 -828v-606h-194v606zM207 1651q0 55 37.5 93t93.5 38t93.5 -38t37.5 -93t-37.5 -93t-93.5 -38t-93.5 38t-37.5 93zM739 1651q0 55 37.5 93t93.5 38t93.5 -38t37.5 -93t-37.5 -93t-93.5 -38t-93.5 38t-37.5 93z" />
<glyph unicode="&#x2c6;" horiz-adv-x="960" d="M102 1147l242 328h272l242 -328h-215l-164 239l-162 -239h-215z" />
<glyph unicode="&#x2c7;" horiz-adv-x="960" d="M102 1475h215l162 -240l164 240h215l-242 -328h-272z" />
<glyph unicode="&#x2d8;" horiz-adv-x="876" d="M102 1475h185q0 -88 39.5 -136.5t111.5 -48.5q73 0 112.5 48t39.5 137h184q0 -149 -92 -238.5t-244 -89.5t-244 89.5t-92 238.5z" />
<glyph unicode="&#x2d9;" horiz-adv-x="466" d="M102 1366q0 56 38 93.5t93 37.5q56 0 94 -38t38 -93t-38 -93t-94 -38q-55 0 -93 37.5t-38 93.5z" />
<glyph unicode="&#x2da;" horiz-adv-x="679" d="M102 1323q0 92 67.5 152.5t170.5 60.5t170.5 -60.5t67.5 -152.5t-67.5 -152.5t-170.5 -60.5t-170.5 60.5t-67.5 152.5zM252 1323q0 -39 25.5 -64.5t62.5 -25.5t62.5 25.5t25.5 64.5t-25.5 64.5t-62.5 25.5t-62.5 -25.5t-25.5 -64.5z" />
<glyph unicode="&#x2db;" horiz-adv-x="602" d="M102 -215q0 89 73 162.5t202 111.5l82 -59q-85 -25 -140 -74t-55 -100q0 -37 24 -56.5t68 -19.5q56 0 103 21l41 -140q-66 -41 -187 -41q-98 0 -154.5 52t-56.5 143z" />
<glyph unicode="&#x2dc;" horiz-adv-x="978" d="M102 1231q0 116 54.5 180t152.5 64q48 0 99.5 -18t87 -39.5t76 -39.5t69.5 -18q67 0 76 115l160 -41q0 -116 -54.5 -180t-152.5 -64q-61 0 -125 29t-117.5 57.5t-89.5 28.5q-67 0 -76 -115z" />
<glyph unicode="&#x2dd;" horiz-adv-x="1042" d="M102 1147l185 328h243l-247 -328h-181zM512 1147l184 328h244l-248 -328h-180z" />
<glyph unicode="&#x2000;" horiz-adv-x="950" />
<glyph unicode="&#x2001;" horiz-adv-x="1901" />
<glyph unicode="&#x2002;" horiz-adv-x="950" />
<glyph unicode="&#x2003;" horiz-adv-x="1901" />
<glyph unicode="&#x2004;" horiz-adv-x="633" />
<glyph unicode="&#x2005;" horiz-adv-x="475" />
<glyph unicode="&#x2006;" horiz-adv-x="316" />
<glyph unicode="&#x2007;" horiz-adv-x="316" />
<glyph unicode="&#x2008;" horiz-adv-x="237" />
<glyph unicode="&#x2009;" horiz-adv-x="380" />
<glyph unicode="&#x200a;" horiz-adv-x="105" />
<glyph unicode="&#x2010;" horiz-adv-x="849" d="M123 502v174h604v-174h-604z" />
<glyph unicode="&#x2011;" horiz-adv-x="849" d="M123 502v174h604v-174h-604z" />
<glyph unicode="&#x2012;" horiz-adv-x="849" d="M123 502v174h604v-174h-604z" />
<glyph unicode="&#x2013;" horiz-adv-x="1083" d="M123 502v174h838v-174h-838z" />
<glyph unicode="&#x2014;" horiz-adv-x="1736" d="M123 502v174h1491v-174h-1491z" />
<glyph unicode="&#x2018;" horiz-adv-x="497" d="M92 1077q0 149 76.5 255t204.5 124l33 -110q-74 -13 -129 -60.5t-74 -111.5q16 8 41 8q63 0 102 -41t39 -101t-39 -100.5t-102 -40.5q-68 0 -110 49.5t-42 128.5z" />
<glyph unicode="&#x2019;" horiz-adv-x="497" d="M92 1010q74 13 129 60.5t74 111.5q-16 -8 -41 -8q-63 0 -102 40.5t-39 100.5t39 100.5t102 40.5q68 0 110 -49.5t42 -128.5q0 -149 -76.5 -255t-204.5 -124z" />
<glyph unicode="&#x201a;" horiz-adv-x="518" d="M92 -176q74 13 129 60.5t74 111.5q-16 -8 -41 -8q-63 0 -102 40.5t-39 100.5t39 100.5t102 40.5q68 0 110 -49.5t42 -128.5q0 -149 -76.5 -255t-204.5 -124z" />
<glyph unicode="&#x201c;" horiz-adv-x="886" d="M92 1077q0 149 76.5 255t204.5 124l33 -110q-74 -13 -129 -60.5t-74 -111.5q16 8 41 8q63 0 102 -41t39 -101t-39 -100.5t-102 -40.5q-68 0 -110 49.5t-42 128.5zM481 1077q0 149 76.5 255t204.5 124l33 -110q-74 -13 -129 -60.5t-74 -111.5q16 8 41 8q63 0 102 -41 t39 -101t-39 -100.5t-102 -40.5q-68 0 -110 49.5t-42 128.5z" />
<glyph unicode="&#x201d;" horiz-adv-x="886" d="M92 1010q74 13 129 60.5t74 111.5q-16 -8 -41 -8q-63 0 -102 40.5t-39 100.5t39 100.5t102 40.5q68 0 110 -49.5t42 -128.5q0 -149 -76.5 -255t-204.5 -124zM481 1010q74 13 129 60.5t74 111.5q-16 -8 -41 -8q-63 0 -102 40.5t-39 100.5t39 100.5t102 40.5 q68 0 110 -49.5t42 -128.5q0 -149 -76.5 -255t-204.5 -124z" />
<glyph unicode="&#x201e;" horiz-adv-x="907" d="M92 -176q74 13 129 60.5t74 111.5q-16 -8 -41 -8q-63 0 -102 40.5t-39 100.5t39 100.5t102 40.5q68 0 110 -49.5t42 -128.5q0 -149 -76.5 -255t-204.5 -124zM481 -176q74 13 129 60.5t74 111.5q-16 -8 -41 -8q-63 0 -102 40.5t-39 100.5t39 100.5t102 40.5 q68 0 110 -49.5t42 -128.5q0 -149 -76.5 -255t-204.5 -124z" />
<glyph unicode="&#x2020;" horiz-adv-x="712" d="M72 1114v164h198v197h174v-197h197v-164h-197v-500h-174v500h-198z" />
<glyph unicode="&#x2021;" horiz-adv-x="712" d="M72 811v164h198v139h-198v164h198v197h174v-197h197v-164h-197v-139h197v-164h-197v-197h-174v197h-198z" />
<glyph unicode="&#x2022;" horiz-adv-x="718" d="M133 653q0 93 66.5 159.5t158.5 66.5q94 0 161 -66t67 -160t-67 -160.5t-161 -66.5q-92 0 -158.5 66.5t-66.5 160.5z" />
<glyph unicode="&#x2026;" horiz-adv-x="1736" d="M113 129q0 59 41.5 100t99.5 41t99.5 -41t41.5 -100t-41.5 -100t-99.5 -41t-99.5 41t-41.5 100zM727 129q0 59 41.5 100t99.5 41q59 0 100.5 -41.5t41.5 -99.5t-41.5 -99.5t-100.5 -41.5q-58 0 -99.5 41t-41.5 100zM1341 129q0 58 41.5 99.5t100.5 41.5t100 -41t41 -100 t-41 -100t-100 -41t-100.5 41.5t-41.5 99.5z" />
<glyph unicode="&#x202f;" horiz-adv-x="380" />
<glyph unicode="&#x2039;" horiz-adv-x="649" d="M82 522l307 420h199l-307 -420l307 -420h-199z" />
<glyph unicode="&#x203a;" horiz-adv-x="649" d="M61 102l308 420l-308 420h199l307 -420l-307 -420h-199z" />
<glyph unicode="&#x205f;" horiz-adv-x="475" />
<glyph unicode="&#x20ac;" horiz-adv-x="1388" d="M0 465l41 164h109l-5 88l2 76h-147l41 163h131q54 233 209.5 366.5t378.5 133.5q217 0 362.5 -142.5t167.5 -375.5h-194q-25 164 -110 248t-226 84q-142 0 -241 -82t-144 -232h475l-41 -163h-463l-2 -76l4 -88h502l-41 -164h-432q44 -145 142.5 -223t240.5 -78 q146 0 231 80t119 248h197q-29 -235 -178 -375t-369 -140q-225 0 -378.5 129t-207.5 359h-174z" />
<glyph unicode="&#x2122;" horiz-adv-x="1873" d="M31 1270v164h653v-164h-240v-656h-174v656h-239zM799 614v820h297l184 -666l205 666h276v-820h-174v648l-182 -648h-250l-182 648v-648h-174z" />
<glyph unicode="&#x2260;" horiz-adv-x="1228" d="M133 272v164h293l162 410h-455v164h518l107 272h194l-106 -272h229v-164h-293l-161 -410h454v-164h-518l-106 -272h-195l106 272h-229z" />
<glyph unicode="&#x25fc;" horiz-adv-x="993" d="M0 0v993h993v-993h-993z" />
<glyph unicode="&#xf8ff;" horiz-adv-x="2252" d="M205 -410v1844h1843v-1844h-1843zM397 68h140l63 186h371l61 -186h146l-306 852h-167zM639 373l145 424h4l146 -424h-295zM1171 578h117v-334q0 -176 176 -176h121v106h-98q-62 0 -62 57v347h160v110h-160v182h-129v-141q0 -41 -43 -41h-82v-110zM1634 782 q0 -64 40.5 -104.5t105.5 -40.5q64 0 104.5 40.5t40.5 104.5t-40 104t-105 40q-66 0 -106 -39.5t-40 -104.5zM1673 782q0 109 107 109q106 0 106 -109q0 -110 -106 -110q-107 0 -107 110zM1716 705h43v53h23l26 -53h45l-32 59q26 12 26 45q0 49 -53 49h-78v-153zM1759 786 v43h27q22 0 22 -20q0 -9 -6 -16t-16 -7h-27z" />
</font>
</defs>
</svg>
