<?xml version="1.0" standalone="no"?>
<!DOCTYPE svg PUBLIC "-//W3C//DTD SVG 1.1//EN" "http://www.w3.org/Graphics/SVG/1.1/DTD/svg11.dtd" >
<svg xmlns="http://www.w3.org/2000/svg" xmlns:xlink="http://www.w3.org/1999/xlink" version="1.1">
<metadata></metadata>
<defs>
<font id="misti_fontlight_italic" horiz-adv-x="1071" >
<font-face units-per-em="2048" ascent="1638" descent="-410" />
<missing-glyph horiz-adv-x="505" />
<glyph unicode="&#xfb01;" horiz-adv-x="1060" d="M82 881l14 98h209l29 203q20 147 99.5 230t199.5 83q84 0 143 -39l-45 -86q-38 23 -92 23q-79 0 -131.5 -57t-67.5 -160l-26 -197h258l-13 -98h-260l-123 -881h-108l123 881h-209zM727 0l137 979h109l-137 -979h-109zM868 1358q0 41 28 68.5t69 27.5q43 0 70.5 -27.5 t27.5 -68.5t-28.5 -68.5t-69.5 -27.5q-40 0 -68.5 27.5t-28.5 68.5z" />
<glyph unicode="&#xfb02;" horiz-adv-x="1101" d="M82 881l14 98h209l29 203q20 147 99.5 230t199.5 83q84 0 143 -39l-45 -86q-38 23 -92 23q-79 0 -131.5 -57t-67.5 -160l-26 -197h258l-13 -98h-260l-123 -881h-108l123 881h-209zM768 0l207 1475h108l-206 -1475h-109z" />
<glyph horiz-adv-x="0" />
<glyph horiz-adv-x="682" />
<glyph unicode="&#xd;" horiz-adv-x="505" />
<glyph unicode=" "  horiz-adv-x="505" />
<glyph unicode="&#x09;" horiz-adv-x="505" />
<glyph unicode="&#xa0;" horiz-adv-x="505" />
<glyph unicode="!" horiz-adv-x="475" d="M78 94q0 43 29.5 73t72.5 30t74 -30t31 -73t-31 -73.5t-74 -30.5t-72.5 30.5t-29.5 73.5zM154 360l149 1074h115l-152 -1074h-112z" />
<glyph unicode="&#x22;" horiz-adv-x="770" d="M242 997l57 437h115l-66 -437h-106zM563 997l58 437h114l-65 -437h-107z" />
<glyph unicode="#" horiz-adv-x="1437" d="M20 383v98h277l166 475h-266v99h301l133 379h114l-133 -379h514l134 379h112l-133 -379h244v-99h-279l-166 -475h267v-98h-301l-134 -383h-112l133 383h-514l-133 -383h-115l133 383h-242zM412 481h514l166 475h-514z" />
<glyph unicode="$" horiz-adv-x="1136" d="M86 416l113 14q-9 -164 79.5 -254t260.5 -90q165 0 268.5 94t103.5 244q0 162 -204 217l-203 53q-134 37 -204.5 119.5t-70.5 202.5q0 187 120.5 306.5t320.5 131.5l20 143h115l-21 -149q143 -20 229.5 -111.5t96.5 -238.5l-109 -27q-9 133 -87.5 205t-215.5 72 q-163 0 -259.5 -89.5t-96.5 -240.5q0 -163 193 -215l202 -53q289 -79 289 -324q0 -182 -125.5 -305.5t-322.5 -138.5l-21 -146h-115l21 148q-182 17 -282.5 132.5t-94.5 299.5z" />
<glyph unicode="%" horiz-adv-x="1777" d="M127 1061q0 169 108 281t271 112q161 0 268 -112t107 -281q0 -167 -107 -279t-268 -112q-163 0 -271 112t-108 279zM233 1061q0 -126 77.5 -210.5t195.5 -84.5q115 0 192.5 84.5t77.5 210.5q0 127 -77 212t-193 85q-118 0 -195.5 -84.5t-77.5 -212.5zM315 0l1115 1434 h118l-1112 -1434h-121zM961 367q0 169 107.5 281t268.5 112q163 0 270 -112t107 -281q0 -168 -107.5 -280t-269.5 -112q-161 0 -268.5 112.5t-107.5 279.5zM1065 367q0 -126 77.5 -210.5t194.5 -84.5t194 84.5t77 210.5q0 128 -77 212.5t-194 84.5t-194.5 -84.5 t-77.5 -212.5z" />
<glyph unicode="&#x26;" horiz-adv-x="1355" d="M127 328q0 159 102 291t256 180q-67 42 -106 110.5t-39 149.5q0 164 119.5 279.5t288.5 115.5q139 0 230 -87.5t91 -221.5q0 -125 -78 -229t-198 -146l215 -387l213 410h112l-268 -512l156 -281h-125l-105 188q-78 -96 -197.5 -152t-246.5 -56q-194 0 -307 93.5 t-113 254.5zM242 342q0 -119 82 -186.5t227 -67.5q113 0 219 53.5t170 139.5l-258 460h-31q-106 0 -201 -55.5t-151.5 -147.5t-56.5 -196zM449 1053q0 -91 60.5 -150t154.5 -59q122 0 207 86.5t85 210.5q0 91 -60 150t-153 59q-123 0 -208.5 -85.5t-85.5 -211.5z" />
<glyph unicode="'" horiz-adv-x="448" d="M242 997l57 437h115l-66 -437h-106z" />
<glyph unicode="(" horiz-adv-x="604" d="M180 305q0 236 61 478.5t170 448.5t248 335l76 -70q-195 -184 -321.5 -520t-126.5 -668q0 -210 48 -388t136 -290l-86 -57q-98 123 -151.5 314t-53.5 417z" />
<glyph unicode=")" horiz-adv-x="604" d="M-109 -362q195 185 321 519t126 668q0 210 -48 387.5t-134 290.5l86 58q98 -121 151 -312.5t53 -419.5q0 -236 -61 -478.5t-170 -448t-248 -334.5z" />
<glyph unicode="*" horiz-adv-x="890" d="M139 864l291 160l-291 160l51 90l285 -170l-6 330h102l-6 -332l285 172l51 -90l-289 -160l289 -160l-51 -90l-285 172l6 -332h-102l6 330l-285 -170z" />
<glyph unicode="+" horiz-adv-x="1228" d="M160 590l14 102h408l55 385h100l-53 -385h406l-15 -102h-405l-58 -406h-102l57 406h-407z" />
<glyph unicode="," horiz-adv-x="485" d="M18 -178q61 22 109.5 67.5t71.5 104.5q-16 -4 -25 -4q-41 0 -67.5 27.5t-26.5 68.5q0 49 31 80t79 31q44 0 72.5 -31.5t28.5 -81.5q0 -107 -70.5 -204.5t-171.5 -131.5z" />
<glyph unicode="-" horiz-adv-x="843" d="M141 522l15 105h569l-14 -105h-570z" />
<glyph unicode="." horiz-adv-x="475" d="M78 94q0 43 29.5 73t72.5 30t74 -30t31 -73t-31 -73.5t-74 -30.5t-72.5 30.5t-29.5 73.5z" />
<glyph unicode="/" horiz-adv-x="735" d="M-145 -410l923 1885h115l-924 -1885h-114z" />
<glyph unicode="0" horiz-adv-x="1280" d="M115 541q0 114 19 225.5t55.5 213.5t92.5 188.5t127 150t163 99.5t196 36q218 0 339.5 -148.5t121.5 -412.5q0 -259 -85 -468t-235 -327t-336 -118q-219 0 -338.5 148t-119.5 413zM227 535q0 -214 90 -330.5t258 -116.5q105 0 194.5 46.5t152 125.5t106.5 183.5t65 219.5 t21 234q0 216 -90.5 332.5t-259.5 116.5q-105 0 -194 -46.5t-151 -125.5t-106 -183.5t-65 -220t-21 -235.5z" />
<glyph unicode="1" horiz-adv-x="712" d="M119 1004l12 129q304 124 420 301h106l-200 -1434h-113l174 1255q-71 -78 -175.5 -144t-223.5 -107z" />
<glyph unicode="2" horiz-adv-x="1136" d="M29 0l12 102l653 551q293 244 293 447q0 110 -75 178t-195 68q-146 0 -252 -73.5t-152 -205.5l-112 35q66 172 197.5 262t316.5 90q175 0 281 -94t106 -248q0 -138 -74.5 -258.5t-251.5 -269.5l-571 -478h780l-12 -106h-944z" />
<glyph unicode="3" horiz-adv-x="1263" d="M109 416l122 20q-8 -164 87.5 -256t273.5 -92q181 0 294 102.5t113 264.5q0 117 -81.5 173t-253.5 56h-68l14 107h64q178 0 281.5 89.5t103.5 243.5q0 109 -75.5 165.5t-221.5 56.5q-147 0 -253 -72.5t-153 -204.5l-110 37q63 165 201.5 256.5t326.5 91.5 q186 0 291.5 -88t105.5 -242q0 -141 -75 -244.5t-203 -138.5q102 -25 160.5 -102t58.5 -190q0 -203 -147 -336t-371 -133q-229 0 -358.5 116.5t-126.5 319.5z" />
<glyph unicode="4" horiz-adv-x="1265" d="M76 383l18 139q229 195 390.5 447t193.5 465h119q-28 -217 -195 -487.5t-387 -457.5h655l68 490h115l-68 -490h229l-14 -106h-231l-54 -383h-112l53 383h-780z" />
<glyph unicode="5" horiz-adv-x="1179" d="M74 416l125 18q-6 -164 83.5 -255t256.5 -91q190 0 315 130t125 319q0 137 -85.5 215.5t-234.5 78.5q-122 0 -216.5 -41t-172.5 -128l-108 40l211 732h798l-14 -107h-713l-149 -530q73 67 171.5 103t209.5 36q193 0 306.5 -105.5t113.5 -285.5q0 -159 -70.5 -288 t-198.5 -203t-288 -74q-217 0 -342.5 117.5t-122.5 318.5z" />
<glyph unicode="6" horiz-adv-x="1210" d="M109 494q0 263 88 483t242.5 348.5t340.5 128.5q180 0 292.5 -95.5t127.5 -260.5l-119 -33q-9 130 -90.5 204t-214.5 74q-203 0 -349.5 -187t-190.5 -503q60 140 183.5 220.5t280.5 80.5q191 0 304.5 -112t113.5 -301q0 -155 -73 -284t-200.5 -203t-281.5 -74 q-219 0 -336.5 133t-117.5 381zM242 395q0 -141 86.5 -224t234.5 -83q189 0 315 129.5t126 321.5q0 141 -87 223t-235 82q-189 0 -314.5 -128.5t-125.5 -320.5z" />
<glyph unicode="7" horiz-adv-x="1093" d="M135 1065l53 369h981l-14 -105q-188 -167 -320 -348t-233 -420t-178 -561h-117q107 455 280.5 772.5t428.5 554.5h-735l-37 -262h-109z" />
<glyph unicode="8" horiz-adv-x="1296" d="M121 334q0 152 103.5 265t269.5 144q-112 29 -176 105t-64 180q0 180 151 303t373 123q192 0 310 -93t118 -245q0 -135 -90.5 -237.5t-241.5 -137.5q125 -25 198 -109t73 -204q0 -192 -161 -320t-402 -128q-204 0 -332.5 98t-128.5 256zM238 342q0 -115 95.5 -184.5 t252.5 -69.5q192 0 318 98.5t126 249.5q0 118 -90.5 182t-257.5 64q-198 0 -321 -94.5t-123 -245.5zM369 1024q0 -107 85.5 -170t231.5 -63q175 0 289.5 91t114.5 230q0 109 -83.5 171.5t-232.5 62.5q-178 0 -291.5 -91t-113.5 -231z" />
<glyph unicode="9" horiz-adv-x="1210" d="M74 336l119 33q9 -130 91 -204.5t214 -74.5q203 0 349.5 187t190.5 503q-60 -140 -183.5 -220.5t-281.5 -80.5q-190 0 -303.5 112.5t-113.5 301.5q0 155 73 284t200.5 203t281.5 74q219 0 336.5 -133t117.5 -381q0 -263 -88 -483t-242.5 -348.5t-340.5 -128.5 q-180 0 -292.5 95.5t-127.5 260.5zM270 895q0 -141 87 -223t235 -82q189 0 314.5 128t125.5 320q0 141 -86.5 224.5t-234.5 83.5q-189 0 -315 -129.5t-126 -321.5z" />
<glyph unicode=":" horiz-adv-x="475" d="M78 94q0 43 29.5 73t72.5 30t74 -30t31 -73t-31 -73.5t-74 -30.5t-72.5 30.5t-29.5 73.5zM174 772q0 43 29.5 72.5t72.5 29.5t74 -30t31 -72q0 -43 -31 -73.5t-74 -30.5t-72.5 30.5t-29.5 73.5z" />
<glyph unicode=";" horiz-adv-x="485" d="M18 -178q61 22 109.5 67.5t71.5 104.5q-16 -4 -25 -4q-41 0 -67.5 27.5t-26.5 68.5q0 49 31 80t79 31q44 0 72.5 -31.5t28.5 -81.5q0 -107 -70.5 -204.5t-171.5 -131.5zM174 772q0 43 29.5 72.5t72.5 29.5t74 -30t31 -72q0 -43 -31 -73.5t-74 -30.5t-72.5 30.5 t-29.5 73.5z" />
<glyph unicode="&#x3c;" horiz-adv-x="1228" d="M117 590l14 102l973 412l-17 -121l-845 -342h-2l749 -346l-14 -117z" />
<glyph unicode="=" horiz-adv-x="1228" d="M121 303l14 103h914l-13 -103h-915zM201 877l14 102h915l-14 -102h-915z" />
<glyph unicode="&#x3e;" horiz-adv-x="1228" d="M104 178l17 121l846 342h2l-750 346l14 117l859 -412l-15 -102z" />
<glyph unicode="?" horiz-adv-x="1048" d="M160 1108q66 168 193 257t306 89q183 0 291.5 -88.5t108.5 -237.5q0 -129 -60.5 -231t-193.5 -213l-49 -41q-101 -84 -134.5 -123.5t-39.5 -81.5l-11 -78h-114l12 84q9 66 50 119.5t159 151.5l59 47q104 87 154.5 172.5t50.5 183.5q0 103 -77 165.5t-206 62.5 q-140 0 -240 -70t-151 -203zM393 94q0 43 30 73t73 30t73.5 -30t30.5 -73t-30.5 -73.5t-73.5 -30.5t-73 30.5t-30 73.5z" />
<glyph unicode="@" horiz-adv-x="1867" d="M78 291q0 163 49.5 315t140 274t211.5 214t271 142t311 50q321 0 519 -187t198 -491q0 -162 -51 -300.5t-139.5 -220t-192.5 -81.5q-96 0 -154.5 49.5t-69.5 139.5q-53 -90 -137 -139.5t-186 -49.5q-145 0 -232.5 94.5t-87.5 249.5q0 204 123 346t301 142q95 0 163 -44 t97 -126l21 141h104l-71 -512q-12 -94 22 -144.5t109 -50.5q71 0 134.5 69.5t101.5 186.5t38 248q0 264 -166.5 422t-445.5 158q-178 0 -340 -70.5t-279 -189.5t-186.5 -284.5t-69.5 -348.5q0 -283 180.5 -453t481.5 -170q119 0 232.5 27.5t189.5 73.5l32 -99 q-99 -48 -219.5 -75t-236.5 -27q-346 0 -556 198t-210 523zM637 354q0 -115 60 -182.5t163 -67.5q137 0 231.5 112t94.5 273q0 116 -60.5 183t-164.5 67q-136 0 -230 -112.5t-94 -272.5z" />
<glyph unicode="A" horiz-adv-x="1249" d="M-14 0l698 1434h141l301 -1434h-112l-94 465h-590l-224 -465h-120zM381 571h516l-154 752z" />
<glyph unicode="B" horiz-adv-x="1239" d="M119 0l200 1434h437q182 0 281.5 -82.5t99.5 -229.5q0 -132 -74.5 -241t-196.5 -148q101 -32 161 -114.5t60 -188.5q0 -196 -138 -313t-363 -117h-467zM248 106h348q171 0 274 88.5t103 239.5q0 109 -74.5 173.5t-202.5 64.5h-368zM342 780h356q130 0 226 99t96 237 q0 101 -71.5 156t-203.5 55h-327z" />
<glyph unicode="C" horiz-adv-x="1302" d="M117 557q0 260 89 464.5t250 318.5t365 114q191 0 315 -131.5t130 -341.5h-111q-14 174 -103.5 269.5t-240.5 95.5q-167 0 -299.5 -101t-206.5 -281t-74 -407q0 -224 104.5 -346.5t293.5 -122.5q160 0 280.5 98.5t182.5 278.5h114q-65 -221 -224.5 -353t-363.5 -132 q-235 0 -368 153.5t-133 423.5z" />
<glyph unicode="D" horiz-adv-x="1290" d="M119 0l200 1434h322q274 0 434 -162t160 -432q0 -172 -56.5 -325t-157.5 -267t-250.5 -181t-326.5 -67h-325zM248 106h207q146 0 271.5 59t211 158.5t134 232.5t48.5 280q0 226 -131 358.5t-358 132.5h-213z" />
<glyph unicode="E" horiz-adv-x="1116" d="M119 0l200 1434h814l-15 -107h-700l-76 -547h670l-17 -106h-667l-80 -568h702l-14 -106h-817z" />
<glyph unicode="F" horiz-adv-x="1064" d="M119 0l200 1434h787l-16 -107h-672l-78 -565h641l-14 -109h-641l-93 -653h-114z" />
<glyph unicode="G" horiz-adv-x="1374" d="M117 557q0 259 89 463.5t250 319t365 114.5q184 0 307 -123.5t142 -324.5l-115 -23q-13 172 -104 267.5t-240 95.5q-167 0 -299.5 -101t-206.5 -281t-74 -407q0 -224 104.5 -346.5t293.5 -122.5q205 0 352 143.5t201 397.5h-428l16 106h547l-6 -33q-47 -334 -233 -528 t-460 -194q-235 0 -368 153.5t-133 423.5z" />
<glyph unicode="H" horiz-adv-x="1335" d="M119 0l200 1434h115l-92 -652h733l92 652h113l-201 -1434h-112l94 674h-733l-95 -674h-114z" />
<glyph unicode="I" horiz-adv-x="489" d="M119 0l200 1434h115l-201 -1434h-114z" />
<glyph unicode="J" horiz-adv-x="1132" d="M119 436l12 86h115l-13 -94q-6 -41 -6 -77q0 -108 49 -174q65 -89 205 -89q144 0 236 91.5t114 256.5l127 891h-491l16 107h604l-141 -1006q-29 -212 -152.5 -330t-314.5 -118q-198 0 -295 122q-73 92 -73 236q0 46 8 98z" />
<glyph unicode="K" horiz-adv-x="1165" d="M119 0l200 1434h115l-112 -795l761 795h140l-568 -594l367 -840h-121l-323 758l-279 -291l-66 -467h-114z" />
<glyph unicode="L" horiz-adv-x="1013" d="M119 0l200 1434h115l-186 -1328h674l-13 -106h-790z" />
<glyph unicode="M" horiz-adv-x="1556" d="M119 0l200 1434h164l273 -1061l573 1061h172l-201 -1434h-114l178 1260l-561 -1029h-123l-270 1029l-177 -1260h-114z" />
<glyph unicode="N" horiz-adv-x="1349" d="M119 0l200 1434h136l551 -1254l176 1254h112l-200 -1434h-133l-551 1253l-177 -1253h-114z" />
<glyph unicode="O" horiz-adv-x="1376" d="M115 557q0 256 90.5 461t251.5 320.5t362 115.5q236 0 371 -153.5t135 -421.5q0 -256 -91 -461.5t-253 -321.5t-363 -116q-235 0 -369 153.5t-134 423.5zM231 557q0 -224 104 -346.5t294 -122.5q166 0 298.5 101.5t206.5 282.5t74 409q0 224 -102.5 344.5t-294.5 120.5 q-167 0 -299.5 -101t-206.5 -281t-74 -407z" />
<glyph unicode="P" horiz-adv-x="1140" d="M119 0l200 1434h439q180 0 283.5 -90.5t103.5 -245.5q0 -209 -133.5 -337t-360.5 -128h-329l-89 -633h-114zM336 741h323q173 0 273 100.5t100 248.5q0 113 -74 175t-210 62h-330z" />
<glyph unicode="Q" horiz-adv-x="1376" d="M115 557q0 256 90.5 461t251.5 320.5t362 115.5q236 0 371 -153.5t135 -421.5q0 -277 -105.5 -492.5t-287.5 -320.5l254 -271h-152l-213 217q-101 -32 -203 -32q-235 0 -369 153.5t-134 423.5zM231 557q0 -224 104 -346.5t294 -122.5q166 0 298.5 101.5t206.5 282.5 t74 409q0 224 -102.5 344.5t-294.5 120.5q-167 0 -299.5 -101t-206.5 -281t-74 -407z" />
<glyph unicode="R" horiz-adv-x="1216" d="M119 0l200 1434h474q199 0 305 -112q85 -90 85 -227q0 -32 -5 -67q-23 -163 -135.5 -269t-282.5 -126l272 -633h-119l-262 629h-329l-89 -629h-114zM336 737h358q151 0 249.5 80.5t117.5 218.5q4 29 4 55q0 97 -58 159q-74 78 -225 77h-364z" />
<glyph unicode="S" horiz-adv-x="1136" d="M86 416l113 14q-1 -15 -1 -30q0 -143 80 -224q88 -90 261 -90q165 0 268.5 94t103.5 244q0 162 -204 217l-203 53q-134 37 -204.5 119.5t-70.5 202.5q0 197 131.5 317.5t346.5 120.5q177 0 284 -95t119 -261l-109 -27q-9 133 -87.5 205t-215.5 72q-163 0 -259.5 -89.5 t-96.5 -240.5q0 -163 193 -215l202 -53q289 -79 289 -324q0 -194 -140.5 -320t-357.5 -126q-212 0 -330 118q-113 112 -112 299v19z" />
<glyph unicode="T" horiz-adv-x="1046" d="M147 1327l17 107h985l-16 -107h-435l-186 -1327h-113l185 1327h-437z" />
<glyph unicode="U" horiz-adv-x="1331" d="M176 481l135 953h113l-135 -961q-6 -46 -6 -86q0 -127 62 -201q82 -98 267 -98q183 0 291.5 100.5t134.5 292.5l136 953h112l-135 -961q-32 -235 -177.5 -364t-377.5 -129q-228 0 -340 132q-87 103 -87 269q0 47 7 100z" />
<glyph unicode="V" horiz-adv-x="1234" d="M186 1434h117l260 -1315l625 1315h125l-692 -1434h-138z" />
<glyph unicode="W" horiz-adv-x="1718" d="M186 1434h119l133 -1293l482 1293h135l127 -1293l489 1293h125l-559 -1434h-145l-125 1249l-478 -1249h-145z" />
<glyph unicode="X" horiz-adv-x="1179" d="M-14 0l569 721l-348 713h129l299 -617l479 617h143l-571 -721l346 -713h-127l-299 612l-475 -612h-145z" />
<glyph unicode="Y" horiz-adv-x="1153" d="M186 1434h125l295 -707l496 707h129l-580 -822l-86 -612h-114l86 612z" />
<glyph unicode="Z" horiz-adv-x="1157" d="M47 0l14 102l957 1225h-778l16 107h918l-13 -103l-958 -1225h784l-14 -106h-926z" />
<glyph unicode="[" horiz-adv-x="591" d="M61 -410l275 1954h354l-14 -96h-246l-246 -1761h244l-12 -97h-355z" />
<glyph unicode="\" horiz-adv-x="731" d="M119 1475h110l396 -1885h-111z" />
<glyph unicode="]" horiz-adv-x="591" d="M-74 -410l15 97h245l246 1761h-244l13 96h354l-274 -1954h-355z" />
<glyph unicode="^" horiz-adv-x="1228" d="M272 813l396 621h139l221 -621h-121l-178 526l-323 -526h-134z" />
<glyph unicode="_" horiz-adv-x="651" d="M-41 -104l14 104h570l-15 -104h-569z" />
<glyph unicode="`" horiz-adv-x="612" d="M242 1475h149l209 -328h-111z" />
<glyph unicode="a" horiz-adv-x="1030" d="M63 233q0 167 115.5 253.5t329.5 86.5q147 0 272 -61l19 141q3 27 3 51q0 86 -43 134q-55 60 -184 61q-104 0 -180.5 -49t-115.5 -137l-97 35q50 116 158.5 183.5t247.5 67.5q170 0 256 -93q68 -74 67 -190q0 -30 -4 -63l-92 -653h-106l22 166q-54 -82 -155.5 -134 t-210.5 -52q-143 0 -222.5 68t-79.5 185zM174 242q0 -78 56 -123t155 -45q143 0 251 93t128 234v9q-98 67 -268 67q-322 0 -322 -235z" />
<glyph unicode="b" horiz-adv-x="1224" d="M88 0l207 1475h108l-98 -697q63 99 176.5 160t237.5 61q184 0 300 -120.5t116 -311.5q0 -159 -73.5 -294.5t-199 -214t-272.5 -78.5q-125 0 -222.5 62t-142.5 167l-28 -209h-109zM256 412q0 -149 89 -240.5t235 -91.5q121 0 224 65.5t162.5 177t59.5 242.5 q0 151 -88 242.5t-233 91.5q-187 0 -318 -142t-131 -345z" />
<glyph unicode="c" horiz-adv-x="1087" d="M90 408q0 121 43.5 230.5t117 188.5t175 125.5t213.5 46.5q157 0 259.5 -83.5t125.5 -229.5l-102 -27q-17 113 -93 176.5t-192 63.5q-120 0 -221.5 -68t-159 -180.5t-57.5 -242.5q0 -148 85 -238t226 -90q117 0 219.5 66t149.5 173l94 -43q-64 -134 -192 -215t-273 -81 q-188 0 -303 119t-115 309z" />
<glyph unicode="d" horiz-adv-x="1224" d="M90 410q0 158 74 294t200 215.5t273 79.5q127 0 227 -63.5t135 -163.5l99 703h108l-207 -1475h-108l29 201q-71 -103 -181 -162t-237 -59q-184 0 -298 119t-114 311zM199 414q0 -150 88 -242t231 -92q123 0 227 65t164 177.5t60 246.5q0 149 -88 239.5t-234 90.5 q-122 0 -225 -65t-163 -176.5t-60 -243.5z" />
<glyph unicode="e" horiz-adv-x="1114" d="M90 408q0 163 73 298.5t200 214t280 78.5q177 0 280 -107t103 -290q0 -89 -18 -149h-807l-2 -41q0 -150 86 -241t227 -91q95 0 183.5 47.5t146.5 126.5l86 -55q-73 -101 -185.5 -160t-238.5 -59q-185 0 -299.5 118t-114.5 310zM217 549h707q2 24 2 46q0 125 -67 207 q-79 96 -226 96.5t-262 -97.5t-154 -252z" />
<glyph unicode="f" horiz-adv-x="688" d="M82 881l14 98h209l31 223q19 137 102 215t215 78q101 0 163 -47t79 -135l-98 -33q-13 61 -49.5 88t-102.5 27q-83 0 -137 -55t-66 -146l-30 -215h342l-13 -98h-342l-123 -881h-108l123 881h-209z" />
<glyph unicode="g" horiz-adv-x="1224" d="M57 -125l103 31q15 -108 101 -172t218 -64q177 0 285.5 100t134.5 287l25 176q-59 -102 -172 -163.5t-244 -61.5q-184 0 -299 117t-115 303q0 246 157 408.5t390 162.5q129 0 223 -60t135 -167l29 207h109l-131 -930q-32 -231 -171 -355t-366 -124q-168 0 -279 83 t-133 222zM203 434q0 -149 88 -237t237 -88q183 0 314 138t131 331q0 147 -89 234t-239 87q-186 0 -314 -135t-128 -330z" />
<glyph unicode="h" d="M88 0l207 1475h108l-92 -656q55 86 142.5 133t189.5 47q160 0 243 -101q64 -78 64 -195q0 -35 -6 -74l-88 -629h-106l86 621q5 32 5 61q1 90 -45 145q-60 72 -188 72q-124 0 -218 -90.5t-114 -228.5l-79 -580h-109z" />
<glyph unicode="i" horiz-adv-x="421" d="M88 0l137 979h109l-137 -979h-109zM229 1358q0 41 28 68.5t69 27.5q43 0 70.5 -27.5t27.5 -68.5t-28.5 -68.5t-69.5 -27.5q-40 0 -68.5 27.5t-28.5 68.5z" />
<glyph unicode="j" horiz-adv-x="421" d="M-231 -391l47 92q32 -29 94 -29q64 0 103 40.5t50 115.5l162 1151h107l-162 -1157q-17 -122 -82.5 -187t-171.5 -65q-83 0 -147 39zM229 1358q0 41 28 68.5t69 27.5q43 0 70.5 -27.5t27.5 -68.5t-28.5 -68.5t-69.5 -27.5q-40 0 -68.5 27.5t-28.5 68.5z" />
<glyph unicode="k" horiz-adv-x="966" d="M88 0l207 1475h108l-139 -979l580 483h149l-481 -406l340 -573h-117l-301 508l-188 -158l-49 -350h-109z" />
<glyph unicode="l" horiz-adv-x="421" d="M88 0l207 1475h108l-206 -1475h-109z" />
<glyph unicode="m" horiz-adv-x="1732" d="M88 0l137 979h109l-23 -160q55 86 143 133t193 47q112 0 186 -50t105 -146q62 95 154 145.5t204 50.5q164 0 248 -99q66 -78 67 -197q0 -32 -5 -68l-88 -635h-109l88 625q5 32 5 60q0 89 -46 143q-60 71 -188 71q-124 0 -217.5 -90t-112.5 -227l-82 -582h-106l86 625 q5 32 5 60q0 89 -46 143q-60 72 -187 71q-124 0 -217 -90t-112 -227l-82 -582h-109z" />
<glyph unicode="n" d="M88 0l137 979h109l-23 -160q55 86 142.5 133t189.5 47q160 0 243 -101q64 -78 64 -195q0 -35 -6 -74l-88 -629h-106l86 621q5 32 5 61q1 90 -45 145q-60 72 -188 72q-124 0 -218 -90.5t-114 -228.5l-79 -580h-109z" />
<glyph unicode="o" horiz-adv-x="1167" d="M90 412q0 156 72 290.5t202 215.5t287 81q191 0 308.5 -119.5t117.5 -312.5q0 -119 -44 -228t-119 -187.5t-178.5 -125t-217.5 -46.5q-192 0 -310 120t-118 312zM199 410q0 -148 87.5 -239t233.5 -91q124 0 228 67t162.5 178t58.5 240q0 150 -88 242t-234 92 q-126 0 -230 -68.5t-161 -180t-57 -240.5z" />
<glyph unicode="p" horiz-adv-x="1224" d="M31 -410l194 1389h109l-27 -199q71 101 182.5 160t233.5 59q184 0 298 -118.5t114 -309.5q0 -121 -43.5 -230.5t-117 -188.5t-174.5 -125.5t-212 -46.5q-128 0 -228 64.5t-137 166.5l-84 -621h-108zM256 412q0 -151 88 -241.5t234 -90.5q122 0 225 65t163 176.5t60 243.5 q0 150 -88 242t-231 92q-123 0 -227 -65t-164 -177t-60 -245z" />
<glyph unicode="q" horiz-adv-x="1224" d="M90 412q0 150 68 284t194.5 218.5t282.5 84.5q126 0 224.5 -62.5t141.5 -166.5l27 209h109l-195 -1389h-106l84 613q-63 -99 -177.5 -161t-236.5 -62q-185 0 -300.5 121.5t-115.5 310.5zM199 412q0 -149 88 -240.5t233 -91.5q129 0 233.5 69.5t161 180t56.5 235.5 q0 150 -89.5 242t-236.5 92q-127 0 -230.5 -69.5t-159.5 -181t-56 -236.5z" />
<glyph unicode="r" horiz-adv-x="862" d="M88 0l137 979h109l-25 -162q39 85 116.5 133.5t166.5 48.5q241 0 244 -305l-111 -22q0 123 -35 175t-127 52q-109 0 -187 -89t-97 -228l-82 -582h-109z" />
<glyph unicode="s" horiz-adv-x="884" d="M55 264l103 23q5 -100 71.5 -156.5t180.5 -56.5q116 0 184 56t68 151q0 55 -36 88.5t-114 52.5l-145 37q-213 54 -213 239q0 135 97 218t255 83q140 0 228 -67t100 -182l-101 -27q-9 88 -68.5 136t-160.5 48q-114 0 -179 -55t-65 -150q0 -111 141 -145l146 -37 q115 -28 168 -83t53 -146q0 -141 -98 -226t-262 -85q-152 0 -252.5 81t-100.5 203z" />
<glyph unicode="t" horiz-adv-x="845" d="M82 881l14 98h209l43 307h107l-43 -307h342l-13 -98h-342l-88 -623q-3 -22 -3 -42q0 -136 147 -136q76 0 124.5 38t79.5 120l93 -33q-35 -109 -113.5 -167t-192.5 -58q-134 0 -198 74q-48 57 -48 149q0 29 5 61l86 617h-209z" />
<glyph unicode="u" d="M127 350l88 629h107l-86 -621q-5 -33 -5 -62q0 -90 45 -144q59 -72 187 -72q124 0 218 90.5t114 228.5l79 580h109l-137 -979h-109l23 160q-55 -86 -142.5 -133t-189.5 -47q-160 0 -243 101q-64 78 -64 195q0 35 6 74z" />
<glyph unicode="v" horiz-adv-x="1001" d="M113 979h112l215 -860l461 860h123l-535 -979h-118z" />
<glyph unicode="w" horiz-adv-x="1576" d="M113 979h116l146 -864l422 864h114l176 -864l394 864h121l-469 -979h-117l-174 862l-418 -862h-121z" />
<glyph unicode="x" horiz-adv-x="976" d="M-14 0l448 504l-289 475h115l242 -399l344 399h129l-422 -483l301 -496h-115l-256 422l-368 -422h-129z" />
<glyph unicode="y" horiz-adv-x="1011" d="M-59 -397l43 94q32 -25 96 -25q66 0 116 40t103 132l92 160l-278 975h114l232 -846l452 846h125l-647 -1174q-72 -133 -140 -184t-173 -51q-74 0 -135 33z" />
<glyph unicode="z" horiz-adv-x="917" d="M20 0l13 94l715 787h-598l14 98h733l-12 -94l-715 -787h602l-12 -98h-740z" />
<glyph unicode="{" horiz-adv-x="663" d="M55 512l15 111q118 0 169 44t68 160l55 387q25 169 107.5 249.5t232.5 80.5h62l-14 -96h-56q-98 0 -152 -58t-73 -184l-53 -387q-17 -111 -65.5 -168.5t-147.5 -83.5q90 -26 123 -87t18 -173l-55 -387q-19 -124 16.5 -178.5t134.5 -54.5h62l-13 -97h-57 q-150 0 -211.5 83.5t-38.5 254.5l54 387q15 115 -23 156t-158 41z" />
<glyph unicode="|" horiz-adv-x="524" d="M82 -410l264 1885h109l-265 -1885h-108z" />
<glyph unicode="}" horiz-adv-x="665" d="M-78 -410l15 97h55q98 0 152 57.5t73 183.5l53 387q17 111 65.5 168.5t147.5 83.5q-90 26 -123 87t-18 173l55 387q19 124 -17 179t-134 55h-62l13 96h57q150 0 211.5 -83.5t38.5 -254.5l-53 -387q-15 -115 22.5 -155.5t157.5 -40.5l-15 -111q-118 0 -169 -44.5 t-68 -160.5l-55 -387q-25 -169 -107.5 -249.5t-232.5 -80.5h-62z" />
<glyph unicode="~" horiz-adv-x="1228" d="M166 555q11 100 73 153.5t169 53.5q63 0 126 -21t105 -46.5t94 -46.5t96 -21q66 0 103 31.5t51 99.5l102 -29q-11 -100 -72.5 -153.5t-166.5 -53.5q-66 0 -130.5 21.5t-106.5 47t-92.5 47t-92.5 21.5q-133 0 -156 -131z" />
<glyph unicode="&#xa1;" horiz-adv-x="475" d="M84 -262l152 1073h112l-149 -1073h-115zM217 1077q0 43 31 74t74 31q42 0 72 -31t30 -74t-29.5 -72.5t-72.5 -29.5t-74 30t-31 72z" />
<glyph unicode="&#xa2;" horiz-adv-x="1087" d="M90 408q0 152 66 282.5t180.5 212t253.5 94.5l20 146h107l-21 -148q133 -13 219.5 -95t108.5 -214l-102 -27q-17 113 -93 176.5t-192 63.5q-120 0 -221.5 -68t-159 -180.5t-57.5 -242.5q0 -148 85 -238t226 -90q117 0 219.5 66t149.5 173l94 -43q-60 -124 -173.5 -203 t-244.5 -91l-20 -146h-109l23 148q-164 19 -261.5 134.5t-97.5 289.5z" />
<glyph unicode="&#xa3;" horiz-adv-x="1171" d="M41 0l10 102q160 80 243 186t83 230q0 34 -6 68h-248l14 106h201q-5 13 -20 50t-21.5 56t-16.5 50.5t-14 61t-4 59.5q0 207 145 346t363 139q189 0 300.5 -103t117.5 -280l-113 -29q-5 148 -84 226t-225 78q-169 0 -279 -106t-110 -267q0 -34 8.5 -74t16 -64t27 -76 t24.5 -67h442l-14 -106h-398q6 -38 6 -74q0 -121 -60.5 -225t-176.5 -181h799l-13 -106h-997z" />
<glyph unicode="&#xa5;" horiz-adv-x="1153" d="M113 225l14 101h369l28 196h-370l14 101h364l-346 811h125l295 -707l496 707h129l-572 -811h383l-14 -101h-389l-29 -196h389l-14 -101h-389l-31 -225h-114l30 225h-368z" />
<glyph unicode="&#xa7;" horiz-adv-x="1097" d="M147 578q0 105 58 182.5t155 103.5q-213 76 -213 262q0 141 110.5 234.5t277.5 93.5q161 0 270 -87t129 -230l-103 -25q-20 116 -99 180t-200 64t-197.5 -63t-76.5 -163q0 -79 62 -126.5t210 -81.5l103 -25q167 -38 243 -108t76 -187q0 -105 -58.5 -183t-154.5 -104 q213 -77 213 -264q0 -140 -111 -232.5t-278 -92.5q-159 0 -268 87t-131 230l104 27q20 -117 98.5 -181.5t198.5 -64.5q123 0 199 62.5t76 162.5q0 80 -62 127.5t-209 81.5l-102 23q-169 40 -244.5 110t-75.5 187zM258 588q0 -80 50.5 -127t170.5 -78l62 -16 q121 -32 211 35.5t90 189.5q0 80 -50.5 127t-170.5 78l-64 16q-120 31 -209.5 -36.5t-89.5 -188.5z" />
<glyph unicode="&#xa8;" horiz-adv-x="878" d="M225 1358q0 41 28 68.5t69 27.5q43 0 70.5 -27.5t27.5 -68.5t-28.5 -68.5t-69.5 -27.5q-40 0 -68.5 27.5t-28.5 68.5zM702 1358q0 41 28 68.5t71 27.5q41 0 68.5 -27.5t27.5 -68.5t-28 -68.5t-68 -27.5q-42 0 -70.5 27.5t-28.5 68.5z" />
<glyph unicode="&#xa9;" horiz-adv-x="1687" d="M131 717q0 150 59 286t158.5 235t237 157.5t288.5 58.5t289 -58.5t237.5 -157.5t158.5 -235t59 -286t-59 -286t-158.5 -235t-237.5 -157.5t-289 -58.5t-288.5 58.5t-237 157.5t-158.5 235t-59 286zM240 717q0 -172 85 -318.5t231 -231.5t318 -85q129 0 246.5 50.5 t202.5 135.5t135.5 202.5t50.5 246.5t-50.5 246.5t-135.5 202.5t-202.5 135.5t-246.5 50.5q-172 0 -318 -85t-231 -231.5t-85 -318.5zM436 717q0 207 128 344t323 137q145 0 252 -80.5t145 -218.5l-104 -31q-31 106 -108.5 166t-184.5 60q-146 0 -242 -107t-96 -270 q0 -166 95 -271.5t243 -105.5q103 0 186.5 59.5t114.5 157.5l102 -33q-43 -130 -154 -209t-249 -79q-196 0 -323.5 136t-127.5 345z" />
<glyph unicode="&#xaa;" horiz-adv-x="835" d="M125 829q0 138 93 209.5t274 71.5h210l9 66q18 182 -166 182q-89 0 -154 -47.5t-90 -132.5l-96 28q29 113 122.5 180.5t219.5 67.5q141 0 213 -77t55 -210l-74 -522h-106l14 111q-45 -58 -119.5 -92.5t-156.5 -34.5q-117 0 -182.5 53t-65.5 147zM231 842q0 -60 41 -92.5 t115 -32.5q110 0 195 72.5t100 181.5l6 49h-209q-122 0 -185 -45t-63 -133z" />
<glyph unicode="&#xab;" horiz-adv-x="1015" d="M90 522l365 420h131l-377 -428l244 -412h-113zM520 522l365 420h131l-377 -428l244 -412h-113z" />
<glyph unicode="&#xad;" horiz-adv-x="843" d="M141 522l15 105h569l-14 -105h-570z" />
<glyph unicode="&#xae;" horiz-adv-x="1107" d="M152 983q0 195 138 333t333 138q196 0 334.5 -138t138.5 -333q0 -97 -37.5 -184.5t-100.5 -150.5t-150.5 -100.5t-184.5 -37.5q-195 0 -333 138.5t-138 334.5zM233 983q0 -163 114.5 -277t275.5 -114q163 0 277 114t114 277q0 161 -114 275t-277 114q-161 0 -275.5 -114 t-114.5 -275zM424 692v582h238q80 0 128 -44.5t48 -117.5q0 -67 -40 -111.5t-108 -52.5l148 -256h-95l-143 254h-90v-254h-86zM510 1022h143q46 0 72.5 24t26.5 66q0 41 -26.5 63.5t-72.5 22.5h-143v-176z" />
<glyph unicode="&#xaf;" horiz-adv-x="800" d="M215 1282l14 109h596l-16 -109h-594z" />
<glyph unicode="&#xb0;" horiz-adv-x="997" d="M164 1042q0 170 120.5 291t290.5 121t291 -121t121 -291q0 -113 -55.5 -208t-150 -150t-206.5 -55q-170 0 -290.5 120.5t-120.5 292.5zM268 1042q0 -129 89.5 -219t217.5 -90t218 90t90 219q0 128 -90.5 218t-217.5 90t-217 -90t-90 -218z" />
<glyph unicode="&#xb4;" horiz-adv-x="518" d="M195 1147l208 328h150l-248 -328h-110z" />
<glyph unicode="&#xb5;" horiz-adv-x="1073" d="M23 -410l194 1389h107l-86 -619q-19 -135 40 -207.5t187 -72.5q124 0 218 90.5t114 228.5l80 580h108l-137 -979h-109l23 160q-56 -85 -143.5 -132.5t-188.5 -47.5q-154 0 -233 102l-70 -492h-104z" />
<glyph unicode="&#xb6;" horiz-adv-x="1357" d="M147 1141q0 129 99.5 211t290.5 82h127v-1844h-109v1256h-39q-177 0 -273 83t-96 212zM938 -410v1844h106v-1844h-106z" />
<glyph unicode="&#xb7;" horiz-adv-x="475" d="M156 647q0 43 29.5 73t72.5 30t73.5 -30t30.5 -73t-30.5 -73.5t-73.5 -30.5t-72.5 30.5t-29.5 73.5z" />
<glyph unicode="&#xb8;" horiz-adv-x="555" d="M-18 -375l28 90q56 -30 129 -30q111 0 111 77q0 88 -168 97l-39 45l63 131h97l-56 -109q94 -9 147.5 -54t53.5 -114q0 -80 -53 -124t-148 -44q-94 0 -165 35z" />
<glyph unicode="&#xba;" horiz-adv-x="944" d="M147 979q0 198 132.5 336.5t322.5 138.5q155 0 251.5 -97.5t96.5 -254.5q0 -129 -60 -238t-164 -172t-228 -63q-155 0 -253 97.5t-98 252.5zM252 981q0 -115 68.5 -185.5t179.5 -70.5q145 0 245.5 110.5t100.5 268.5q0 116 -67 185t-179 69q-145 0 -246.5 -110 t-101.5 -267z" />
<glyph unicode="&#xbb;" horiz-adv-x="1013" d="M8 102l377 428l-244 412h113l250 -420l-365 -420h-131zM438 102l377 428l-244 412h113l250 -420l-365 -420h-131z" />
<glyph unicode="&#xbf;" horiz-adv-x="1005" d="M16 43q0 129 60.5 231t193.5 213l49 41q102 85 135.5 124t39.5 81l10 78h114l-12 -84q-9 -65 -49.5 -118t-159.5 -152l-59 -47q-104 -87 -154.5 -173t-50.5 -184q0 -103 77 -165t206 -62q140 0 240 69.5t151 202.5l108 -35q-66 -168 -193 -257t-306 -89 q-183 0 -291.5 88.5t-108.5 237.5zM473 1077q0 43 31 74t74 31q42 0 72 -31t30 -74t-29.5 -72.5t-72.5 -29.5t-74 30t-31 72z" />
<glyph unicode="&#xc0;" horiz-adv-x="1249" d="M-14 0l698 1434h141l301 -1434h-112l-94 465h-590l-224 -465h-120zM381 571h516l-154 752zM489 1782h162l252 -266h-123z" />
<glyph unicode="&#xc1;" horiz-adv-x="1249" d="M-14 0l698 1434h141l301 -1434h-112l-94 465h-590l-224 -465h-120zM381 571h516l-154 752zM698 1516l252 266h162l-291 -266h-123z" />
<glyph unicode="&#xc2;" horiz-adv-x="1249" d="M-14 0l698 1434h141l301 -1434h-112l-94 465h-590l-224 -465h-120zM381 571h516l-154 752zM428 1516l299 266h156l223 -266h-127l-174 221l-238 -221h-139z" />
<glyph unicode="&#xc3;" horiz-adv-x="1290" d="M-14 0l698 1434h141l301 -1434h-112l-94 465h-590l-224 -465h-120zM381 571h516l-154 752zM504 1548q0 98 45 152.5t127 54.5q48 0 99 -21.5t86.5 -47t77.5 -47t75 -21.5q83 0 86 131l102 -27q0 -98 -45 -152t-127 -54q-49 0 -100.5 21t-87 46.5t-77.5 46.5t-73 21 q-83 0 -86 -131z" />
<glyph unicode="&#xc4;" horiz-adv-x="1249" d="M-14 0l698 1434h141l301 -1434h-112l-94 465h-590l-224 -465h-120zM381 571h516l-154 752zM442 1671q0 41 28 68.5t69 27.5q43 0 70.5 -27.5t27.5 -68.5t-28.5 -68.5t-69.5 -27.5q-40 0 -68.5 27.5t-28.5 68.5zM920 1671q0 41 27.5 68.5t70.5 27.5q41 0 68.5 -27.5 t27.5 -68.5t-28 -68.5t-68 -27.5q-41 0 -69.5 27.5t-28.5 68.5z" />
<glyph unicode="&#xc5;" horiz-adv-x="1249" d="M-14 0l698 1434h141l301 -1434h-112l-94 465h-590l-224 -465h-120zM381 571h516l-154 752zM565 1673q0 86 60 143.5t149 57.5q91 0 150 -57.5t59 -143.5t-59 -142t-150 -56q-90 0 -149.5 56t-59.5 142zM657 1673q0 -52 33.5 -85.5t83.5 -33.5q51 0 84 33.5t33 85.5 t-33 85.5t-84 33.5q-50 0 -83.5 -33.5t-33.5 -85.5z" />
<glyph unicode="&#xc6;" horiz-adv-x="1884" d="M-14 0l1058 1434h857l-17 -107h-684l-76 -547h654l-15 -106h-655l-80 -568h688l-12 -106h-803l66 465h-508l-338 -465h-135zM537 571h444l106 754z" />
<glyph unicode="&#xc7;" horiz-adv-x="1302" d="M117 557q0 260 89 464.5t250 318.5t365 114q191 0 315 -131.5t130 -341.5h-111q-14 174 -103.5 269.5t-240.5 95.5q-167 0 -299.5 -101t-206.5 -281t-74 -407q0 -224 104.5 -346.5t293.5 -122.5q160 0 280.5 98.5t182.5 278.5h114q-63 -214 -214 -345t-347 -140l-27 -54 q94 -9 147.5 -54t53.5 -114q0 -80 -53 -124t-148 -44q-94 0 -165 35l28 90q55 -30 129 -30q111 0 111 77q0 88 -168 97l-39 45l39 80q-206 22 -321 172.5t-115 400.5z" />
<glyph unicode="&#xc8;" horiz-adv-x="1116" d="M119 0l200 1434h814l-15 -107h-700l-76 -547h670l-17 -106h-667l-80 -568h702l-14 -106h-817zM475 1782h162l252 -266h-123z" />
<glyph unicode="&#xc9;" horiz-adv-x="1116" d="M119 0l200 1434h814l-15 -107h-700l-76 -547h670l-17 -106h-667l-80 -568h702l-14 -106h-817zM686 1516l252 266h162l-291 -266h-123z" />
<glyph unicode="&#xca;" horiz-adv-x="1116" d="M119 0l200 1434h814l-15 -107h-700l-76 -547h670l-17 -106h-667l-80 -568h702l-14 -106h-817zM416 1516l299 266h155l224 -266h-127l-174 221l-238 -221h-139z" />
<glyph unicode="&#xcb;" horiz-adv-x="1116" d="M119 0l200 1434h814l-15 -107h-700l-76 -547h670l-17 -106h-667l-80 -568h702l-14 -106h-817zM428 1671q0 41 27.5 68.5t68.5 27.5q43 0 71 -27.5t28 -68.5t-28.5 -68.5t-70.5 -27.5q-40 0 -68 27.5t-28 68.5zM905 1671q0 41 28 68.5t71 27.5q41 0 68.5 -27.5t27.5 -68.5 t-28 -68.5t-68 -27.5q-42 0 -70.5 27.5t-28.5 68.5z" />
<glyph unicode="&#xcc;" horiz-adv-x="489" d="M109 1782h161l252 -266h-123zM119 0l200 1434h115l-201 -1434h-114z" />
<glyph unicode="&#xcd;" horiz-adv-x="489" d="M119 0l200 1434h115l-201 -1434h-114zM319 1516l252 266h162l-291 -266h-123z" />
<glyph unicode="&#xce;" horiz-adv-x="489" d="M49 1516l299 266h156l223 -266h-127l-174 221l-238 -221h-139zM119 0l200 1434h115l-201 -1434h-114z" />
<glyph unicode="&#xcf;" horiz-adv-x="489" d="M61 1671q0 41 28 68.5t69 27.5q43 0 70.5 -27.5t27.5 -68.5t-28.5 -68.5t-69.5 -27.5q-40 0 -68.5 27.5t-28.5 68.5zM119 0l200 1434h115l-201 -1434h-114zM539 1671q0 41 27.5 68.5t70.5 27.5q41 0 68.5 -27.5t27.5 -68.5t-28 -68.5t-68 -27.5q-41 0 -69.5 27.5 t-28.5 68.5z" />
<glyph unicode="&#xd0;" horiz-adv-x="1290" d="M16 670l17 106h194l92 658h322q274 0 434 -162t160 -432q0 -172 -56.5 -325t-157.5 -267t-250.5 -181t-326.5 -67h-325l94 670h-197zM248 106h207q146 0 271.5 59t211 158.5t134 232.5t48.5 280q0 226 -131 358.5t-358 132.5h-213l-76 -551h422l-16 -106h-422z" />
<glyph unicode="&#xd1;" horiz-adv-x="1378" d="M119 0l200 1434h136l551 -1254l176 1254h112l-200 -1434h-133l-551 1253l-177 -1253h-114zM547 1548q0 98 45 152.5t127 54.5q48 0 99 -21.5t86.5 -47t77.5 -47t75 -21.5q83 0 86 131l102 -27q0 -98 -45 -152t-127 -54q-49 0 -100.5 21t-87 46.5t-77.5 46.5t-73 21 q-83 0 -86 -131z" />
<glyph unicode="&#xd2;" horiz-adv-x="1376" d="M115 557q0 256 90.5 461t251.5 320.5t362 115.5q236 0 371 -153.5t135 -421.5q0 -256 -91 -461.5t-253 -321.5t-363 -116q-235 0 -369 153.5t-134 423.5zM231 557q0 -224 104 -346.5t294 -122.5q166 0 298.5 101.5t206.5 282.5t74 409q0 224 -102.5 344.5t-294.5 120.5 q-167 0 -299.5 -101t-206.5 -281t-74 -407zM553 1782h162l252 -266h-123z" />
<glyph unicode="&#xd3;" horiz-adv-x="1376" d="M115 557q0 256 90.5 461t251.5 320.5t362 115.5q236 0 371 -153.5t135 -421.5q0 -256 -91 -461.5t-253 -321.5t-363 -116q-235 0 -369 153.5t-134 423.5zM231 557q0 -224 104 -346.5t294 -122.5q166 0 298.5 101.5t206.5 282.5t74 409q0 224 -102.5 344.5t-294.5 120.5 q-167 0 -299.5 -101t-206.5 -281t-74 -407zM762 1516l252 266h162l-291 -266h-123z" />
<glyph unicode="&#xd4;" horiz-adv-x="1376" d="M115 557q0 256 90.5 461t251.5 320.5t362 115.5q236 0 371 -153.5t135 -421.5q0 -256 -91 -461.5t-253 -321.5t-363 -116q-235 0 -369 153.5t-134 423.5zM231 557q0 -224 104 -346.5t294 -122.5q166 0 298.5 101.5t206.5 282.5t74 409q0 224 -102.5 344.5t-294.5 120.5 q-167 0 -299.5 -101t-206.5 -281t-74 -407zM494 1516l299 266h155l223 -266h-127l-174 221l-237 -221h-139z" />
<glyph unicode="&#xd5;" horiz-adv-x="1449" d="M115 557q0 256 90.5 461t251.5 320.5t362 115.5q236 0 371 -153.5t135 -421.5q0 -256 -91 -461.5t-253 -321.5t-363 -116q-235 0 -369 153.5t-134 423.5zM231 557q0 -224 104 -346.5t294 -122.5q166 0 298.5 101.5t206.5 282.5t74 409q0 224 -102.5 344.5t-294.5 120.5 q-167 0 -299.5 -101t-206.5 -281t-74 -407zM584 1548q0 98 45 152.5t127 54.5q48 0 99 -21.5t86.5 -47t77.5 -47t75 -21.5q83 0 86 131l102 -27q0 -98 -45 -152t-127 -54q-49 0 -100.5 21t-87 46.5t-77.5 46.5t-73 21q-83 0 -86 -131z" />
<glyph unicode="&#xd6;" horiz-adv-x="1376" d="M115 557q0 256 90.5 461t251.5 320.5t362 115.5q236 0 371 -153.5t135 -421.5q0 -256 -91 -461.5t-253 -321.5t-363 -116q-235 0 -369 153.5t-134 423.5zM231 557q0 -224 104 -346.5t294 -122.5q166 0 298.5 101.5t206.5 282.5t74 409q0 224 -102.5 344.5t-294.5 120.5 q-167 0 -299.5 -101t-206.5 -281t-74 -407zM506 1671q0 41 27.5 68.5t68.5 27.5q43 0 70.5 -27.5t27.5 -68.5t-28.5 -68.5t-69.5 -27.5q-40 0 -68 27.5t-28 68.5zM983 1671q0 41 27.5 68.5t70.5 27.5q41 0 69 -27.5t28 -68.5t-28.5 -68.5t-68.5 -27.5q-41 0 -69.5 27.5 t-28.5 68.5z" />
<glyph unicode="&#xd8;" horiz-adv-x="1376" d="M-33 0l217 229q-69 135 -69 328q0 256 90.5 461t251.5 320.5t362 115.5q239 0 377 -160l131 140h148l-220 -230q70 -140 70 -325q0 -256 -91 -461.5t-253 -321.5t-363 -116q-240 0 -372 157l-131 -137h-148zM231 557q0 -132 39 -238l846 893q-106 134 -305 134 q-167 0 -299.5 -101t-206.5 -281t-74 -407zM326 221q105 -133 303 -133q166 0 298.5 101.5t206.5 282.5t74 409q0 135 -37 233z" />
<glyph unicode="&#xd9;" horiz-adv-x="1331" d="M176 481l135 953h113l-135 -961q-26 -189 56 -287t267 -98q183 0 291.5 100.5t134.5 292.5l136 953h112l-135 -961q-32 -235 -177.5 -364t-377.5 -129q-229 0 -340.5 132.5t-79.5 368.5zM530 1782h162l252 -266h-123z" />
<glyph unicode="&#xda;" horiz-adv-x="1331" d="M176 481l135 953h113l-135 -961q-26 -189 56 -287t267 -98q183 0 291.5 100.5t134.5 292.5l136 953h112l-135 -961q-32 -235 -177.5 -364t-377.5 -129q-229 0 -340.5 132.5t-79.5 368.5zM739 1516l252 266h162l-291 -266h-123z" />
<glyph unicode="&#xdb;" horiz-adv-x="1331" d="M176 481l135 953h113l-135 -961q-26 -189 56 -287t267 -98q183 0 291.5 100.5t134.5 292.5l136 953h112l-135 -961q-32 -235 -177.5 -364t-377.5 -129q-229 0 -340.5 132.5t-79.5 368.5zM471 1516l299 266h156l223 -266h-127l-174 221l-238 -221h-139z" />
<glyph unicode="&#xdc;" horiz-adv-x="1331" d="M176 481l135 953h113l-135 -961q-26 -189 56 -287t267 -98q183 0 291.5 100.5t134.5 292.5l136 953h112l-135 -961q-32 -235 -177.5 -364t-377.5 -129q-229 0 -340.5 132.5t-79.5 368.5zM483 1671q0 41 28 68.5t69 27.5q43 0 70.5 -27.5t27.5 -68.5t-28.5 -68.5 t-69.5 -27.5q-40 0 -68.5 27.5t-28.5 68.5zM961 1671q0 41 27.5 68.5t70.5 27.5q41 0 68.5 -27.5t27.5 -68.5t-28 -68.5t-68 -27.5q-41 0 -69.5 27.5t-28.5 68.5z" />
<glyph unicode="&#xdd;" horiz-adv-x="1153" d="M186 1434h125l295 -707l496 707h129l-580 -822l-86 -612h-114l86 612zM651 1516l252 266h162l-291 -266h-123z" />
<glyph unicode="&#xde;" horiz-adv-x="1171" d="M119 0l200 1434h115l-39 -273h357q181 0 285 -91t104 -247q0 -204 -139 -333.5t-357 -129.5h-362l-50 -360h-114zM299 467h356q172 0 271.5 101t99.5 249q0 113 -73.5 174.5t-209.5 61.5h-362z" />
<glyph unicode="&#xdf;" horiz-adv-x="1239" d="M90 0l141 1020q29 209 171 332t354 123q183 0 288 -89t105 -249q0 -147 -78.5 -256t-208.5 -140q107 -30 166 -106t59 -191q0 -204 -135 -334t-348 -130q-194 0 -317 96l57 92q85 -88 260 -88q167 0 272 103.5t105 267.5q0 120 -83 177.5t-255 57.5h-68l13 98h65 q180 0 284.5 96.5t104.5 262.5q0 114 -74 172.5t-216 58.5q-164 0 -276.5 -98t-135.5 -262l-143 -1014h-107z" />
<glyph unicode="&#xe0;" horiz-adv-x="1030" d="M63 233q0 167 115.5 253.5t329.5 86.5q147 0 272 -61l19 141q15 125 -40 185.5t-184 60.5q-104 0 -180.5 -49t-115.5 -137l-97 35q50 116 158.5 183.5t247.5 67.5q170 0 255.5 -93t63.5 -253l-92 -653h-106l22 166q-54 -82 -155.5 -134t-210.5 -52q-143 0 -222.5 68 t-79.5 185zM174 242q0 -78 56 -123t155 -45q143 0 251 93t128 234v9q-98 67 -268 67q-322 0 -322 -235zM338 1475h149l209 -328h-110z" />
<glyph unicode="&#xe1;" horiz-adv-x="1030" d="M63 233q0 167 115.5 253.5t329.5 86.5q147 0 272 -61l19 141q15 125 -40 185.5t-184 60.5q-104 0 -180.5 -49t-115.5 -137l-97 35q50 116 158.5 183.5t247.5 67.5q170 0 255.5 -93t63.5 -253l-92 -653h-106l22 166q-54 -82 -155.5 -134t-210.5 -52q-143 0 -222.5 68 t-79.5 185zM174 242q0 -78 56 -123t155 -45q143 0 251 93t128 234v9q-98 67 -268 67q-322 0 -322 -235zM541 1147l209 328h149l-248 -328h-110z" />
<glyph unicode="&#xe2;" horiz-adv-x="1062" d="M63 233q0 167 115.5 253.5t329.5 86.5q147 0 272 -61l19 141q15 125 -40 185.5t-184 60.5q-104 0 -180.5 -49t-115.5 -137l-97 35q50 116 158.5 183.5t247.5 67.5q170 0 255.5 -93t63.5 -253l-92 -653h-106l22 166q-54 -82 -155.5 -134t-210.5 -52q-143 0 -222.5 68 t-79.5 185zM174 242q0 -78 56 -123t155 -45q143 0 251 93t128 234v9q-98 67 -268 67q-322 0 -322 -235zM307 1147l299 328h156l209 -328h-123l-162 270l-242 -270h-137z" />
<glyph unicode="&#xe3;" horiz-adv-x="1062" d="M63 233q0 167 115.5 253.5t329.5 86.5q147 0 272 -61l19 141q15 125 -40 185.5t-184 60.5q-104 0 -180.5 -49t-115.5 -137l-97 35q50 116 158.5 183.5t247.5 67.5q170 0 255.5 -93t63.5 -253l-92 -653h-106l22 166q-54 -82 -155.5 -134t-210.5 -52q-143 0 -222.5 68 t-79.5 185zM174 242q0 -78 56 -123t155 -45q143 0 251 93t128 234v9q-98 67 -268 67q-322 0 -322 -235zM301 1233q0 98 45 152.5t127 54.5q48 0 99 -21.5t86.5 -47t77.5 -47t75 -21.5q83 0 86 131l102 -27q0 -98 -45 -152.5t-127 -54.5q-49 0 -100.5 21t-87 46.5t-77.5 46.5 t-73 21q-83 0 -86 -131z" />
<glyph unicode="&#xe4;" horiz-adv-x="1062" d="M63 233q0 167 115.5 253.5t329.5 86.5q147 0 272 -61l19 141q15 125 -40 185.5t-184 60.5q-104 0 -180.5 -49t-115.5 -137l-97 35q50 116 158.5 183.5t247.5 67.5q170 0 255.5 -93t63.5 -253l-92 -653h-106l22 166q-54 -82 -155.5 -134t-210.5 -52q-143 0 -222.5 68 t-79.5 185zM174 242q0 -78 56 -123t155 -45q143 0 251 93t128 234v9q-98 67 -268 67q-322 0 -322 -235zM307 1358q0 41 27.5 68.5t68.5 27.5q43 0 71 -27.5t28 -68.5t-28.5 -68.5t-70.5 -27.5q-40 0 -68 27.5t-28 68.5zM784 1358q0 41 28 68.5t71 27.5q41 0 68.5 -27.5 t27.5 -68.5t-28 -68.5t-68 -27.5q-42 0 -70.5 27.5t-28.5 68.5z" />
<glyph unicode="&#xe5;" horiz-adv-x="1062" d="M63 233q0 167 115.5 253.5t329.5 86.5q147 0 272 -61l19 141q15 125 -40 185.5t-184 60.5q-104 0 -180.5 -49t-115.5 -137l-97 35q50 116 158.5 183.5t247.5 67.5q170 0 255.5 -93t63.5 -253l-92 -653h-106l22 166q-54 -82 -155.5 -134t-210.5 -52q-143 0 -222.5 68 t-79.5 185zM174 242q0 -78 56 -123t155 -45q143 0 251 93t128 234v9q-98 67 -268 67q-322 0 -322 -235zM444 1309q0 86 60 143t149 57q91 0 150 -57t59 -143t-59 -142.5t-150 -56.5q-90 0 -149.5 56.5t-59.5 142.5zM537 1309q0 -52 33 -85.5t83 -33.5q51 0 84 33.5t33 85.5 t-33 85t-84 33q-50 0 -83 -33t-33 -85z" />
<glyph unicode="&#xe6;" horiz-adv-x="1796" d="M66 244q0 161 114 245t334 84h274l11 84q17 119 -39 180.5t-178 61.5q-120 0 -204.5 -61.5t-113.5 -171.5l-100 26q35 140 150 223.5t272 83.5q128 0 211 -56.5t106 -156.5q75 99 185.5 156t236.5 57q180 0 282.5 -106.5t102.5 -292.5q0 -69 -16 -147h-809l-2 -45 q0 -148 85.5 -238t225.5 -90q117 0 220.5 66.5t150.5 172.5l92 -43q-65 -134 -192 -215t-273 -81q-138 0 -240 68.5t-147 187.5q-155 -256 -434 -256q-147 0 -226 69t-79 195zM174 252q0 -86 53 -132t154 -46q145 0 255.5 95.5t129.5 236.5l10 73h-276q-159 0 -242.5 -58.5 t-83.5 -168.5zM901 549h707q14 153 -62 251.5t-225 98.5q-150 0 -264.5 -99.5t-155.5 -250.5z" />
<glyph unicode="&#xe7;" horiz-adv-x="1087" d="M90 408q0 121 43.5 230.5t117 188.5t175 125.5t213.5 46.5q157 0 259.5 -83.5t125.5 -229.5l-102 -27q-17 113 -93 176.5t-192 63.5q-120 0 -221.5 -68t-159 -180.5t-57.5 -242.5q0 -148 85 -238t226 -90q117 0 219.5 66t149.5 173l94 -43q-64 -133 -190 -213.5 t-269 -82.5l-27 -54q94 -9 147.5 -54t53.5 -114q0 -80 -53 -124t-148 -44q-94 0 -165 35l28 90q56 -30 129 -30q111 0 111 77q0 88 -168 97l-39 45l41 82q-154 28 -244 141.5t-90 280.5z" />
<glyph unicode="&#xe8;" horiz-adv-x="1114" d="M90 408q0 163 73 298.5t200 214t280 78.5q177 0 280 -107t103 -290q0 -89 -18 -149h-807l-2 -41q0 -150 86 -241t227 -91q95 0 183.5 47.5t146.5 126.5l86 -55q-73 -101 -185.5 -160t-238.5 -59q-185 0 -299.5 118t-114.5 310zM217 549h707q14 157 -65 253.5t-226 96.5 t-262 -98t-154 -252zM383 1475h149l209 -328h-110z" />
<glyph unicode="&#xe9;" horiz-adv-x="1114" d="M90 408q0 163 73 298.5t200 214t280 78.5q177 0 280 -107t103 -290q0 -89 -18 -149h-807l-2 -41q0 -150 86 -241t227 -91q95 0 183.5 47.5t146.5 126.5l86 -55q-73 -101 -185.5 -160t-238.5 -59q-185 0 -299.5 118t-114.5 310zM217 549h707q14 157 -65 253.5t-226 96.5 t-262 -98t-154 -252zM588 1147l209 328h149l-248 -328h-110z" />
<glyph unicode="&#xea;" horiz-adv-x="1114" d="M90 408q0 163 73 298.5t200 214t280 78.5q177 0 280 -107t103 -290q0 -89 -18 -149h-807l-2 -41q0 -150 86 -241t227 -91q95 0 183.5 47.5t146.5 126.5l86 -55q-73 -101 -185.5 -160t-238.5 -59q-185 0 -299.5 118t-114.5 310zM217 549h707q14 157 -65 253.5t-226 96.5 t-262 -98t-154 -252zM322 1147l299 328h155l209 -328h-123l-162 270l-241 -270h-137z" />
<glyph unicode="&#xeb;" horiz-adv-x="1114" d="M90 408q0 163 73 298.5t200 214t280 78.5q177 0 280 -107t103 -290q0 -89 -18 -149h-807l-2 -41q0 -150 86 -241t227 -91q95 0 183.5 47.5t146.5 126.5l86 -55q-73 -101 -185.5 -160t-238.5 -59q-185 0 -299.5 118t-114.5 310zM217 549h707q14 157 -65 253.5t-226 96.5 t-262 -98t-154 -252zM336 1358q0 41 27.5 68.5t68.5 27.5q43 0 70.5 -27.5t27.5 -68.5t-28.5 -68.5t-69.5 -27.5q-40 0 -68 27.5t-28 68.5zM813 1358q0 41 27.5 68.5t70.5 27.5q41 0 69 -27.5t28 -68.5t-28.5 -68.5t-68.5 -27.5q-41 0 -69.5 27.5t-28.5 68.5z" />
<glyph unicode="&#xec;" horiz-adv-x="421" d="M31 1475h149l209 -328h-110zM88 0l137 979h109l-137 -979h-109z" />
<glyph unicode="&#xed;" horiz-adv-x="421" d="M88 0l137 979h109l-137 -979h-109zM236 1147l208 328h150l-248 -328h-110z" />
<glyph unicode="&#xee;" horiz-adv-x="374" d="M4 1147l244 328h158l153 -328h-125l-108 260l-187 -260h-135zM88 0l137 979h109l-137 -979h-109z" />
<glyph unicode="&#xef;" horiz-adv-x="374" d="M80 1358q0 41 27.5 68.5t68.5 27.5q43 0 70.5 -27.5t27.5 -68.5t-28.5 -68.5t-69.5 -27.5q-40 0 -68 27.5t-28 68.5zM88 0l137 979h109l-137 -979h-109zM408 1358q0 41 27.5 68.5t68.5 27.5q43 0 70.5 -27.5t27.5 -68.5t-28.5 -68.5t-69.5 -27.5q-40 0 -68 27.5t-28 68.5 z" />
<glyph unicode="&#xf0;" horiz-adv-x="1210" d="M88 393q0 155 72.5 284t198.5 203t278 74q156 0 259 -80.5t126 -220.5q27 171 -14.5 311.5t-143.5 235.5l-524 -199l14 107l422 160q-161 96 -383 96l10 111q301 0 502 -158l344 131l-14 -107l-254 -96q166 -186 166 -461q0 -232 -79.5 -415.5t-222.5 -286t-323 -102.5 q-195 0 -314.5 113.5t-119.5 299.5zM205 393q0 -140 86 -222.5t233 -82.5q189 0 315 129t126 322q0 141 -87.5 223t-236.5 82q-187 0 -311.5 -128.5t-124.5 -322.5z" />
<glyph unicode="&#xf1;" d="M88 0l137 979h109l-23 -160q55 86 142.5 133t189.5 47q160 0 243 -101t58 -269l-88 -629h-106l86 621q19 134 -40.5 206t-187.5 72q-124 0 -218 -90.5t-114 -228.5l-79 -580h-109zM256 1233q0 98 45 152.5t127 54.5q48 0 99 -21.5t86.5 -47t77.5 -47t75 -21.5 q83 0 86 131l102 -27q0 -98 -45 -152.5t-127 -54.5q-49 0 -100.5 21t-87 46.5t-77.5 46.5t-73 21q-83 0 -86 -131z" />
<glyph unicode="&#xf2;" horiz-adv-x="1167" d="M90 412q0 156 72 290.5t202 215.5t287 81q191 0 308.5 -119.5t117.5 -312.5q0 -119 -44 -228t-119 -187.5t-178.5 -125t-217.5 -46.5q-192 0 -310 120t-118 312zM199 410q0 -148 87.5 -239t233.5 -91q124 0 228 67t162.5 178t58.5 240q0 150 -88 242t-234 92 q-126 0 -230 -68.5t-161 -180t-57 -240.5zM406 1475h149l209 -328h-111z" />
<glyph unicode="&#xf3;" horiz-adv-x="1167" d="M90 412q0 156 72 290.5t202 215.5t287 81q191 0 308.5 -119.5t117.5 -312.5q0 -119 -44 -228t-119 -187.5t-178.5 -125t-217.5 -46.5q-192 0 -310 120t-118 312zM199 410q0 -148 87.5 -239t233.5 -91q124 0 228 67t162.5 178t58.5 240q0 150 -88 242t-234 92 q-126 0 -230 -68.5t-161 -180t-57 -240.5zM608 1147l209 328h150l-248 -328h-111z" />
<glyph unicode="&#xf4;" horiz-adv-x="1167" d="M90 412q0 156 72 290.5t202 215.5t287 81q191 0 308.5 -119.5t117.5 -312.5q0 -119 -44 -228t-119 -187.5t-178.5 -125t-217.5 -46.5q-192 0 -310 120t-118 312zM199 410q0 -148 87.5 -239t233.5 -91q124 0 228 67t162.5 178t58.5 240q0 150 -88 242t-234 92 q-126 0 -230 -68.5t-161 -180t-57 -240.5zM344 1147l299 328h156l209 -328h-123l-162 270l-242 -270h-137z" />
<glyph unicode="&#xf5;" horiz-adv-x="1167" d="M90 412q0 156 72 290.5t202 215.5t287 81q191 0 308.5 -119.5t117.5 -312.5q0 -119 -44 -228t-119 -187.5t-178.5 -125t-217.5 -46.5q-192 0 -310 120t-118 312zM199 410q0 -148 87.5 -239t233.5 -91q124 0 228 67t162.5 178t58.5 240q0 150 -88 242t-234 92 q-126 0 -230 -68.5t-161 -180t-57 -240.5zM342 1233q0 98 45 152.5t127 54.5q48 0 99 -21.5t86.5 -47t77.5 -47t75 -21.5q83 0 86 131l102 -27q0 -98 -45 -152.5t-127 -54.5q-49 0 -100.5 21t-87 46.5t-77.5 46.5t-73 21q-83 0 -86 -131z" />
<glyph unicode="&#xf6;" horiz-adv-x="1167" d="M90 412q0 156 72 290.5t202 215.5t287 81q191 0 308.5 -119.5t117.5 -312.5q0 -119 -44 -228t-119 -187.5t-178.5 -125t-217.5 -46.5q-192 0 -310 120t-118 312zM199 410q0 -148 87.5 -239t233.5 -91q124 0 228 67t162.5 178t58.5 240q0 150 -88 242t-234 92 q-126 0 -230 -68.5t-161 -180t-57 -240.5zM348 1358q0 41 27.5 68.5t68.5 27.5q43 0 71 -27.5t28 -68.5t-28.5 -68.5t-70.5 -27.5q-40 0 -68 27.5t-28 68.5zM825 1358q0 41 28 68.5t71 27.5q41 0 68.5 -27.5t27.5 -68.5t-28 -68.5t-68 -27.5q-42 0 -70.5 27.5t-28.5 68.5z " />
<glyph unicode="&#xf7;" horiz-adv-x="1228" d="M160 590l14 102h916l-15 -102h-915zM463 209q0 45 33.5 77.5t78.5 32.5q41 0 68 -26t27 -66q0 -45 -34 -78.5t-79 -33.5q-41 0 -67.5 27t-26.5 67zM582 1055q0 46 33 79t79 33q40 0 67 -26t27 -66q0 -45 -33.5 -78.5t-78.5 -33.5q-40 0 -67 26t-27 66z" />
<glyph unicode="&#xf8;" horiz-adv-x="1167" d="M82 0l108 119q-100 121 -100 293q0 156 72 290.5t202 215.5t287 81q150 0 260 -77l54 57h122l-108 -121q98 -115 98 -291q0 -119 -44 -228t-119 -187.5t-178.5 -125t-217.5 -46.5q-152 0 -262 77l-51 -57h-123zM199 410q0 -128 63 -209l578 641q-79 57 -193 57 q-126 0 -230 -68.5t-161 -180t-57 -240.5zM328 135q80 -55 192 -55q124 0 228 67t162.5 178t58.5 240q0 125 -64 211z" />
<glyph unicode="&#xf9;" d="M127 350l88 629h107l-86 -621q-19 -135 40 -206.5t187 -71.5q124 0 218 90.5t114 228.5l79 580h109l-137 -979h-109l23 160q-55 -86 -142.5 -133t-189.5 -47q-160 0 -243 101t-58 269zM360 1475h150l209 -328h-111z" />
<glyph unicode="&#xfa;" d="M127 350l88 629h107l-86 -621q-19 -135 40 -206.5t187 -71.5q124 0 218 90.5t114 228.5l79 580h109l-137 -979h-109l23 160q-55 -86 -142.5 -133t-189.5 -47q-160 0 -243 101t-58 269zM565 1147l209 328h150l-248 -328h-111z" />
<glyph unicode="&#xfb;" d="M127 350l88 629h107l-86 -621q-19 -135 40 -206.5t187 -71.5q124 0 218 90.5t114 228.5l79 580h109l-137 -979h-109l23 160q-55 -86 -142.5 -133t-189.5 -47q-160 0 -243 101t-58 269zM299 1147l299 328h156l209 -328h-123l-162 270l-242 -270h-137z" />
<glyph unicode="&#xfc;" d="M127 350l88 629h107l-86 -621q-19 -135 40 -206.5t187 -71.5q124 0 218 90.5t114 228.5l79 580h109l-137 -979h-109l23 160q-55 -86 -142.5 -133t-189.5 -47q-160 0 -243 101t-58 269zM313 1358q0 41 28 68.5t69 27.5q43 0 70.5 -27.5t27.5 -68.5t-28.5 -68.5 t-69.5 -27.5q-40 0 -68.5 27.5t-28.5 68.5zM791 1358q0 41 27.5 68.5t70.5 27.5q41 0 68.5 -27.5t27.5 -68.5t-28 -68.5t-68 -27.5q-41 0 -69.5 27.5t-28.5 68.5z" />
<glyph unicode="&#xfd;" horiz-adv-x="1011" d="M-59 -397l43 94q32 -25 96 -25q66 0 116 40t103 132l92 160l-278 975h114l232 -846l452 846h125l-647 -1174q-72 -133 -140 -184t-173 -51q-74 0 -135 33zM528 1147l209 328h150l-248 -328h-111z" />
<glyph unicode="&#xfe;" horiz-adv-x="1224" d="M31 -410l264 1885h108l-96 -695q71 101 182 160t234 59q184 0 298 -118.5t114 -309.5q0 -156 -72.5 -292t-199 -217.5t-275.5 -81.5q-128 0 -228 64.5t-137 166.5l-84 -621h-108zM256 412q0 -151 88 -241.5t234 -90.5q186 0 317 143t131 342q0 151 -87 242.5t-232 91.5 q-125 0 -229.5 -66.5t-163 -178t-58.5 -242.5z" />
<glyph unicode="&#xff;" horiz-adv-x="1011" d="M-59 -397l43 94q32 -25 96 -25q66 0 116 40t103 132l92 160l-278 975h114l232 -846l452 846h125l-647 -1174q-72 -133 -140 -184t-173 -51q-74 0 -135 33zM279 1358q0 41 27.5 68.5t68.5 27.5q43 0 70.5 -27.5t27.5 -68.5t-28.5 -68.5t-69.5 -27.5q-40 0 -68 27.5 t-28 68.5zM756 1358q0 41 27.5 68.5t70.5 27.5q41 0 68.5 -27.5t27.5 -68.5t-28 -68.5t-68 -27.5q-41 0 -69.5 27.5t-28.5 68.5z" />
<glyph unicode="&#x131;" horiz-adv-x="421" d="M88 0l137 979h109l-137 -979h-109z" />
<glyph unicode="&#x152;" horiz-adv-x="1970" d="M119 596q0 169 57.5 321.5t159.5 267t252.5 182t326.5 67.5h1072l-15 -107h-690l-78 -547h662l-17 -106h-659l-80 -568h694l-14 -106h-1069q-276 0 -439 162.5t-163 433.5zM231 600q0 -226 134 -360t364 -134h266l170 1221h-260q-141 0 -266 -56t-214.5 -152.5 t-141.5 -231.5t-52 -287z" />
<glyph unicode="&#x153;" horiz-adv-x="1984" d="M90 412q0 156 72 290.5t202 215.5t287 81q145 0 250 -71t150 -195q73 123 194.5 194.5t267.5 71.5q177 0 280 -107t103 -290q0 -89 -18 -149h-807l-2 -41q0 -150 86 -241t227 -91q95 0 183.5 47.5t146.5 126.5l86 -55q-73 -101 -185.5 -160t-238.5 -59q-140 0 -243 71 t-146 195q-75 -122 -198.5 -194t-268.5 -72q-192 0 -310 120t-118 312zM199 410q0 -148 87.5 -239t233.5 -91q124 0 228 67t162.5 178t58.5 240q0 150 -88 242t-234 92q-126 0 -230 -68.5t-161 -180t-57 -240.5zM1087 549h707q14 157 -65 253.5t-226 96.5t-262 -98 t-154 -252z" />
<glyph unicode="&#x178;" horiz-adv-x="1153" d="M186 1434h125l295 -707l496 707h129l-580 -822l-86 -612h-114l86 612zM393 1671q0 41 27.5 68.5t68.5 27.5q43 0 71 -27.5t28 -68.5t-28.5 -68.5t-70.5 -27.5q-40 0 -68 27.5t-28 68.5zM870 1671q0 41 28 68.5t71 27.5q41 0 68.5 -27.5t27.5 -68.5t-28 -68.5t-68 -27.5 q-42 0 -70.5 27.5t-28.5 68.5z" />
<glyph unicode="&#x2c6;" horiz-adv-x="868" d="M195 1147l299 328h155l209 -328h-123l-162 270l-241 -270h-137z" />
<glyph unicode="&#x2c7;" horiz-adv-x="868" d="M242 1475h123l161 -271l242 271h137l-299 -328h-155z" />
<glyph unicode="&#x2d8;" horiz-adv-x="806" d="M242 1475h106q-17 -118 25.5 -180t136.5 -62q92 0 151 63.5t76 178.5h107q-22 -155 -112.5 -241.5t-229.5 -86.5q-141 0 -211.5 88t-48.5 240z" />
<glyph unicode="&#x2d9;" horiz-adv-x="401" d="M225 1358q0 41 28 68.5t69 27.5q43 0 70.5 -27.5t27.5 -68.5t-28.5 -68.5t-69.5 -27.5q-40 0 -68.5 27.5t-28.5 68.5z" />
<glyph unicode="&#x2da;" horiz-adv-x="626" d="M219 1309q0 86 60 143t149 57q91 0 150 -57t59 -143t-59 -142.5t-150 -56.5q-90 0 -149.5 56.5t-59.5 142.5zM311 1309q0 -52 33.5 -85.5t83.5 -33.5q51 0 84 33.5t33 85.5t-33 85t-84 33q-50 0 -83.5 -33t-33.5 -85z" />
<glyph unicode="&#x2db;" horiz-adv-x="595" d="M4 -227q0 89 73.5 161.5t203.5 110.5l49 -45q-228 -81 -228 -213q0 -49 32 -74.5t89 -25.5q65 0 119 28l29 -90q-66 -35 -162 -35q-97 0 -151 48.5t-54 134.5z" />
<glyph unicode="&#x2dc;" horiz-adv-x="886" d="M211 1233q0 98 45 152.5t127 54.5q48 0 99 -21.5t86.5 -47t77.5 -47t75 -21.5q83 0 86 131l102 -27q0 -98 -45 -152.5t-127 -54.5q-49 0 -100.5 21t-87 46.5t-77.5 46.5t-73 21q-83 0 -86 -131z" />
<glyph unicode="&#x2dd;" horiz-adv-x="899" d="M195 1147l208 328h150l-248 -328h-110zM578 1147l208 328h150l-248 -328h-110z" />
<glyph unicode="&#x2000;" horiz-adv-x="937" />
<glyph unicode="&#x2001;" horiz-adv-x="1874" />
<glyph unicode="&#x2002;" horiz-adv-x="937" />
<glyph unicode="&#x2003;" horiz-adv-x="1874" />
<glyph unicode="&#x2004;" horiz-adv-x="624" />
<glyph unicode="&#x2005;" horiz-adv-x="468" />
<glyph unicode="&#x2006;" horiz-adv-x="312" />
<glyph unicode="&#x2007;" horiz-adv-x="312" />
<glyph unicode="&#x2008;" horiz-adv-x="234" />
<glyph unicode="&#x2009;" horiz-adv-x="374" />
<glyph unicode="&#x200a;" horiz-adv-x="104" />
<glyph unicode="&#x2010;" horiz-adv-x="843" d="M141 522l15 105h569l-14 -105h-570z" />
<glyph unicode="&#x2011;" horiz-adv-x="843" d="M141 522l15 105h569l-14 -105h-570z" />
<glyph unicode="&#x2012;" horiz-adv-x="843" d="M141 522l15 105h569l-14 -105h-570z" />
<glyph unicode="&#x2013;" horiz-adv-x="1040" d="M141 522l15 105h768l-15 -105h-768z" />
<glyph unicode="&#x2014;" horiz-adv-x="1927" d="M141 522l15 105h1652l-14 -105h-1653z" />
<glyph unicode="&#x2018;" horiz-adv-x="464" d="M205 1116q0 107 70 204.5t171 131.5l31 -74q-61 -22 -109 -67.5t-71 -104.5q16 4 25 4q41 0 67.5 -27.5t26.5 -68.5q0 -49 -31.5 -79.5t-79.5 -30.5q-44 0 -72 31t-28 81z" />
<glyph unicode="&#x2019;" horiz-adv-x="464" d="M195 1079q61 22 109 67.5t71 104.5q-16 -4 -25 -4q-41 0 -67.5 27.5t-26.5 68.5q0 49 31.5 80t79.5 31q44 0 72 -31.5t28 -81.5q0 -107 -70.5 -204t-171.5 -131z" />
<glyph unicode="&#x201a;" horiz-adv-x="485" d="M18 -178q61 22 109.5 67.5t71.5 104.5q-16 -4 -25 -4q-41 0 -67.5 27.5t-26.5 68.5q0 49 31 80t79 31q44 0 72.5 -31.5t28.5 -81.5q0 -107 -70.5 -204.5t-171.5 -131.5z" />
<glyph unicode="&#x201c;" horiz-adv-x="772" d="M205 1116q0 107 70 204.5t171 131.5l31 -74q-61 -22 -109 -67.5t-71 -104.5q16 4 25 4q41 0 67.5 -27.5t26.5 -68.5q0 -49 -31.5 -79.5t-79.5 -30.5q-44 0 -72 31t-28 81zM512 1116q0 107 70.5 204.5t171.5 131.5l30 -74q-61 -22 -109 -67.5t-71 -104.5q16 4 25 4 q41 0 67.5 -27.5t26.5 -68.5q0 -49 -31.5 -79.5t-79.5 -30.5q-44 0 -72 31t-28 81z" />
<glyph unicode="&#x201d;" horiz-adv-x="772" d="M195 1079q61 22 109 67.5t71 104.5q-16 -4 -25 -4q-41 0 -67.5 27.5t-26.5 68.5q0 49 31.5 80t79.5 31q44 0 72 -31.5t28 -81.5q0 -107 -70.5 -204t-171.5 -131zM502 1079q61 22 109 67.5t71 104.5q-16 -4 -25 -4q-41 0 -67.5 27.5t-26.5 68.5q0 49 31.5 80t79.5 31 q44 0 72 -31.5t28 -81.5q0 -107 -70.5 -204t-171.5 -131z" />
<glyph unicode="&#x201e;" horiz-adv-x="792" d="M18 -178q61 22 109.5 67.5t71.5 104.5q-16 -4 -25 -4q-41 0 -67.5 27.5t-26.5 68.5q0 49 31 80t79 31q44 0 72.5 -31.5t28.5 -81.5q0 -107 -70.5 -204.5t-171.5 -131.5zM326 -178q61 22 109 67.5t71 104.5q-16 -4 -25 -4q-41 0 -67.5 27.5t-26.5 68.5q0 49 31.5 80 t79.5 31q44 0 72 -31.5t28 -81.5q0 -107 -70.5 -204.5t-171.5 -131.5z" />
<glyph unicode="&#x2020;" horiz-adv-x="724" d="M178 1147v98h232v230h104v-230h234v-98h-234v-533h-104v533h-232z" />
<glyph unicode="&#x2021;" horiz-adv-x="808" d="M199 844v98h231v205h-231v98h231v230h105v-230h233v-98h-233v-205h233v-98h-233v-230h-105v230h-231z" />
<glyph unicode="&#x2022;" horiz-adv-x="686" d="M178 664q0 79 55.5 134.5t135.5 55.5t137 -55.5t57 -134.5q0 -80 -57.5 -137.5t-136.5 -57.5t-135 57.5t-56 137.5z" />
<glyph unicode="&#x2026;" horiz-adv-x="1566" d="M78 94q0 43 29.5 73t72.5 30t74 -30t31 -73t-31 -73.5t-74 -30.5t-72.5 30.5t-29.5 73.5zM625 94q0 43 29.5 73t72.5 30t73.5 -30t30.5 -73t-30.5 -73.5t-73.5 -30.5t-72.5 30.5t-29.5 73.5zM1169 94q0 43 30 73t73 30t73.5 -30t30.5 -73t-30.5 -73.5t-73.5 -30.5 t-73 30.5t-30 73.5z" />
<glyph unicode="&#x202f;" horiz-adv-x="374" />
<glyph unicode="&#x2039;" horiz-adv-x="585" d="M90 522l365 420h131l-377 -428l244 -412h-113z" />
<glyph unicode="&#x203a;" horiz-adv-x="583" d="M8 102l377 428l-244 412h113l250 -420l-365 -420h-131z" />
<glyph unicode="&#x205f;" horiz-adv-x="468" />
<glyph unicode="&#x20ac;" horiz-adv-x="1366" d="M47 496l29 102h104q2 99 27 225h-160l29 103h157q77 245 249.5 386.5t402.5 141.5q191 0 314.5 -131.5t129.5 -341.5h-110q-14 173 -104 269t-241 96q-176 0 -313 -112.5t-207 -307.5h539l-29 -103h-538q-25 -95 -31 -225h536l-28 -102h-506q13 -195 116.5 -301.5 t278.5 -106.5q160 0 280.5 98.5t182.5 278.5h115q-65 -221 -224.5 -353t-363.5 -132q-221 0 -353 136.5t-147 379.5h-135z" />
<glyph unicode="&#x2122;" horiz-adv-x="1916" d="M164 1335v99h637v-99h-266v-721h-105v721h-266zM915 614v820h175l278 -721l287 721h166v-820h-105v715l-276 -715h-142l-278 715v-715h-105z" />
<glyph unicode="&#x2260;" horiz-adv-x="1228" d="M121 303l14 103h305l254 471h-493l14 102h535l163 303h115l-164 -303h266l-14 -102h-307l-252 -471h492l-13 -103h-534l-164 -303h-117l164 303h-264z" />
<glyph unicode="&#x25fc;" horiz-adv-x="983" d="M0 0v983h983v-983h-983z" />
<glyph unicode="&#xf8ff;" horiz-adv-x="2510" d="M338 -410v1844h1843v-1844h-1843zM530 68h140l63 186h371l61 -186h146l-305 852h-168zM772 373l146 424h4l145 -424h-295zM1305 578h116v-334q0 -176 176 -176h121v106h-98q-61 0 -61 57v347h159v110h-159v182h-129v-141q0 -41 -44 -41h-81v-110zM1767 782 q0 -64 40.5 -104.5t105.5 -40.5t105 40.5t40 104.5t-40 104t-105 40q-66 0 -106 -39.5t-40 -104.5zM1806 782q0 109 107 109q106 0 106 -109q0 -110 -106 -110q-107 0 -107 110zM1849 705h43v53h23l27 -53h45l-33 59q26 12 26 45q0 49 -53 49h-78v-153zM1892 786v43h27 q23 0 23 -20q0 -9 -6.5 -16t-16.5 -7h-27z" />
</font>
</defs>
</svg>
