<?xml version="1.0" standalone="no"?>
<!DOCTYPE svg PUBLIC "-//W3C//DTD SVG 1.1//EN" "http://www.w3.org/Graphics/SVG/1.1/DTD/svg11.dtd" >
<svg xmlns="http://www.w3.org/2000/svg" xmlns:xlink="http://www.w3.org/1999/xlink" version="1.1">
<metadata></metadata>
<defs>
<font id="misti_fontbold" horiz-adv-x="1193" >
<font-face units-per-em="2048" ascent="1638" descent="-410" />
<missing-glyph horiz-adv-x="479" />
<glyph unicode="&#xfb01;" horiz-adv-x="1323" d="M25 762v260h178v90q0 175 99 281t263 106q123 0 199 -51l-84 -227q-33 20 -72 20q-51 0 -79.5 -34.5t-28.5 -94.5v-90h205v-260h-205v-762h-297v762h-178zM868 1337q0 72 51.5 123t124.5 51q72 0 123.5 -51t51.5 -123q0 -73 -51.5 -124.5t-123.5 -51.5q-74 0 -125 51.5 t-51 124.5zM895 0v1022h297v-1022h-297z" />
<glyph unicode="&#xfb02;" horiz-adv-x="1363" d="M25 762v260h178v90q0 175 99 281t263 106q123 0 199 -51l-84 -227q-33 20 -72 20q-51 0 -79.5 -34.5t-28.5 -94.5v-90h205v-260h-205v-762h-297v762h-178zM936 0v1475h297v-1475h-297z" />
<glyph horiz-adv-x="0" />
<glyph horiz-adv-x="682" />
<glyph unicode="&#xd;" horiz-adv-x="479" />
<glyph unicode=" "  horiz-adv-x="479" />
<glyph unicode="&#x09;" horiz-adv-x="479" />
<glyph unicode="&#xa0;" horiz-adv-x="479" />
<glyph unicode="!" horiz-adv-x="608" d="M106 180q0 83 58.5 141t140.5 58t139.5 -58t57.5 -141q0 -80 -58 -138t-139 -58q-82 0 -140.5 58t-58.5 138zM150 467v967h311v-967h-311z" />
<glyph unicode="&#x22;" horiz-adv-x="1067" d="M147 1434h302l-17 -607h-268zM618 1434h302l-17 -607h-268z" />
<glyph unicode="#" horiz-adv-x="1601" d="M20 309v238h293l115 327h-219v238h303l113 322h268l-113 -322h334l113 322h268l-113 -322h199v-238h-283l-114 -327h209v-238h-291l-109 -309h-268l109 309h-334l-109 -309h-268l108 309h-211zM582 547h333l115 327h-334z" />
<glyph unicode="$" horiz-adv-x="1163" d="M51 422l289 65q9 -109 82.5 -173t189.5 -64q91 0 142 42t51 116q0 120 -156 147l-168 33q-181 34 -279 142t-98 280q0 160 97.5 279.5t255.5 154.5v153h250v-149q309 -47 393 -350l-283 -101q-19 86 -79.5 136.5t-145.5 50.5q-86 0 -132 -40.5t-46 -115.5 q0 -113 145 -143l158 -31q201 -38 298 -144t97 -288q0 -174 -110 -293t-295 -147v-146h-250v154q-169 34 -274.5 146t-131.5 286z" />
<glyph unicode="%" horiz-adv-x="2002" d="M49 1053q0 175 116.5 290t293.5 115q174 0 289.5 -115.5t115.5 -289.5q0 -173 -116 -288.5t-289 -115.5q-177 0 -293.5 115t-116.5 289zM285 1053q0 -80 49.5 -133.5t124.5 -53.5q73 0 121.5 53.5t48.5 133.5q0 83 -48 135.5t-122 52.5q-75 0 -124.5 -52.5t-49.5 -135.5z M399 0l912 1434h305l-911 -1434h-306zM1139 373q0 175 116 290t291 115t291.5 -115.5t116.5 -289.5q0 -173 -116.5 -288.5t-291.5 -115.5t-291 115.5t-116 288.5zM1374 373q0 -80 49.5 -133.5t122.5 -53.5q74 0 122 53.5t48 133.5q0 83 -47.5 136.5t-122.5 53.5 q-74 0 -123 -53.5t-49 -136.5z" />
<glyph unicode="&#x26;" horiz-adv-x="1388" d="M96 408q0 127 65 235t167 158q-66 54 -103 127.5t-37 156.5q0 161 116.5 267t293.5 106q178 0 294 -105.5t116 -267.5q0 -98 -49 -181.5t-132 -135.5l150 -219l106 244h279l-215 -494l203 -299h-316l-71 104q-65 -61 -163.5 -95t-211.5 -34q-228 0 -360 116.5t-132 316.5 zM381 434q0 -93 59.5 -149t161.5 -56q131 0 217 86l-237 353q-80 -6 -140.5 -75t-60.5 -159zM438 1065q0 -70 45.5 -115t114.5 -45q70 0 115 44.5t45 115.5q0 68 -45 112t-115 44q-69 0 -114.5 -44.5t-45.5 -111.5z" />
<glyph unicode="'" horiz-adv-x="595" d="M147 1434h302l-17 -607h-268z" />
<glyph unicode="(" horiz-adv-x="735" d="M162 567q0 299 91 570.5t245 431.5l227 -152q-126 -130 -203.5 -364.5t-77.5 -485.5t77.5 -485.5t203.5 -364.5l-227 -151q-154 160 -245 431t-91 570z" />
<glyph unicode=")" horiz-adv-x="735" d="M10 -283q126 130 203.5 364.5t77.5 485.5t-77.5 485.5t-203.5 364.5l228 152q154 -160 244.5 -431.5t90.5 -570.5t-90.5 -570t-244.5 -431z" />
<glyph unicode="*" horiz-adv-x="917" d="M51 911l228 113l-228 113l107 184l211 -139l-17 252h213l-16 -254l211 141l106 -184l-227 -113l227 -113l-106 -184l-211 141l16 -254h-213l17 252l-211 -139z" />
<glyph unicode="+" horiz-adv-x="1228" d="M121 514v256h352v334h266v-334h348v-256h-348v-356h-266v356h-352z" />
<glyph unicode="," horiz-adv-x="624" d="M86 -190q98 9 175 61.5t104 122.5q-30 -10 -60 -10q-87 0 -143 57.5t-56 138.5q0 85 55 142t142 57q99 0 157 -67t58 -175q0 -126 -48.5 -231t-143.5 -171t-220 -71z" />
<glyph unicode="-" horiz-adv-x="856" d="M104 463v278h648v-278h-648z" />
<glyph unicode="." horiz-adv-x="608" d="M106 180q0 83 58.5 141t140.5 58t139.5 -58t57.5 -141q0 -80 -58 -138t-139 -58q-82 0 -140.5 58t-58.5 138z" />
<glyph unicode="/" horiz-adv-x="927" d="M-20 -410l659 1885h309l-659 -1885h-309z" />
<glyph unicode="0" horiz-adv-x="1347" d="M63 717q0 346 163.5 543.5t447.5 197.5q285 0 447.5 -197.5t162.5 -543.5t-162.5 -544t-447.5 -198q-284 0 -447.5 198t-163.5 544zM385 717q0 -205 76 -319.5t213 -114.5t213 114.5t76 319.5t-76 319.5t-213 114.5t-213 -114.5t-76 -319.5z" />
<glyph unicode="1" horiz-adv-x="821" d="M51 913v318q226 83 314 203h301v-1434h-310v1079q-47 -50 -120 -88.5t-185 -77.5z" />
<glyph unicode="2" horiz-adv-x="1167" d="M70 0v285l532 467q88 77 124 135.5t36 122.5q0 69 -44 111t-116 42q-181 0 -211 -207l-307 66q34 202 173 319t345 117q225 0 353 -118.5t128 -325.5q0 -125 -63 -234.5t-209 -236.5l-276 -248h563v-295h-1028z" />
<glyph unicode="3" horiz-adv-x="1208" d="M55 414l303 61q9 -108 73.5 -165.5t178.5 -57.5q94 0 150.5 48t56.5 126q0 87 -57.5 133.5t-165.5 46.5h-94v258h100q97 0 148 43t51 125q0 69 -50 109.5t-135 40.5q-95 0 -151 -48.5t-70 -140.5l-291 74q29 183 166 287t348 104q228 0 363 -108.5t135 -292.5 q0 -120 -58.5 -202.5t-164.5 -111.5q108 -25 175 -115t67 -212q0 -206 -138 -323.5t-381 -117.5q-237 0 -384 116t-175 323z" />
<glyph unicode="4" horiz-adv-x="1271" d="M70 293v336q145 171 211.5 363t66.5 442h328q0 -222 -89 -457.5t-233 -401.5h377v447h311v-447h185v-282h-185v-293h-311v293h-661z" />
<glyph unicode="5" horiz-adv-x="1179" d="M53 410l297 65q15 -109 77.5 -166t166.5 -57q98 0 157.5 59t59.5 156q0 100 -57.5 157.5t-155.5 57.5q-125 0 -192 -86l-295 90l86 748h862v-295h-617l-36 -314q44 45 118 72t162 27q207 0 323.5 -121t116.5 -336q0 -224 -144 -358t-386 -134q-224 0 -371 118.5 t-172 316.5z" />
<glyph unicode="6" horiz-adv-x="1218" d="M63 680q0 365 156.5 571.5t433.5 206.5q188 0 315.5 -84t186.5 -246l-297 -110q-17 79 -71 121.5t-138 42.5q-124 0 -197 -108.5t-73 -293.5q43 71 126 110.5t189 39.5q202 0 331.5 -130.5t129.5 -334.5q0 -218 -142.5 -354t-371.5 -136q-277 0 -427.5 184t-150.5 521z M401 465q0 -95 61.5 -154t158.5 -59t158 59t61 154q0 92 -61 150.5t-158 58.5t-158.5 -58.5t-61.5 -150.5z" />
<glyph unicode="7" horiz-adv-x="1116" d="M29 948v486h1058v-285q-191 -257 -294 -536.5t-129 -612.5h-336q27 311 133 579.5t309 559.5h-448v-191h-293z" />
<glyph unicode="8" horiz-adv-x="1253" d="M76 406q0 126 74.5 217.5t197.5 119.5q-120 28 -187 112t-67 210q0 179 144.5 286t388.5 107q239 0 384.5 -108t145.5 -285q0 -126 -65.5 -210t-184.5 -112q122 -28 196.5 -120.5t74.5 -216.5q0 -196 -150 -313.5t-401 -117.5q-255 0 -403 116t-148 315zM391 428 q0 -79 65 -127.5t171 -48.5q105 0 170 48.5t65 127.5q0 83 -63 129.5t-172 46.5q-111 0 -173.5 -46.5t-62.5 -129.5zM410 1024q0 -74 58.5 -117t158.5 -43q98 0 156.5 43.5t58.5 116.5q0 72 -58 115t-157 43q-100 0 -158.5 -42.5t-58.5 -115.5z" />
<glyph unicode="9" horiz-adv-x="1218" d="M63 305l297 111q17 -79 71 -121.5t138 -42.5q125 0 198 108.5t73 292.5q-43 -70 -126.5 -109.5t-189.5 -39.5q-202 0 -331.5 130.5t-129.5 334.5q0 218 143 353.5t372 135.5q277 0 427 -183.5t150 -520.5q0 -365 -156.5 -572t-433.5 -207q-188 0 -315.5 84t-186.5 246z M379 969q0 -92 61 -150.5t158 -58.5t158 58.5t61 150.5q0 95 -61 154t-158 59t-158 -59t-61 -154z" />
<glyph unicode=":" horiz-adv-x="608" d="M106 180q0 83 58.5 141t140.5 58t139.5 -58t57.5 -141q0 -80 -58 -138t-139 -58q-82 0 -140.5 58t-58.5 138zM106 813q0 83 58.5 141t140.5 58t139.5 -58t57.5 -141q0 -80 -58 -138.5t-139 -58.5t-140 58.5t-59 138.5z" />
<glyph unicode=";" horiz-adv-x="624" d="M86 -190q98 9 175 61.5t104 122.5q-30 -10 -60 -10q-87 0 -143 57.5t-56 138.5q0 85 55 142t142 57q99 0 157 -67t58 -175q0 -126 -48.5 -231t-143.5 -171t-220 -71zM121 813q0 83 58 141t140 58t139.5 -58t57.5 -141q0 -80 -58 -138.5t-139 -58.5t-139.5 58.5 t-58.5 138.5z" />
<glyph unicode="&#x3c;" horiz-adv-x="1228" d="M121 500v282l966 426v-282l-675 -285l675 -285v-282z" />
<glyph unicode="=" horiz-adv-x="1228" d="M121 215v256h966v-256h-966zM121 813v256h966v-256h-966z" />
<glyph unicode="&#x3e;" horiz-adv-x="1228" d="M121 74v282l676 285l-676 285v282l966 -426v-282z" />
<glyph unicode="?" horiz-adv-x="1081" d="M43 1030q29 196 170 312t350 116q225 0 350 -109t125 -300q0 -107 -51 -199t-168 -193l-28 -24q-86 -80 -86 -129v-37h-312v37q0 73 36 128.5t144 149.5l29 27q61 55 88 103.5t27 107.5q0 63 -46 102t-118 39q-181 0 -209 -188zM350 180q0 83 58.5 141t140.5 58t139 -58 t57 -141q0 -80 -57.5 -138t-138.5 -58q-82 0 -140.5 58t-58.5 138z" />
<glyph unicode="@" horiz-adv-x="1923" d="M57 467q0 194 72 364t196 289t295.5 187.5t364.5 68.5q183 0 345.5 -61.5t280.5 -168t186.5 -258.5t68.5 -325q0 -233 -111.5 -381.5t-284.5 -148.5q-104 0 -183 52t-107 138q-32 -89 -105 -136.5t-174 -47.5q-161 0 -265 118t-104 310t104 311t265 119q168 0 236 -139 v110h227v-477q0 -70 27.5 -106.5t76.5 -36.5q66 0 109 75t43 214q0 182 -82 320t-225.5 211t-327.5 73q-197 0 -351 -85t-239.5 -238.5t-85.5 -348.5q0 -300 189 -485t497 -185q107 0 208.5 27t176.5 74l95 -219q-96 -54 -222.5 -84.5t-261.5 -30.5q-202 0 -375.5 67 t-296.5 185t-192.5 286t-69.5 363zM782 467q0 -98 48.5 -154.5t127.5 -56.5q80 0 129.5 56.5t49.5 154.5t-49.5 154.5t-129.5 56.5q-79 0 -127.5 -56.5t-48.5 -154.5z" />
<glyph unicode="A" horiz-adv-x="1343" d="M29 0l458 1434h367l461 -1434h-332l-92 324h-442l-93 -324h-327zM526 606h287l-143 506z" />
<glyph unicode="B" horiz-adv-x="1273" d="M156 0v1434h534q209 0 332 -104t123 -281q0 -104 -63 -191t-156 -115q114 -26 187 -118.5t73 -212.5q0 -189 -123.5 -300.5t-335.5 -111.5h-571zM465 258h209q97 0 148.5 44.5t51.5 127.5q0 85 -52.5 129.5t-153.5 44.5h-203v-346zM465 864h176q92 0 142.5 42.5 t50.5 119.5q0 70 -50 110t-137 40h-182v-312z" />
<glyph unicode="C" horiz-adv-x="1320" d="M63 721q0 337 168 537t449 200q245 0 395.5 -151t165.5 -412h-315q-15 130 -75.5 193t-170.5 63q-143 0 -219 -110.5t-76 -319.5q0 -216 75 -327t220 -111q114 0 176 58.5t84 184.5h317q-23 -258 -177 -404.5t-400 -146.5q-285 0 -451 200.5t-166 545.5z" />
<glyph unicode="D" horiz-adv-x="1347" d="M156 0v1434h424q322 0 513 -192.5t191 -518.5q0 -331 -190.5 -527t-513.5 -196h-424zM465 295h115q179 0 281 114.5t102 313.5q0 192 -102.5 304t-280.5 112h-115v-844z" />
<glyph unicode="E" horiz-adv-x="1157" d="M156 0v1434h884v-295h-575v-275h545v-282h-545v-287h586v-295h-895z" />
<glyph unicode="F" horiz-adv-x="1085" d="M156 0v1434h843v-295h-534v-297h504v-283h-504v-559h-309z" />
<glyph unicode="G" horiz-adv-x="1359" d="M63 721q0 335 168 536t449 201q218 0 366 -115.5t191 -318.5l-319 -80q-41 207 -238 207q-143 0 -219 -110.5t-76 -319.5q0 -216 75 -327t220 -111q231 0 278 262h-266v270h604v-94q0 -350 -163.5 -548t-452.5 -198q-285 0 -451 200.5t-166 545.5z" />
<glyph unicode="H" horiz-adv-x="1404" d="M156 0v1434h309v-564h475v564h309v-1434h-309v575h-475v-575h-309z" />
<glyph unicode="I" horiz-adv-x="620" d="M156 0v1434h309v-1434h-309z" />
<glyph unicode="J" horiz-adv-x="1222" d="M100 477v72h310v-72q0 -91 50 -142.5t136 -51.5q82 0 129 51.5t47 142.5v662h-356v295h667v-957q0 -215 -139 -358.5t-348 -143.5q-224 0 -360 137.5t-136 364.5z" />
<glyph unicode="K" horiz-adv-x="1282" d="M156 0v1434h309v-582l414 582h366l-446 -605l446 -829h-352l-293 561l-135 -182v-379h-309z" />
<glyph unicode="L" horiz-adv-x="1079" d="M156 0v1434h309v-1139h545v-295h-854z" />
<glyph unicode="M" horiz-adv-x="1638" d="M156 0v1434h448l215 -797l215 797h449v-1434h-309v993l-224 -788h-262l-223 788v-993h-309z" />
<glyph unicode="N" horiz-adv-x="1419" d="M156 0v1434h317l481 -887v887h310v-1434h-318l-481 887v-887h-309z" />
<glyph unicode="O" horiz-adv-x="1359" d="M63 721q0 335 168 536t449 201q282 0 449 -201t167 -536q0 -345 -165.5 -545.5t-450.5 -200.5t-451 200.5t-166 545.5zM385 721q0 -216 75 -327t220 -111t220 111t75 327q0 210 -75.5 320t-219.5 110q-143 0 -219 -110.5t-76 -319.5z" />
<glyph unicode="P" horiz-adv-x="1220" d="M156 0v1434h499q232 0 374 -127.5t142 -337.5q0 -207 -142.5 -335t-373.5 -128h-190v-506h-309zM465 784h190q95 0 149 49.5t54 135.5t-54 136t-149 50h-190v-371z" />
<glyph unicode="Q" horiz-adv-x="1359" d="M63 721q0 335 168 536t449 201q282 0 449 -201t167 -536q0 -213 -65.5 -373.5t-186.5 -255.5l252 -297h-360l-164 187q-54 -7 -92 -7q-285 0 -451 200.5t-166 545.5zM385 721q0 -216 75 -327t220 -111t220 111t75 327q0 210 -75.5 320t-219.5 110q-143 0 -219 -110.5 t-76 -319.5z" />
<glyph unicode="R" horiz-adv-x="1265" d="M156 0v1434h524q231 0 372.5 -124.5t141.5 -328.5q0 -146 -77.5 -253t-213.5 -155l291 -573h-330l-260 537h-139v-537h-309zM465 807h215q94 0 148.5 46.5t54.5 127.5t-54.5 127.5t-148.5 46.5h-215v-348z" />
<glyph unicode="S" horiz-adv-x="1163" d="M51 422l289 65q9 -109 82.5 -173t189.5 -64q91 0 142 42t51 116q0 120 -156 147l-168 33q-181 34 -279 142t-98 280q0 191 134.5 319.5t341.5 128.5q420 0 520 -360l-283 -101q-19 86 -79.5 136.5t-145.5 50.5q-86 0 -132 -40.5t-46 -115.5q0 -113 145 -143l158 -31 q201 -38 298 -144t97 -288q0 -199 -139.5 -323t-366.5 -124q-232 0 -378 117.5t-177 329.5z" />
<glyph unicode="T" horiz-adv-x="1116" d="M31 1139v295h1054v-295h-372v-1139h-310v1139h-372z" />
<glyph unicode="U" horiz-adv-x="1388" d="M139 537v897h310v-897q0 -120 64.5 -187t180.5 -67q117 0 180.5 67t63.5 187v897h311v-897q0 -255 -151.5 -408.5t-403.5 -153.5q-253 0 -404 153.5t-151 408.5z" />
<glyph unicode="V" horiz-adv-x="1327" d="M29 1434h333l304 -1078l303 1078h329l-452 -1434h-365z" />
<glyph unicode="W" horiz-adv-x="1775" d="M29 1434h311l176 -1065l172 1065h399l175 -1065l178 1065h307l-279 -1434h-399l-184 981l-166 -981h-414z" />
<glyph unicode="X" horiz-adv-x="1284" d="M29 0l444 717l-426 717h348l262 -441l242 441h344l-426 -711l430 -723h-348l-266 449l-260 -449h-344z" />
<glyph unicode="Y" horiz-adv-x="1275" d="M29 1434h336l274 -572l272 572h336l-454 -850v-584h-310v584z" />
<glyph unicode="Z" horiz-adv-x="1136" d="M90 0v285l598 854h-582v295h941v-285l-598 -854h598v-295h-957z" />
<glyph unicode="[" horiz-adv-x="649" d="M156 -410v1954h442v-229h-172v-1495h172v-230h-442z" />
<glyph unicode="\" horiz-adv-x="927" d="M-20 1475h309l659 -1885h-309z" />
<glyph unicode="]" horiz-adv-x="649" d="M51 -180h172v1495h-172v229h443v-1954h-443v230z" />
<glyph unicode="^" horiz-adv-x="1228" d="M160 786l309 648h270l310 -648h-277l-166 402l-170 -402h-276z" />
<glyph unicode="_" horiz-adv-x="729" d="M41 0h647v-279h-647v279z" />
<glyph unicode="`" horiz-adv-x="743" d="M102 1475h355l184 -328h-291z" />
<glyph unicode="a" horiz-adv-x="1114" d="M57 279q0 162 113.5 247.5t327.5 85.5q114 0 198 -34v84q0 143 -166 143q-60 0 -105.5 -28.5t-70.5 -80.5l-243 84q36 112 151 189.5t279 77.5q215 0 333.5 -103t118.5 -289v-655h-297v106q-96 -131 -305 -131q-152 0 -243 83.5t-91 220.5zM352 301q0 -54 37 -83.5 t103 -29.5q89 0 146.5 54.5t57.5 138.5v8q-75 37 -166 37q-178 0 -178 -125z" />
<glyph unicode="b" horiz-adv-x="1257" d="M131 0v1475h297v-557q39 58 120 93.5t177 35.5q214 0 344.5 -147t130.5 -390q0 -241 -130.5 -388t-344.5 -147q-96 0 -176.5 38.5t-120.5 101.5v-115h-297zM418 510q0 -115 67.5 -187.5t173.5 -72.5t174 72.5t68 187.5t-68 188.5t-174 73.5t-173.5 -72.5t-67.5 -189.5z " />
<glyph unicode="c" horiz-adv-x="1132" d="M57 510q0 233 152 385t385 152q182 0 313 -95t172 -256l-268 -84q-23 75 -80.5 117.5t-136.5 42.5q-107 0 -172.5 -72t-65.5 -190q0 -117 66 -188.5t172 -71.5q81 0 141.5 43t83.5 117l266 -88q-40 -154 -177 -250.5t-314 -96.5q-233 0 -385 151.5t-152 383.5z" />
<glyph unicode="d" horiz-adv-x="1257" d="M57 510q0 243 130.5 390t344.5 147q96 0 177 -35.5t120 -93.5v557h297v-1475h-297v115q-40 -63 -120.5 -101.5t-176.5 -38.5q-214 0 -344.5 147t-130.5 388zM356 510q0 -115 68 -187.5t174 -72.5t174 72.5t68 187.5q0 116 -68 189t-174 73t-174 -73.5t-68 -188.5z" />
<glyph unicode="e" horiz-adv-x="1136" d="M57 510q0 233 150 385t379 152t361 -139.5t132 -381.5q0 -54 -6 -84h-725q15 -104 79 -161.5t167 -57.5q131 0 199 96l225 -147q-67 -91 -179.5 -144t-244.5 -53q-234 0 -385.5 151.5t-151.5 383.5zM358 623h441q-12 85 -68 132.5t-145 47.5q-84 0 -143.5 -47.5 t-84.5 -132.5z" />
<glyph unicode="f" horiz-adv-x="854" d="M25 762v260h178v117q0 166 102 263t275 97q273 0 364 -190l-213 -148q-39 80 -115 80q-56 0 -86 -31.5t-30 -89.5v-98h334v-260h-334v-762h-297v762h-178z" />
<glyph unicode="g" horiz-adv-x="1257" d="M57 543q0 217 132.5 360.5t332.5 143.5q107 0 188.5 -39t118.5 -107v121h297v-926q0 -262 -140.5 -396t-416.5 -134q-166 0 -293 68t-184 188l252 127q78 -119 231 -119q125 0 189.5 68t64.5 198v82q-40 -63 -122.5 -100t-184.5 -37q-201 0 -333 142t-132 360zM356 543 q0 -104 67.5 -170t174.5 -66t174.5 66t67.5 170t-67.5 169.5t-174.5 65.5t-174.5 -65.5t-67.5 -169.5z" />
<glyph unicode="h" d="M131 0v1475h297v-580q36 67 113.5 109.5t165.5 42.5q170 0 268 -107.5t98 -296.5v-643h-297v592q0 86 -45 134t-127 48q-78 0 -127 -51.5t-49 -134.5v-588h-297z" />
<glyph unicode="i" horiz-adv-x="559" d="M104 1337q0 72 52 123t125 51q72 0 123 -51t51 -123q0 -73 -51 -124.5t-123 -51.5q-74 0 -125.5 51.5t-51.5 124.5zM131 0v1022h297v-1022h-297z" />
<glyph unicode="j" horiz-adv-x="559" d="M-119 -389l60 237q46 -22 86 -22q51 0 77.5 32.5t26.5 92.5v1071h297v-1071q0 -187 -86.5 -286t-249.5 -99q-132 0 -211 45zM104 1337q0 72 52 123t125 51q72 0 123 -51t51 -123q0 -73 -51 -124.5t-123 -51.5q-74 0 -125.5 51.5t-51.5 124.5z" />
<glyph unicode="k" horiz-adv-x="1157" d="M131 0v1475h297v-830l338 377h362l-387 -420l387 -602h-325l-250 395l-125 -135v-260h-297z" />
<glyph unicode="l" horiz-adv-x="559" d="M131 0v1475h297v-1475h-297z" />
<glyph unicode="m" horiz-adv-x="1839" d="M131 0v1022h297v-127q37 67 119 109.5t176 42.5q101 0 176.5 -39t118.5 -111q123 150 332 150q171 0 269.5 -108t98.5 -296v-643h-297v592q0 86 -45.5 134t-128.5 48q-78 0 -126 -51t-48 -135v-588h-297v592q0 86 -45 134t-127 48q-79 0 -127.5 -51t-48.5 -135v-588h-297 z" />
<glyph unicode="n" d="M131 0v1022h297v-127q36 67 113.5 109.5t165.5 42.5q170 0 268 -107.5t98 -296.5v-643h-297v592q0 86 -45 134t-127 48q-78 0 -127 -51.5t-49 -134.5v-588h-297z" />
<glyph unicode="o" d="M57 510q0 232 154 384.5t387 152.5q152 0 275.5 -69.5t193.5 -192.5t70 -275q0 -230 -153.5 -382.5t-385.5 -152.5q-233 0 -387 152.5t-154 382.5zM356 510q0 -115 67.5 -187.5t174.5 -72.5t173.5 71.5t66.5 188.5t-66.5 189.5t-173.5 72.5q-108 0 -175 -72t-67 -190z " />
<glyph unicode="p" horiz-adv-x="1257" d="M131 -410v1432h297v-115q40 63 120.5 101.5t176.5 38.5q214 0 344.5 -147t130.5 -388q0 -243 -130.5 -390t-344.5 -147q-96 0 -177 35.5t-120 93.5v-514h-297zM418 512q0 -117 67.5 -189.5t173.5 -72.5t174 73.5t68 188.5t-68 187.5t-174 72.5t-173.5 -72.5t-67.5 -187.5 z" />
<glyph unicode="q" horiz-adv-x="1257" d="M57 512q0 241 130.5 388t344.5 147q96 0 176.5 -38.5t120.5 -101.5v115h297v-1432h-297v514q-39 -58 -120 -93.5t-177 -35.5q-214 0 -344.5 147t-130.5 390zM356 512q0 -115 68 -188.5t174 -73.5t174 73t68 189q0 115 -68 187.5t-174 72.5t-174 -72.5t-68 -187.5z" />
<glyph unicode="r" horiz-adv-x="1030" d="M131 0v1022h297v-152q27 80 92.5 128.5t157.5 48.5q134 0 214.5 -94t98.5 -246l-268 -74q-10 94 -41.5 140t-99.5 46q-75 0 -114.5 -60t-39.5 -173v-586h-297z" />
<glyph unicode="s" horiz-adv-x="935" d="M53 281l252 55q10 -67 56 -104t118 -37q60 0 93.5 23.5t33.5 66.5q0 37 -26 59.5t-84 32.5l-117 22q-144 29 -222.5 111.5t-78.5 204.5q0 148 108 240t281 92q161 0 272.5 -81.5t128.5 -213.5l-247 -56q-9 64 -48 97.5t-104 33.5q-54 0 -84.5 -24.5t-30.5 -67.5 q0 -69 99 -90l118 -22q160 -32 236 -107.5t76 -202.5q0 -155 -110 -246.5t-296 -91.5q-170 0 -290 87t-134 219z" />
<glyph unicode="t" horiz-adv-x="1017" d="M25 762v260h178v291h297v-291h334v-260h-334v-408q0 -58 30 -89.5t86 -31.5q50 0 77.5 29.5t37.5 93.5l240 -37q-14 -167 -114 -255.5t-277 -88.5q-173 0 -275 97.5t-102 263.5v426h-178z" />
<glyph unicode="u" d="M121 379v643h297v-592q0 -86 45 -134t127 -48q78 0 127 51.5t49 134.5v588h297v-1022h-297v127q-36 -67 -113.5 -109.5t-165.5 -42.5q-170 0 -268 107.5t-98 296.5z" />
<glyph unicode="v" horiz-adv-x="1163" d="M18 1022h330l236 -698l233 698h328l-404 -1022h-317z" />
<glyph unicode="w" horiz-adv-x="1591" d="M18 1022h314l135 -700l164 700h332l161 -700l133 700h316l-252 -1022h-365l-159 696l-160 -696h-369z" />
<glyph unicode="x" horiz-adv-x="1118" d="M29 0l364 516l-352 506h336l196 -281l181 281h323l-354 -498l367 -524h-338l-205 295l-195 -295h-323z" />
<glyph unicode="y" horiz-adv-x="1159" d="M18 1022h330l242 -672l223 672h328l-459 -1124q-72 -174 -173 -253t-253 -79q-147 0 -211 45l51 239q50 -24 119 -24q73 0 116.5 31t82.5 108l28 58z" />
<glyph unicode="z" horiz-adv-x="960" d="M74 0v246l444 516h-434v260h803v-246l-445 -516h445v-260h-813z" />
<glyph unicode="{" horiz-adv-x="751" d="M51 440v254q121 0 164 34.5t43 131.5v301q0 383 412 383h30v-229h-30q-69 0 -105.5 -39.5t-36.5 -114.5v-301q0 -109 -50.5 -184t-145.5 -109q95 -34 145.5 -109t50.5 -184v-301q0 -75 36.5 -114t105.5 -39h30v-230h-30q-412 0 -412 383v301q0 97 -43 131.5t-164 34.5z " />
<glyph unicode="|" horiz-adv-x="610" d="M176 -410v1885h258v-1885h-258z" />
<glyph unicode="}" horiz-adv-x="751" d="M51 -180h31q69 0 105 39t36 114v301q0 109 51 184t146 109q-95 34 -146 109t-51 184v301q0 75 -36 114.5t-105 39.5h-31v229h31q412 0 412 -383v-301q0 -97 42.5 -131.5t163.5 -34.5v-254q-121 0 -163.5 -34.5t-42.5 -131.5v-301q0 -383 -412 -383h-31v230z" />
<glyph unicode="~" horiz-adv-x="1228" d="M121 506q0 146 67 225.5t189 79.5q66 0 138.5 -22.5t134 -45t98.5 -22.5q86 0 98 90l241 -29q0 -151 -70.5 -234t-197.5 -83q-66 0 -139.5 23t-134 46t-96.5 23q-87 0 -99 -92z" />
<glyph unicode="&#xa1;" horiz-adv-x="608" d="M106 958q0 80 59 138.5t140 58.5t139 -58.5t58 -138.5q0 -83 -57.5 -140.5t-139.5 -57.5t-140.5 57.5t-58.5 140.5zM150 -295v967h311v-967h-311z" />
<glyph unicode="&#xa2;" horiz-adv-x="1132" d="M57 510q0 198 112.5 340t295.5 182v154h246v-150q139 -28 236.5 -117.5t131.5 -222.5l-268 -84q-23 75 -80.5 117.5t-136.5 42.5q-107 0 -172.5 -72t-65.5 -190q0 -117 66 -188.5t172 -71.5q81 0 141.5 43t83.5 117l266 -88q-34 -127 -134.5 -216.5t-239.5 -117.5v-152 h-246v154q-183 40 -295.5 182t-112.5 338z" />
<glyph unicode="&#xa3;" horiz-adv-x="1191" d="M80 0v258q113 40 167 94t54 129q0 17 -4 49h-217v232h117q-66 132 -66 237q0 197 145.5 328t374.5 131q200 0 335 -103t167 -282l-287 -96q-15 100 -70.5 153.5t-144.5 53.5q-94 0 -146 -48.5t-52 -136.5q0 -92 63 -237h348v-232h-270q4 -32 4 -49q0 -135 -94 -213h649 v-268h-1073z" />
<glyph unicode="&#xa5;" horiz-adv-x="1275" d="M29 1434h336l274 -572l272 572h336l-430 -803h318v-189h-342v-88h342v-188h-342v-166h-310v166h-342v188h342v88h-342v189h318z" />
<glyph unicode="&#xa7;" horiz-adv-x="1132" d="M121 1098q0 160 120.5 260t315.5 100q175 0 291 -85t145 -236l-260 -66q-30 148 -186 148q-72 0 -112 -29.5t-40 -83.5q0 -44 38 -70.5t132 -46.5l123 -26q324 -68 324 -318q0 -97 -48.5 -169.5t-134.5 -108.5q183 -88 183 -281q0 -160 -121.5 -260t-315.5 -100 q-177 0 -292 85t-146 236l262 68q30 -150 187 -150q71 0 111 30.5t40 84.5q0 43 -38.5 69t-133.5 48l-123 24q-319 70 -319 318q0 98 48.5 171t133.5 107q-184 88 -184 281zM391 582q0 -53 30.5 -83.5t100.5 -47.5l35 -9q73 -19 128.5 29.5t55.5 130.5q0 52 -31 83t-100 48 l-35 10q-74 19 -129 -29.5t-55 -131.5z" />
<glyph unicode="&#xa8;" horiz-adv-x="1099" d="M102 1337q0 72 52 123t125 51q72 0 123 -51t51 -123q0 -73 -51 -124.5t-123 -51.5q-74 0 -125.5 51.5t-51.5 124.5zM647 1337q0 72 51.5 123t124.5 51q72 0 123 -51t51 -123q0 -73 -51 -124.5t-123 -51.5q-73 0 -124.5 51.5t-51.5 124.5z" />
<glyph unicode="&#xa9;" horiz-adv-x="1646" d="M63 717q0 151 60.5 288.5t162.5 236.5t242.5 157.5t294.5 58.5q155 0 295.5 -58.5t242.5 -157.5t162 -236.5t60 -288.5t-60 -288.5t-162 -237t-242.5 -158t-295.5 -58.5q-154 0 -294.5 58.5t-242.5 158t-162.5 237t-60.5 288.5zM254 717q0 -154 76.5 -284.5t207.5 -206.5 t285 -76q116 0 221.5 45t182 121t121.5 181t45 220t-45 220t-121.5 181t-182 121t-221.5 45q-154 0 -285 -76t-207.5 -206.5t-76.5 -284.5zM393 717q0 196 123 322t313 126q148 0 255.5 -82.5t144.5 -224.5l-240 -70q-17 62 -59 97t-101 35q-78 0 -129 -57.5t-51 -145.5 q0 -89 51 -146t129 -57q59 0 104 34.5t62 92.5l240 -72q-40 -135 -151.5 -217t-254.5 -82q-189 0 -312.5 126t-123.5 321z" />
<glyph unicode="&#xaa;" horiz-adv-x="888" d="M49 848q0 129 90 197.5t260 68.5h158v39q0 55 -32.5 84t-92.5 29q-57 0 -96.5 -33t-46.5 -90l-211 49q13 117 114.5 191.5t239.5 74.5q170 0 265.5 -82t95.5 -227v-522h-236v86q-77 -105 -242 -105q-121 0 -193.5 66t-72.5 174zM283 866q0 -43 28 -66.5t82 -23.5 q70 0 117 44.5t47 109.5v35h-133q-141 0 -141 -99z" />
<glyph unicode="&#xab;" horiz-adv-x="1296" d="M76 522l307 420h326l-308 -420l308 -420h-326zM608 522l307 420h326l-307 -420l307 -420h-326z" />
<glyph unicode="&#xad;" horiz-adv-x="856" d="M104 463v278h648v-278h-648z" />
<glyph unicode="&#xae;" horiz-adv-x="1083" d="M66 983q0 97 37.5 185t101.5 151.5t151.5 101t184.5 37.5q199 0 338 -138.5t139 -336.5q0 -199 -139 -338t-338 -139q-197 0 -336 139t-139 338zM190 983q0 -88 38 -162.5t104 -122.5v568q-66 -48 -104 -122.5t-38 -160.5zM338 694q88 -63 203 -63q116 0 204 63h-131 l-96 211h-39v-211h-141zM346 1276h221q88 0 145.5 -51t57.5 -133q0 -59 -31 -103.5t-84 -66.5l109 -215q61 50 95 121.5t34 154.5q0 148 -101.5 249t-250.5 101q-110 0 -195 -57zM479 1020h68q35 0 55.5 18t20.5 54q0 34 -20.5 51.5t-55.5 17.5h-68v-141z" />
<glyph unicode="&#xaf;" horiz-adv-x="913" d="M102 1188v270h709v-270h-709z" />
<glyph unicode="&#xb0;" horiz-adv-x="948" d="M49 1034q0 175 124.5 299.5t299.5 124.5q177 0 301.5 -124.5t124.5 -299.5q0 -177 -124.5 -301.5t-301.5 -124.5q-175 0 -299.5 124.5t-124.5 301.5zM285 1034q0 -79 55 -134.5t133 -55.5q82 0 137.5 55t55.5 135q0 78 -56 133.5t-137 55.5q-78 0 -133 -55.5t-55 -133.5z " />
<glyph unicode="&#xb4;" horiz-adv-x="743" d="M102 1147l185 328h354l-248 -328h-291z" />
<glyph unicode="&#xb5;" d="M121 -410v1432h297v-592q0 -86 45 -134t127 -48q78 0 127 51.5t49 134.5v588h297v-1022h-297v127q-36 -67 -113.5 -109.5t-165.5 -42.5q-11 0 -69 5v-390h-297z" />
<glyph unicode="&#xb6;" horiz-adv-x="1357" d="M109 1114q0 145 104 232.5t293 87.5h260v-1844h-270v1205h-23q-167 0 -265.5 88t-98.5 231zM932 -410v1844h270v-1844h-270z" />
<glyph unicode="&#xb7;" horiz-adv-x="608" d="M106 631q0 83 58.5 140.5t140.5 57.5t139.5 -57.5t57.5 -140.5q0 -80 -58 -138.5t-139 -58.5t-140 58.5t-59 138.5z" />
<glyph unicode="&#xb8;" horiz-adv-x="653" d="M102 -369l43 160q64 -33 121 -33q62 0 62 39q0 23 -22 32t-75 9l-61 72l49 131h174l-45 -98q203 -27 203 -172q0 -87 -63.5 -134t-178.5 -47q-121 0 -207 41z" />
<glyph unicode="&#xba;" horiz-adv-x="954" d="M49 1032q0 184 122 305t308 121q183 0 304.5 -121t121.5 -305q0 -183 -121.5 -303.5t-304.5 -120.5q-186 0 -308 121t-122 303zM285 1032q0 -92 54 -149.5t140 -57.5q85 0 138 57.5t53 149.5q0 94 -53 151.5t-138 57.5q-87 0 -140.5 -57t-53.5 -152z" />
<glyph unicode="&#xbb;" horiz-adv-x="1296" d="M55 102l307 420l-307 420h326l307 -420l-307 -420h-326zM588 102l307 420l-307 420h325l308 -420l-308 -420h-325z" />
<glyph unicode="&#xbf;" horiz-adv-x="1040" d="M43 90q0 107 51 198.5t168 192.5l29 25q86 80 86 129v37h311v-37q0 -73 -36 -129t-144 -150l-29 -26q-61 -55 -87.5 -103.5t-26.5 -107.5q0 -63 45.5 -102.5t117.5 -39.5q89 0 142 48.5t67 140.5l301 -57q-29 -196 -170 -312t-350 -116q-225 0 -350 109t-125 300z M336 958q0 80 57.5 138.5t138.5 58.5t140 -58.5t59 -138.5q0 -83 -58.5 -140.5t-140.5 -57.5t-139 57.5t-57 140.5z" />
<glyph unicode="&#xc0;" horiz-adv-x="1343" d="M29 0l458 1434h367l461 -1434h-332l-92 324h-442l-93 -324h-327zM332 1819h375l180 -303h-312zM526 606h287l-143 506z" />
<glyph unicode="&#xc1;" horiz-adv-x="1343" d="M29 0l458 1434h367l461 -1434h-332l-92 324h-442l-93 -324h-327zM504 1516l180 303h375l-244 -303h-311zM526 606h287l-143 506z" />
<glyph unicode="&#xc2;" horiz-adv-x="1343" d="M29 0l458 1434h367l461 -1434h-332l-92 324h-442l-93 -324h-327zM250 1516l215 303h414l215 -303h-295l-127 192l-127 -192h-295zM526 606h287l-143 506z" />
<glyph unicode="&#xc3;" horiz-adv-x="1343" d="M29 0l458 1434h367l461 -1434h-332l-92 324h-442l-93 -324h-327zM242 1556q0 146 59.5 226t167.5 80q56 0 118.5 -22.5t115 -45t85.5 -22.5q61 0 70 90l240 -29q0 -151 -62 -234t-176 -83q-57 0 -120 23t-115.5 46t-83.5 23q-61 0 -70 -92zM526 606h287l-143 506z" />
<glyph unicode="&#xc4;" horiz-adv-x="1343" d="M29 0l458 1434h367l461 -1434h-332l-92 324h-442l-93 -324h-327zM223 1673q0 73 51.5 124.5t124.5 51.5q72 0 123 -51.5t51 -124.5q0 -72 -51 -123t-123 -51q-73 0 -124.5 51t-51.5 123zM526 606h287l-143 506zM768 1673q0 73 51 124.5t125 51.5q72 0 123 -51.5 t51 -124.5q0 -72 -51 -123t-123 -51q-73 0 -124.5 51t-51.5 123z" />
<glyph unicode="&#xc5;" horiz-adv-x="1343" d="M29 0l458 1434h367l461 -1434h-332l-92 324h-442l-93 -324h-327zM403 1698q0 106 75.5 173.5t193.5 67.5q117 0 191.5 -67.5t74.5 -173.5q0 -105 -74.5 -172.5t-191.5 -67.5q-118 0 -193.5 67.5t-75.5 172.5zM526 606h287l-143 506zM598 1698q0 -34 21 -55t53 -21 t52.5 21t20.5 55t-20.5 56t-52.5 22t-53 -22t-21 -56z" />
<glyph unicode="&#xc6;" horiz-adv-x="1974" d="M29 0l805 1434h1024v-295h-547v-275h516v-282h-516v-287h557v-295h-867v324h-436l-172 -324h-364zM715 606h286v539z" />
<glyph unicode="&#xc7;" horiz-adv-x="1320" d="M63 721q0 337 168 537t449 200q245 0 395.5 -151t165.5 -412h-315q-15 130 -75.5 193t-170.5 63q-143 0 -219 -110.5t-76 -319.5q0 -216 75 -327t220 -111q114 0 176 58.5t84 184.5h317q-22 -237 -155 -380.5t-350 -165.5l-17 -37q203 -27 203 -172q0 -87 -63.5 -134 t-178.5 -47q-121 0 -207 41l43 160q64 -33 121 -33q62 0 62 39q0 23 -22 32t-75 9l-61 72l27 72q-243 34 -382 229.5t-139 509.5z" />
<glyph unicode="&#xc8;" horiz-adv-x="1157" d="M156 0v1434h884v-295h-575v-275h545v-282h-545v-287h586v-295h-895zM274 1819h375l180 -303h-311z" />
<glyph unicode="&#xc9;" horiz-adv-x="1157" d="M156 0v1434h884v-295h-575v-275h545v-282h-545v-287h586v-295h-895zM446 1516l181 303h374l-243 -303h-312z" />
<glyph unicode="&#xca;" horiz-adv-x="1157" d="M156 0v1434h884v-295h-575v-275h545v-282h-545v-287h586v-295h-895zM193 1516l215 303h413l215 -303h-295l-127 192l-127 -192h-294z" />
<glyph unicode="&#xcb;" horiz-adv-x="1157" d="M156 0v1434h884v-295h-575v-275h545v-282h-545v-287h586v-295h-895zM168 1673q0 73 51 124.5t125 51.5q72 0 123 -51.5t51 -124.5q0 -72 -51 -123t-123 -51q-73 0 -124.5 51t-51.5 123zM713 1673q0 73 51.5 124.5t124.5 51.5q72 0 123 -51.5t51 -124.5q0 -72 -51 -123 t-123 -51q-73 0 -124.5 51t-51.5 123z" />
<glyph unicode="&#xcc;" horiz-adv-x="620" d="M-29 1819h375l180 -303h-311zM156 0v1434h309v-1434h-309z" />
<glyph unicode="&#xcd;" horiz-adv-x="620" d="M143 1516l181 303h374l-243 -303h-312zM156 0v1434h309v-1434h-309z" />
<glyph unicode="&#xce;" horiz-adv-x="620" d="M-111 1516l215 303h414l215 -303h-295l-127 192l-127 -192h-295zM156 0v1434h309v-1434h-309z" />
<glyph unicode="&#xcf;" horiz-adv-x="620" d="M-135 1673q0 73 51.5 124.5t124.5 51.5q72 0 123 -51.5t51 -124.5q0 -72 -51 -123t-123 -51q-73 0 -124.5 51t-51.5 123zM156 0v1434h309v-1434h-309zM410 1673q0 73 51 124.5t125 51.5q72 0 123 -51.5t51 -124.5q0 -72 -51 -123t-123 -51q-73 0 -124.5 51t-51.5 123z " />
<glyph unicode="&#xd0;" horiz-adv-x="1347" d="M-10 582v272h166v580h424q322 0 513 -192.5t191 -518.5q0 -331 -190.5 -527t-513.5 -196h-424v582h-166zM465 295h115q179 0 281 114.5t102 313.5q0 192 -102.5 304t-280.5 112h-115v-285h332v-272h-332v-287z" />
<glyph unicode="&#xd1;" horiz-adv-x="1419" d="M156 0v1434h317l481 -887v887h310v-1434h-318l-481 887v-887h-309zM281 1556q0 146 59.5 226t167.5 80q56 0 118.5 -22.5t115 -45t85.5 -22.5q61 0 70 90l240 -29q0 -151 -62 -234t-176 -83q-57 0 -120 23t-115.5 46t-83.5 23q-61 0 -70 -92z" />
<glyph unicode="&#xd2;" horiz-adv-x="1359" d="M63 721q0 335 168 536t449 201q282 0 449 -201t167 -536q0 -345 -165.5 -545.5t-450.5 -200.5t-451 200.5t-166 545.5zM342 1819h375l180 -303h-311zM385 721q0 -216 75 -327t220 -111t220 111t75 327q0 210 -75.5 320t-219.5 110q-143 0 -219 -110.5t-76 -319.5z" />
<glyph unicode="&#xd3;" horiz-adv-x="1359" d="M63 721q0 335 168 536t449 201q282 0 449 -201t167 -536q0 -345 -165.5 -545.5t-450.5 -200.5t-451 200.5t-166 545.5zM385 721q0 -216 75 -327t220 -111t220 111t75 327q0 210 -75.5 320t-219.5 110q-143 0 -219 -110.5t-76 -319.5zM514 1516l180 303h375l-244 -303 h-311z" />
<glyph unicode="&#xd4;" horiz-adv-x="1359" d="M63 721q0 335 168 536t449 201q282 0 449 -201t167 -536q0 -345 -165.5 -545.5t-450.5 -200.5t-451 200.5t-166 545.5zM260 1516l215 303h414l215 -303h-295l-127 192l-127 -192h-295zM385 721q0 -216 75 -327t220 -111t220 111t75 327q0 210 -75.5 320t-219.5 110 q-143 0 -219 -110.5t-76 -319.5z" />
<glyph unicode="&#xd5;" horiz-adv-x="1359" d="M63 721q0 335 168 536t449 201q282 0 449 -201t167 -536q0 -345 -165.5 -545.5t-450.5 -200.5t-451 200.5t-166 545.5zM252 1556q0 146 59.5 226t167.5 80q56 0 118.5 -22.5t115.5 -45t86 -22.5q60 0 69 90l240 -29q0 -151 -62 -234t-176 -83q-57 0 -120 23t-115.5 46 t-83.5 23q-61 0 -70 -92zM385 721q0 -216 75 -327t220 -111t220 111t75 327q0 210 -75.5 320t-219.5 110q-143 0 -219 -110.5t-76 -319.5z" />
<glyph unicode="&#xd6;" horiz-adv-x="1359" d="M63 721q0 335 168 536t449 201q282 0 449 -201t167 -536q0 -345 -165.5 -545.5t-450.5 -200.5t-451 200.5t-166 545.5zM233 1673q0 73 51.5 124.5t125.5 51.5q72 0 123 -51.5t51 -124.5q0 -72 -51 -123t-123 -51q-73 0 -125 51t-52 123zM385 721q0 -216 75 -327t220 -111 t220 111t75 327q0 210 -75.5 320t-219.5 110q-143 0 -219 -110.5t-76 -319.5zM778 1673q0 73 51 124.5t125 51.5q72 0 123 -51.5t51 -124.5q0 -72 -51 -123t-123 -51q-73 0 -124.5 51t-51.5 123z" />
<glyph unicode="&#xd8;" horiz-adv-x="1359" d="M-84 0l240 289q-93 184 -93 432q0 335 168 536t449 201q207 0 354 -110l72 86h340l-242 -291q92 -179 92 -422q0 -345 -165.5 -545.5t-450.5 -200.5q-205 0 -354 109l-70 -84h-340zM385 721q0 -71 10 -143l441 528q-62 45 -156 45q-143 0 -219 -110.5t-76 -319.5z M526 326q64 -43 154 -43q145 0 220 111t75 327q0 68 -10 133z" />
<glyph unicode="&#xd9;" horiz-adv-x="1388" d="M139 537v897h310v-897q0 -120 64.5 -187t180.5 -67q117 0 180.5 67t63.5 187v897h311v-897q0 -255 -151.5 -408.5t-403.5 -153.5q-253 0 -404 153.5t-151 408.5zM354 1819h375l180 -303h-311z" />
<glyph unicode="&#xda;" horiz-adv-x="1388" d="M139 537v897h310v-897q0 -120 64.5 -187t180.5 -67q117 0 180.5 67t63.5 187v897h311v-897q0 -255 -151.5 -408.5t-403.5 -153.5q-253 0 -404 153.5t-151 408.5zM526 1516l181 303h374l-243 -303h-312z" />
<glyph unicode="&#xdb;" horiz-adv-x="1388" d="M139 537v897h310v-897q0 -120 64.5 -187t180.5 -67q117 0 180.5 67t63.5 187v897h311v-897q0 -255 -151.5 -408.5t-403.5 -153.5q-253 0 -404 153.5t-151 408.5zM272 1516l215 303h414l215 -303h-295l-127 192l-127 -192h-295z" />
<glyph unicode="&#xdc;" horiz-adv-x="1388" d="M139 537v897h310v-897q0 -120 64.5 -187t180.5 -67q117 0 180.5 67t63.5 187v897h311v-897q0 -255 -151.5 -408.5t-403.5 -153.5q-253 0 -404 153.5t-151 408.5zM246 1673q0 73 51 124.5t125 51.5q72 0 123 -51.5t51 -124.5q0 -72 -51 -123t-123 -51q-73 0 -124.5 51 t-51.5 123zM791 1673q0 73 51.5 124.5t124.5 51.5q72 0 123 -51.5t51 -124.5q0 -72 -51 -123t-123 -51q-73 0 -124.5 51t-51.5 123z" />
<glyph unicode="&#xdd;" horiz-adv-x="1275" d="M29 1434h336l274 -572l272 572h336l-454 -850v-584h-310v584zM471 1516l180 303h375l-244 -303h-311z" />
<glyph unicode="&#xde;" horiz-adv-x="1241" d="M156 0v1434h309v-222h211q232 0 374 -127t142 -337q0 -207 -142.5 -335t-373.5 -128h-211v-285h-309zM465 563h211q95 0 149 49.5t54 135.5t-54 136t-149 50h-211v-371z" />
<glyph unicode="&#xdf;" horiz-adv-x="1243" d="M131 0v981q0 229 139 361.5t383 132.5q226 0 360 -112.5t134 -301.5q0 -121 -59.5 -205t-165.5 -113q108 -28 176.5 -125t68.5 -227q0 -198 -117 -307t-329 -109q-149 0 -225 45l53 259q53 -33 129 -33q91 0 139.5 45.5t48.5 128.5q0 186 -233 186h-74v252h78 q103 0 157 46t54 132q0 78 -52.5 123t-142.5 45q-106 0 -165.5 -60t-59.5 -167v-977h-297z" />
<glyph unicode="&#xe0;" horiz-adv-x="1114" d="M57 279q0 162 113.5 247.5t327.5 85.5q114 0 198 -34v84q0 143 -166 143q-60 0 -105.5 -28.5t-70.5 -80.5l-243 84q36 112 151 189.5t279 77.5q215 0 333.5 -103t118.5 -289v-655h-297v106q-96 -131 -305 -131q-152 0 -243 83.5t-91 220.5zM217 1475h354l185 -328h-291z M352 301q0 -54 37 -83.5t103 -29.5q89 0 146.5 54.5t57.5 138.5v8q-75 37 -166 37q-178 0 -178 -125z" />
<glyph unicode="&#xe1;" horiz-adv-x="1114" d="M57 279q0 162 113.5 247.5t327.5 85.5q114 0 198 -34v84q0 143 -166 143q-60 0 -105.5 -28.5t-70.5 -80.5l-243 84q36 112 151 189.5t279 77.5q215 0 333.5 -103t118.5 -289v-655h-297v106q-96 -131 -305 -131q-152 0 -243 83.5t-91 220.5zM352 301q0 -54 37 -83.5 t103 -29.5q89 0 146.5 54.5t57.5 138.5v8q-75 37 -166 37q-178 0 -178 -125zM412 1147l184 328h354l-248 -328h-290z" />
<glyph unicode="&#xe2;" horiz-adv-x="1114" d="M57 279q0 162 113.5 247.5t327.5 85.5q114 0 198 -34v84q0 143 -166 143q-60 0 -105.5 -28.5t-70.5 -80.5l-243 84q36 112 151 189.5t279 77.5q215 0 333.5 -103t118.5 -289v-655h-297v106q-96 -131 -305 -131q-152 0 -243 83.5t-91 220.5zM137 1147l221 328h402 l221 -328h-295l-127 209l-127 -209h-295zM352 301q0 -54 37 -83.5t103 -29.5q89 0 146.5 54.5t57.5 138.5v8q-75 37 -166 37q-178 0 -178 -125z" />
<glyph unicode="&#xe3;" horiz-adv-x="1114" d="M57 279q0 162 113.5 247.5t327.5 85.5q114 0 198 -34v84q0 143 -166 143q-60 0 -105.5 -28.5t-70.5 -80.5l-243 84q36 112 151 189.5t279 77.5q215 0 333.5 -103t118.5 -289v-655h-297v106q-96 -131 -305 -131q-152 0 -243 83.5t-91 220.5zM129 1192q0 146 59.5 225.5 t167.5 79.5q56 0 118.5 -22.5t115.5 -45t86 -22.5q60 0 69 90l240 -29q0 -151 -61.5 -234t-175.5 -83q-57 0 -120.5 23t-116 46t-83.5 23q-61 0 -70 -92zM352 301q0 -54 37 -83.5t103 -29.5q89 0 146.5 54.5t57.5 138.5v8q-75 37 -166 37q-178 0 -178 -125z" />
<glyph unicode="&#xe4;" horiz-adv-x="1114" d="M57 279q0 162 113.5 247.5t327.5 85.5q114 0 198 -34v84q0 143 -166 143q-60 0 -105.5 -28.5t-70.5 -80.5l-243 84q36 112 151 189.5t279 77.5q215 0 333.5 -103t118.5 -289v-655h-297v106q-96 -131 -305 -131q-152 0 -243 83.5t-91 220.5zM111 1337q0 72 51.5 123 t124.5 51q72 0 123 -51t51 -123q0 -73 -51 -124.5t-123 -51.5q-73 0 -124.5 51.5t-51.5 124.5zM352 301q0 -54 37 -83.5t103 -29.5q89 0 146.5 54.5t57.5 138.5v8q-75 37 -166 37q-178 0 -178 -125zM655 1337q0 72 51.5 123t124.5 51q72 0 123.5 -51t51.5 -123 q0 -73 -51.5 -124.5t-123.5 -51.5q-73 0 -124.5 51.5t-51.5 124.5z" />
<glyph unicode="&#xe5;" horiz-adv-x="1114" d="M57 279q0 162 113.5 247.5t327.5 85.5q114 0 198 -34v84q0 143 -166 143q-60 0 -105.5 -28.5t-70.5 -80.5l-243 84q36 112 151 189.5t279 77.5q215 0 333.5 -103t118.5 -289v-655h-297v106q-96 -131 -305 -131q-152 0 -243 83.5t-91 220.5zM291 1362q0 106 75 174t193 68 q117 0 191.5 -68t74.5 -174q0 -105 -74.5 -172.5t-191.5 -67.5q-118 0 -193 67.5t-75 172.5zM352 301q0 -54 37 -83.5t103 -29.5q89 0 146.5 54.5t57.5 138.5v8q-75 37 -166 37q-178 0 -178 -125zM485 1362q0 -34 21 -55t53 -21t53 21t21 55t-21 56t-53 22t-53 -22t-21 -56z " />
<glyph unicode="&#xe6;" horiz-adv-x="1781" d="M57 279q0 162 113.5 247.5t327.5 85.5h198v50q0 69 -40 106t-115 37q-72 0 -122 -43t-59 -113l-266 60q17 148 143 243t304 95q225 0 346 -115q140 115 336 115q229 0 361 -139.5t132 -381.5q0 -41 -6 -84h-713q15 -101 75.5 -155t158.5 -54q80 0 141 43.5t84 116.5 l266 -88q-41 -147 -177.5 -238.5t-313.5 -91.5q-116 0 -216.5 41t-172.5 115q-88 -86 -181 -121t-225 -35q-177 0 -278 81.5t-101 222.5zM352 301q0 -54 37 -83.5t103 -29.5q89 0 146.5 54.5t57.5 138.5v45h-166q-178 0 -178 -125zM1006 618h417q-9 82 -60.5 126t-139.5 44 q-85 0 -140 -43.5t-77 -126.5z" />
<glyph unicode="&#xe7;" horiz-adv-x="1132" d="M57 510q0 233 152 385t385 152q182 0 313 -95t172 -256l-268 -84q-23 75 -80.5 117.5t-136.5 42.5q-107 0 -172.5 -72t-65.5 -190q0 -117 66 -188.5t172 -71.5q81 0 141.5 43t83.5 117l266 -88q-37 -140 -157 -235t-279 -110l-16 -34q203 -27 203 -172q0 -87 -63.5 -134 t-178.5 -47q-121 0 -207 41l43 160q64 -33 121 -33q61 0 61 39q0 23 -21.5 32t-74.5 9l-61 72l28 76q-190 35 -308 179t-118 345z" />
<glyph unicode="&#xe8;" horiz-adv-x="1136" d="M57 510q0 233 150 385t379 152t361 -139.5t132 -381.5q0 -54 -6 -84h-725q15 -104 79 -161.5t167 -57.5q131 0 199 96l225 -147q-67 -91 -179.5 -144t-244.5 -53q-234 0 -385.5 151.5t-151.5 383.5zM231 1475h355l184 -328h-291zM358 623h441q-12 85 -68 132.5t-145 47.5 q-84 0 -143.5 -47.5t-84.5 -132.5z" />
<glyph unicode="&#xe9;" horiz-adv-x="1136" d="M57 510q0 233 150 385t379 152t361 -139.5t132 -381.5q0 -54 -6 -84h-725q15 -104 79 -161.5t167 -57.5q131 0 199 96l225 -147q-67 -91 -179.5 -144t-244.5 -53q-234 0 -385.5 151.5t-151.5 383.5zM358 623h441q-12 85 -68 132.5t-145 47.5q-84 0 -143.5 -47.5 t-84.5 -132.5zM426 1147l184 328h355l-248 -328h-291z" />
<glyph unicode="&#xea;" horiz-adv-x="1136" d="M57 510q0 233 150 385t379 152t361 -139.5t132 -381.5q0 -54 -6 -84h-725q15 -104 79 -161.5t167 -57.5q131 0 199 96l225 -147q-67 -91 -179.5 -144t-244.5 -53q-234 0 -385.5 151.5t-151.5 383.5zM152 1147l221 328h401l221 -328h-295l-127 209l-127 -209h-294z M358 623h441q-12 85 -68 132.5t-145 47.5q-84 0 -143.5 -47.5t-84.5 -132.5z" />
<glyph unicode="&#xeb;" horiz-adv-x="1136" d="M57 510q0 233 150 385t379 152t361 -139.5t132 -381.5q0 -54 -6 -84h-725q15 -104 79 -161.5t167 -57.5q131 0 199 96l225 -147q-67 -91 -179.5 -144t-244.5 -53q-234 0 -385.5 151.5t-151.5 383.5zM125 1337q0 72 51.5 123t124.5 51q72 0 123 -51t51 -123 q0 -73 -51 -124.5t-123 -51.5q-73 0 -124.5 51.5t-51.5 124.5zM358 623h441q-12 85 -68 132.5t-145 47.5q-84 0 -143.5 -47.5t-84.5 -132.5zM670 1337q0 72 51.5 123t124.5 51q72 0 123 -51t51 -123q0 -73 -51 -124.5t-123 -51.5q-74 0 -125 51.5t-51 124.5z" />
<glyph unicode="&#xec;" horiz-adv-x="559" d="M-61 1475h354l184 -328h-291zM131 0v1022h297v-1022h-297z" />
<glyph unicode="&#xed;" horiz-adv-x="559" d="M131 0v1022h297v-1022h-297zM133 1147l184 328h355l-248 -328h-291z" />
<glyph unicode="&#xee;" horiz-adv-x="559" d="M-100 1147l192 328h377l193 -328h-283l-100 192l-97 -192h-282zM131 0v1022h297v-1022h-297z" />
<glyph unicode="&#xef;" horiz-adv-x="559" d="M-113 1337q0 72 51.5 123t124.5 51q72 0 123.5 -51t51.5 -123q0 -73 -51.5 -124.5t-123.5 -51.5q-73 0 -124.5 51.5t-51.5 124.5zM131 0v1022h297v-1022h-297zM322 1337q0 72 51.5 123t124.5 51q72 0 123 -51t51 -123q0 -73 -51 -124.5t-123 -51.5q-74 0 -125 51.5 t-51 124.5z" />
<glyph unicode="&#xf0;" horiz-adv-x="1212" d="M57 465q0 201 124 327t325 126q105 0 193 -37t135 -101q0 184 -142 310l-446 -168v188l241 90q-110 35 -241 35v240q341 0 575 -150l328 123v-188l-176 -66q176 -200 176 -514q0 -337 -150.5 -521t-427.5 -184q-230 0 -372 135.5t-142 354.5zM373 465q0 -95 61 -154 t158 -59t158 59t61 154q0 92 -61 150.5t-158 58.5t-158 -58.5t-61 -150.5z" />
<glyph unicode="&#xf1;" d="M131 0v1022h297v-127q36 67 113.5 109.5t165.5 42.5q170 0 268 -107.5t98 -296.5v-643h-297v592q0 86 -45 134t-127 48q-78 0 -127 -51.5t-49 -134.5v-588h-297zM168 1192q0 146 59.5 225.5t167.5 79.5q56 0 118.5 -22.5t115.5 -45t86 -22.5q60 0 69 90l240 -29 q0 -151 -62 -234t-176 -83q-57 0 -120 23t-115.5 46t-83.5 23q-61 0 -70 -92z" />
<glyph unicode="&#xf2;" d="M57 510q0 232 154 384.5t387 152.5q152 0 275.5 -69.5t193.5 -192.5t70 -275q0 -230 -153.5 -382.5t-385.5 -152.5q-233 0 -387 152.5t-154 382.5zM256 1475h354l185 -328h-291zM356 510q0 -115 67.5 -187.5t174.5 -72.5t173.5 71.5t66.5 188.5t-66.5 189.5t-173.5 72.5 q-108 0 -175 -72t-67 -190z" />
<glyph unicode="&#xf3;" d="M57 510q0 232 154 384.5t387 152.5q152 0 275.5 -69.5t193.5 -192.5t70 -275q0 -230 -153.5 -382.5t-385.5 -152.5q-233 0 -387 152.5t-154 382.5zM356 510q0 -115 67.5 -187.5t174.5 -72.5t173.5 71.5t66.5 188.5t-66.5 189.5t-173.5 72.5q-108 0 -175 -72t-67 -190z M451 1147l184 328h354l-248 -328h-290z" />
<glyph unicode="&#xf4;" d="M57 510q0 232 154 384.5t387 152.5q152 0 275.5 -69.5t193.5 -192.5t70 -275q0 -230 -153.5 -382.5t-385.5 -152.5q-233 0 -387 152.5t-154 382.5zM176 1147l221 328h402l221 -328h-295l-127 209l-127 -209h-295zM356 510q0 -115 67.5 -187.5t174.5 -72.5t173.5 71.5 t66.5 188.5t-66.5 189.5t-173.5 72.5q-108 0 -175 -72t-67 -190z" />
<glyph unicode="&#xf5;" d="M57 510q0 232 154 384.5t387 152.5q152 0 275.5 -69.5t193.5 -192.5t70 -275q0 -230 -153.5 -382.5t-385.5 -152.5q-233 0 -387 152.5t-154 382.5zM170 1192q0 146 59.5 225.5t167.5 79.5q56 0 118.5 -22.5t115.5 -45t86 -22.5q60 0 69 90l240 -29q0 -151 -62 -234 t-176 -83q-57 0 -120 23t-115.5 46t-83.5 23q-61 0 -70 -92zM356 510q0 -115 67.5 -187.5t174.5 -72.5t173.5 71.5t66.5 188.5t-66.5 189.5t-173.5 72.5q-108 0 -175 -72t-67 -190z" />
<glyph unicode="&#xf6;" d="M57 510q0 232 154 384.5t387 152.5q152 0 275.5 -69.5t193.5 -192.5t70 -275q0 -230 -153.5 -382.5t-385.5 -152.5q-233 0 -387 152.5t-154 382.5zM150 1337q0 72 51.5 123t124.5 51q72 0 123 -51t51 -123q0 -73 -51 -124.5t-123 -51.5q-74 0 -125 51.5t-51 124.5z M356 510q0 -115 67.5 -187.5t174.5 -72.5t173.5 71.5t66.5 188.5t-66.5 189.5t-173.5 72.5q-108 0 -175 -72t-67 -190zM694 1337q0 72 51.5 123t124.5 51q72 0 123 -51t51 -123q0 -73 -51 -124.5t-123 -51.5q-74 0 -125 51.5t-51 124.5z" />
<glyph unicode="&#xf7;" horiz-adv-x="1228" d="M121 514v256h966v-256h-966zM434 209q0 69 50 119.5t120 50.5t120 -50.5t50 -119.5q0 -71 -50 -121.5t-120 -50.5t-120 50.5t-50 121.5zM434 1075q0 71 50 120.5t120 49.5t120 -49.5t50 -120.5t-50 -120.5t-120 -49.5t-120 49.5t-50 120.5z" />
<glyph unicode="&#xf8;" d="M43 0l137 162q-123 145 -123 348q0 232 154 384.5t387 152.5q150 0 274 -70l37 45h244l-137 -162q121 -146 121 -350q0 -230 -153.5 -382.5t-385.5 -152.5q-147 0 -274 68l-37 -43h-244zM356 510q0 -57 21 -115l307 363q-35 14 -86 14q-108 0 -175 -72t-67 -190zM510 264 q38 -14 88 -14q107 0 173.5 71.5t66.5 188.5q0 57 -21 115z" />
<glyph unicode="&#xf9;" d="M121 379v643h297v-592q0 -86 45 -134t127 -48q78 0 127 51.5t49 134.5v588h297v-1022h-297v127q-36 -67 -113.5 -109.5t-165.5 -42.5q-170 0 -268 107.5t-98 296.5zM266 1475h355l184 -328h-291z" />
<glyph unicode="&#xfa;" d="M121 379v643h297v-592q0 -86 45 -134t127 -48q78 0 127 51.5t49 134.5v588h297v-1022h-297v127q-36 -67 -113.5 -109.5t-165.5 -42.5q-170 0 -268 107.5t-98 296.5zM461 1147l184 328h354l-247 -328h-291z" />
<glyph unicode="&#xfb;" d="M121 379v643h297v-592q0 -86 45 -134t127 -48q78 0 127 51.5t49 134.5v588h297v-1022h-297v127q-36 -67 -113.5 -109.5t-165.5 -42.5q-170 0 -268 107.5t-98 296.5zM186 1147l222 328h401l221 -328h-295l-127 209l-127 -209h-295z" />
<glyph unicode="&#xfc;" d="M121 379v643h297v-592q0 -86 45 -134t127 -48q78 0 127 51.5t49 134.5v588h297v-1022h-297v127q-36 -67 -113.5 -109.5t-165.5 -42.5q-170 0 -268 107.5t-98 296.5zM160 1337q0 72 51.5 123t124.5 51q72 0 123 -51t51 -123q0 -73 -51 -124.5t-123 -51.5q-74 0 -125 51.5 t-51 124.5zM705 1337q0 72 51.5 123t124.5 51q72 0 123 -51t51 -123q0 -73 -51 -124.5t-123 -51.5q-73 0 -124.5 51.5t-51.5 124.5z" />
<glyph unicode="&#xfd;" horiz-adv-x="1159" d="M18 1022h330l242 -672l223 672h328l-459 -1124q-72 -174 -173 -253t-253 -79q-147 0 -211 45l51 239q50 -24 119 -24q73 0 116.5 31t82.5 108l28 58zM432 1147l184 328h355l-248 -328h-291z" />
<glyph unicode="&#xfe;" horiz-adv-x="1257" d="M131 -410v1885h297v-568q40 63 120.5 101.5t176.5 38.5q214 0 344.5 -147t130.5 -388q0 -243 -130.5 -390t-344.5 -147q-96 0 -177 35.5t-120 93.5v-514h-297zM418 512q0 -117 67.5 -189.5t173.5 -72.5t174 73.5t68 188.5t-68 187.5t-174 72.5t-173.5 -72.5t-67.5 -187.5 z" />
<glyph unicode="&#xff;" horiz-adv-x="1159" d="M18 1022h330l242 -672l223 672h328l-459 -1124q-72 -174 -173 -253t-253 -79q-147 0 -211 45l51 239q50 -24 119 -24q73 0 116.5 31t82.5 108l28 58zM131 1337q0 72 51.5 123t124.5 51q72 0 123 -51t51 -123q0 -73 -51 -124.5t-123 -51.5q-73 0 -124.5 51.5t-51.5 124.5z M676 1337q0 72 51.5 123t124.5 51q72 0 123 -51t51 -123q0 -73 -51 -124.5t-123 -51.5q-74 0 -125 51.5t-51 124.5z" />
<glyph unicode="&#x131;" horiz-adv-x="559" d="M131 0v1022h297v-1022h-297z" />
<glyph unicode="&#x152;" horiz-adv-x="1961" d="M63 723q0 326 200 518.5t538 192.5h1044v-295h-567v-275h537v-282h-537v-287h577v-295h-1054q-338 0 -538 196.5t-200 526.5zM385 723q0 -199 111 -313.5t305 -114.5h168v844h-168q-193 0 -304.5 -112t-111.5 -304z" />
<glyph unicode="&#x153;" horiz-adv-x="1916" d="M57 510q0 232 154 384.5t387 152.5t387 -154q151 154 381 154q229 0 361.5 -140t132.5 -381q0 -49 -7 -84h-720l-3 -12q19 -100 81.5 -153.5t162.5 -53.5q131 0 199 96l225 -147q-67 -91 -179.5 -144t-244.5 -53q-235 0 -389 154q-154 -154 -387 -154t-387 152.5 t-154 382.5zM356 510q0 -115 67.5 -187.5t174.5 -72.5t173.5 71.5t66.5 188.5t-66.5 189.5t-173.5 72.5q-108 0 -175 -72t-67 -190zM1139 623h440q-12 85 -68 132.5t-145 47.5q-84 0 -143 -47.5t-84 -132.5z" />
<glyph unicode="&#x178;" horiz-adv-x="1275" d="M29 1434h336l274 -572l272 572h336l-454 -850v-584h-310v584zM190 1673q0 73 51.5 124.5t125.5 51.5q72 0 123 -51.5t51 -124.5q0 -72 -51 -123t-123 -51q-73 0 -125 51t-52 123zM735 1673q0 73 51.5 124.5t124.5 51.5q72 0 123 -51.5t51 -124.5q0 -72 -51 -123t-123 -51 q-73 0 -124.5 51t-51.5 123z" />
<glyph unicode="&#x2c6;" horiz-adv-x="1048" d="M102 1147l222 328h401l221 -328h-295l-127 209l-127 -209h-295z" />
<glyph unicode="&#x2c7;" horiz-adv-x="1048" d="M102 1475h295l127 -209l127 209h295l-221 -328h-401z" />
<glyph unicode="&#x2d8;" horiz-adv-x="925" d="M102 1475h240q0 -69 31.5 -106.5t89.5 -37.5t89.5 37.5t31.5 106.5h239q0 -148 -99.5 -238t-260.5 -90q-162 0 -261.5 90.5t-99.5 237.5z" />
<glyph unicode="&#x2d9;" horiz-adv-x="555" d="M102 1337q0 72 52 123t125 51q72 0 123 -51t51 -123q0 -73 -51 -124.5t-123 -51.5q-74 0 -125.5 51.5t-51.5 124.5z" />
<glyph unicode="&#x2da;" horiz-adv-x="739" d="M102 1362q0 106 75.5 174t193.5 68q117 0 191.5 -68t74.5 -174q0 -105 -74.5 -172.5t-191.5 -67.5q-118 0 -193.5 67.5t-75.5 172.5zM297 1362q0 -34 21 -55t53 -21t52.5 21t20.5 55t-20.5 56t-52.5 22t-53 -22t-21 -56z" />
<glyph unicode="&#x2db;" horiz-adv-x="665" d="M102 -215q0 100 86 173t228 95l104 -53q-84 -29 -133 -73.5t-49 -90.5q0 -65 84 -65q54 0 98 20l43 -160q-83 -41 -207 -41q-117 0 -185.5 51t-68.5 144z" />
<glyph unicode="&#x2dc;" horiz-adv-x="1060" d="M102 1192q0 146 60 225.5t168 79.5q56 0 118.5 -22.5t115 -45t85.5 -22.5q61 0 70 90l239 -29q0 -151 -61.5 -234t-175.5 -83q-57 0 -120.5 23t-116 46t-83.5 23q-60 0 -69 -92z" />
<glyph unicode="&#x2dd;" horiz-adv-x="1189" d="M102 1147l185 328h354l-248 -328h-291zM549 1147l184 328h354l-247 -328h-291z" />
<glyph unicode="&#x2000;" horiz-adv-x="969" />
<glyph unicode="&#x2001;" horiz-adv-x="1939" />
<glyph unicode="&#x2002;" horiz-adv-x="969" />
<glyph unicode="&#x2003;" horiz-adv-x="1939" />
<glyph unicode="&#x2004;" horiz-adv-x="646" />
<glyph unicode="&#x2005;" horiz-adv-x="484" />
<glyph unicode="&#x2006;" horiz-adv-x="323" />
<glyph unicode="&#x2007;" horiz-adv-x="323" />
<glyph unicode="&#x2008;" horiz-adv-x="242" />
<glyph unicode="&#x2009;" horiz-adv-x="387" />
<glyph unicode="&#x200a;" horiz-adv-x="107" />
<glyph unicode="&#x2010;" horiz-adv-x="856" d="M104 463v278h648v-278h-648z" />
<glyph unicode="&#x2011;" horiz-adv-x="856" d="M104 463v278h648v-278h-648z" />
<glyph unicode="&#x2012;" horiz-adv-x="856" d="M104 463v278h648v-278h-648z" />
<glyph unicode="&#x2013;" horiz-adv-x="1150" d="M104 463v278h943v-278h-943z" />
<glyph unicode="&#x2014;" horiz-adv-x="1796" d="M104 463v278h1588v-278h-1588z" />
<glyph unicode="&#x2018;" horiz-adv-x="604" d="M86 985q0 126 48.5 231t143.5 171t220 71l20 -145q-98 -9 -174.5 -62t-103.5 -123q33 11 59 11q87 0 143 -57.5t56 -139.5q0 -85 -55 -142t-142 -57q-99 0 -157 67t-58 175z" />
<glyph unicode="&#x2019;" horiz-adv-x="604" d="M86 889q98 9 175 61.5t104 122.5q-30 -10 -60 -10q-87 0 -143 57.5t-56 139.5q0 84 55 141t142 57q99 0 157 -66.5t58 -174.5q0 -126 -48.5 -231t-143.5 -171.5t-220 -71.5z" />
<glyph unicode="&#x201a;" horiz-adv-x="624" d="M86 -190q98 9 175 61.5t104 122.5q-30 -10 -60 -10q-87 0 -143 57.5t-56 138.5q0 85 55 142t142 57q99 0 157 -67t58 -175q0 -126 -48.5 -231t-143.5 -171t-220 -71z" />
<glyph unicode="&#x201c;" horiz-adv-x="1103" d="M86 985q0 126 48.5 231t143.5 171t220 71l20 -145q-98 -9 -174.5 -62t-103.5 -123q33 11 59 11q87 0 143 -57.5t56 -139.5q0 -85 -55 -142t-142 -57q-99 0 -157 67t-58 175zM586 985q0 126 48 231t143 171t220 71l21 -145q-98 -9 -175 -62t-104 -123q33 11 60 11 q87 0 142.5 -57.5t55.5 -139.5q0 -85 -55 -142t-141 -57q-99 0 -157 67t-58 175z" />
<glyph unicode="&#x201d;" horiz-adv-x="1103" d="M86 889q98 9 175 61.5t104 122.5q-30 -10 -60 -10q-87 0 -143 57.5t-56 139.5q0 84 55 141t142 57q99 0 157 -66.5t58 -174.5q0 -126 -48.5 -231t-143.5 -171.5t-220 -71.5zM586 889q98 9 174.5 61.5t103.5 122.5q-30 -10 -59 -10q-87 0 -143 57.5t-56 139.5q0 84 55 141 t142 57q99 0 157 -66.5t58 -174.5q0 -126 -48.5 -231t-143.5 -171.5t-220 -71.5z" />
<glyph unicode="&#x201e;" horiz-adv-x="1124" d="M86 -190q98 9 175 61.5t104 122.5q-30 -10 -60 -10q-87 0 -143 57.5t-56 138.5q0 85 55 142t142 57q99 0 157 -67t58 -175q0 -126 -48.5 -231t-143.5 -171t-220 -71zM586 -190q98 9 174.5 61.5t103.5 122.5q-30 -10 -59 -10q-87 0 -143 57.5t-56 138.5q0 85 55 142 t142 57q99 0 157 -67t58 -175q0 -126 -48.5 -231t-143.5 -171t-220 -71z" />
<glyph unicode="&#x2020;" horiz-adv-x="712" d="M59 1096v200h185v179h229v-179h180v-200h-180v-482h-229v482h-185z" />
<glyph unicode="&#x2021;" horiz-adv-x="712" d="M59 793v188h185v127h-185v188h185v179h229v-179h180v-188h-180v-127h180v-188h-180v-179h-229v179h-185z" />
<glyph unicode="&#x2022;" horiz-adv-x="831" d="M127 659q0 122 86 207.5t207 85.5q122 0 206.5 -85t84.5 -208q0 -119 -85 -204.5t-206 -85.5q-120 0 -206.5 85.5t-86.5 204.5z" />
<glyph unicode="&#x2026;" horiz-adv-x="2021" d="M106 180q0 83 58.5 141t140.5 58t139.5 -58t57.5 -141q0 -80 -58 -138t-139 -58q-82 0 -140.5 58t-58.5 138zM807 180q0 83 58.5 141t140.5 58t139 -58t57 -141q0 -80 -57.5 -138t-138.5 -58q-82 0 -140.5 58t-58.5 138zM1520 180q0 83 58 141t140 58t139.5 -58 t57.5 -141q0 -80 -58 -138t-139 -58t-139.5 58t-58.5 138z" />
<glyph unicode="&#x202f;" horiz-adv-x="387" />
<glyph unicode="&#x2039;" horiz-adv-x="763" d="M76 522l307 420h326l-308 -420l308 -420h-326z" />
<glyph unicode="&#x203a;" horiz-adv-x="763" d="M55 102l307 420l-307 420h326l307 -420l-307 -420h-326z" />
<glyph unicode="&#x205f;" horiz-adv-x="484" />
<glyph unicode="&#x20ac;" horiz-adv-x="1384" d="M0 471l41 188h88l-2 62v41h-127l41 188h111q51 238 206.5 373t384.5 135q245 0 396 -151t166 -412h-316q-15 130 -75.5 193t-170.5 63q-196 0 -262 -201h332l-41 -188h-323v-41l2 -62h362l-41 -188h-287q68 -188 258 -188q114 0 176.5 58.5t84.5 184.5h317 q-23 -258 -177.5 -404.5t-400.5 -146.5q-227 0 -381 130.5t-208 365.5h-154z" />
<glyph unicode="&#x2122;" horiz-adv-x="1947" d="M31 1221v213h678v-213h-228v-607h-223v607h-227zM823 614v820h383l123 -580l144 580h362v-820h-223v611l-133 -611h-299l-133 611v-611h-224z" />
<glyph unicode="&#x2260;" horiz-adv-x="1228" d="M127 215v256h270l133 342h-403v256h504l84 215h293l-84 -215h170v-256h-271l-133 -342h404v-256h-504l-84 -215h-293l84 215h-170z" />
<glyph unicode="&#x25fc;" horiz-adv-x="1024" d="M0 0v1024h1024v-1024h-1024z" />
<glyph unicode="&#xf8ff;" horiz-adv-x="2252" d="M205 -410v1844h1843v-1844h-1843zM397 68h140l63 186h371l61 -186h146l-306 852h-167zM639 373l145 424h4l146 -424h-295zM1171 578h117v-334q0 -176 176 -176h121v106h-98q-62 0 -62 57v347h160v110h-160v182h-129v-141q0 -41 -43 -41h-82v-110zM1634 782 q0 -64 40.5 -104.5t105.5 -40.5q64 0 104.5 40.5t40.5 104.5t-40 104t-105 40q-66 0 -106 -39.5t-40 -104.5zM1673 782q0 109 107 109q106 0 106 -109q0 -110 -106 -110q-107 0 -107 110zM1716 705h43v53h23l26 -53h45l-32 59q26 12 26 45q0 49 -53 49h-78v-153zM1759 786 v43h27q22 0 22 -20q0 -9 -6 -16t-16 -7h-27z" />
</font>
</defs>
</svg>
