<?xml version="1.0" standalone="no"?>
<!DOCTYPE svg PUBLIC "-//W3C//DTD SVG 1.1//EN" "http://www.w3.org/Graphics/SVG/1.1/DTD/svg11.dtd" >
<svg xmlns="http://www.w3.org/2000/svg" xmlns:xlink="http://www.w3.org/1999/xlink" version="1.1">
<metadata></metadata>
<defs>
<font id="misti_fontmedium" horiz-adv-x="1382" >
<font-face units-per-em="2048" ascent="1638" descent="-410" />
<missing-glyph horiz-adv-x="487" />
<glyph unicode="&#xfb01;" horiz-adv-x="1218" d="M29 809v197h190v133q0 163 87.5 260.5t234.5 97.5q110 0 178 -45l-66 -172q-33 20 -80 20q-63 0 -98 -42.5t-35 -118.5v-133h228v-197h-228v-809h-221v809h-190zM823 1356q0 61 42 103t104 42q61 0 103 -41.5t42 -103.5t-42 -104t-103 -42t-103.5 42t-42.5 104zM858 0 v1006h221v-1006h-221z" />
<glyph unicode="&#xfb02;" horiz-adv-x="1259" d="M29 809v197h190v133q0 163 87.5 260.5t234.5 97.5q110 0 178 -45l-66 -172q-33 20 -80 20q-63 0 -98 -42.5t-35 -118.5v-133h228v-197h-228v-809h-221v809h-190zM899 0v1475h221v-1475h-221z" />
<glyph horiz-adv-x="0" />
<glyph horiz-adv-x="682" />
<glyph unicode="&#xd;" horiz-adv-x="487" />
<glyph unicode=" "  horiz-adv-x="487" />
<glyph unicode="&#x09;" horiz-adv-x="487" />
<glyph unicode="&#xa0;" horiz-adv-x="487" />
<glyph unicode="!" horiz-adv-x="540" d="M111 145q0 67 46.5 114.5t112.5 47.5t113 -47.5t47 -114.5q0 -65 -47 -112t-113 -47t-112.5 47t-46.5 112zM156 424v1010h233v-1010h-233z" />
<glyph unicode="&#x22;" horiz-adv-x="950" d="M152 1434h229l-12 -557h-205zM567 1434h230l-13 -557h-204z" />
<glyph unicode="#" horiz-adv-x="1560" d="M20 317v189h279l143 409h-233v189h301l115 330h219l-115 -330h391l115 330h219l-115 -330h201v-189h-268l-144 -409h224v-189h-289l-111 -317h-219l111 317h-391l-111 -317h-219l110 317h-213zM518 506h391l144 409h-391z" />
<glyph unicode="$" horiz-adv-x="1165" d="M72 422l223 47q10 -133 95.5 -208t223.5 -75q114 0 179 56.5t65 154.5q0 148 -186 191l-189 43q-174 40 -265 142.5t-91 262.5q0 155 95.5 266.5t252.5 143.5v151h213v-147q155 -22 255 -111.5t138 -242.5l-217 -72q-20 104 -92 163.5t-178 59.5q-114 0 -173 -52.5 t-59 -152.5q0 -145 170 -188l187 -43q375 -82 375 -410q0 -169 -111.5 -283t-294.5 -136v-146h-213v154q-172 32 -277.5 145t-125.5 287z" />
<glyph unicode="%" horiz-adv-x="1931" d="M57 1055q0 173 114 287t286 114q171 0 284 -114t113 -287q0 -172 -113.5 -286t-283.5 -114q-172 0 -286 114t-114 286zM254 1055q0 -95 57.5 -158t145.5 -63t145 63t57 158q0 98 -57 161.5t-145 63.5t-145.5 -63.5t-57.5 -161.5zM397 0l912 1434h237l-911 -1434h-238z M1075 367q0 172 114 286.5t286 114.5t285.5 -114.5t113.5 -286.5q0 -173 -113.5 -287.5t-285.5 -114.5t-286 114.5t-114 287.5zM1272 367q0 -95 58.5 -159.5t144.5 -64.5q87 0 144.5 64t57.5 160q0 97 -57 160t-145 63q-87 0 -145 -63.5t-58 -159.5z" />
<glyph unicode="&#x26;" horiz-adv-x="1372" d="M121 406q0 134 71.5 247.5t176.5 155.5q-71 53 -113.5 128t-42.5 159q0 158 110 259t281 101q169 0 279 -101t110 -259q0 -102 -56 -188t-149 -132l199 -287l121 304h221l-205 -502l201 -291h-250l-86 125q-64 -68 -164.5 -108t-214.5 -40q-225 0 -357 116t-132 313z M348 428q0 -111 72 -176.5t196 -65.5q166 0 256 107l-284 414q-94 -2 -167 -85.5t-73 -193.5zM418 1083q0 -80 52 -131t134 -51q81 0 132.5 51t51.5 131q0 78 -52.5 129.5t-131.5 51.5q-81 0 -133.5 -51.5t-52.5 -129.5z" />
<glyph unicode="'" horiz-adv-x="532" d="M152 1434h229l-12 -557h-205z" />
<glyph unicode="(" horiz-adv-x="677" d="M170 567q0 297 89.5 570.5t238.5 429.5l170 -119q-124 -133 -202.5 -378.5t-78.5 -502.5q0 -256 78 -501t203 -379l-170 -119q-149 157 -238.5 429.5t-89.5 569.5z" />
<glyph unicode=")" horiz-adv-x="677" d="M10 -313q125 134 203 379t78 501q0 257 -78.5 502.5t-202.5 378.5l170 119q149 -156 238.5 -429.5t89.5 -570.5t-89.5 -569.5t-238.5 -429.5z" />
<glyph unicode="*" horiz-adv-x="901" d="M51 897l250 127l-250 127l90 156l234 -152l-15 279h181l-17 -281l236 154l90 -156l-248 -127l248 -127l-90 -156l-236 154l17 -281h-181l15 279l-234 -152z" />
<glyph unicode="+" horiz-adv-x="1228" d="M129 545v194h375v357h205v-357h370v-194h-370v-379h-205v379h-375z" />
<glyph unicode="," horiz-adv-x="552" d="M90 -180q82 10 144 59.5t83 116.5q-23 -10 -47 -10q-70 0 -114.5 46.5t-44.5 112.5q0 69 44 115.5t115 46.5q79 0 125.5 -55.5t46.5 -145.5q0 -164 -87 -279t-236 -130z" />
<glyph unicode="-" horiz-adv-x="851" d="M117 489v209h618v-209h-618z" />
<glyph unicode="." horiz-adv-x="540" d="M111 145q0 67 46.5 114.5t112.5 47.5t113 -47.5t47 -114.5q0 -65 -47 -112t-113 -47t-112.5 47t-46.5 112z" />
<glyph unicode="/" horiz-adv-x="851" d="M-20 -410l659 1885h233l-659 -1885h-233z" />
<glyph unicode="0" horiz-adv-x="1320" d="M76 717q0 344 156.5 541.5t426.5 197.5q274 0 430 -197.5t156 -541.5q0 -345 -156.5 -542.5t-429.5 -197.5q-270 0 -426.5 198t-156.5 542zM315 717q0 -244 90.5 -379t253.5 -135q164 0 255.5 135t91.5 379t-91.5 379t-255.5 135q-163 0 -253.5 -135t-90.5 -379z" />
<glyph unicode="1" horiz-adv-x="782" d="M51 948v250q257 105 338 236h225v-1434h-233v1145q-97 -115 -330 -197z" />
<glyph unicode="2" horiz-adv-x="1153" d="M78 0v211l551 502q102 94 145 166t43 149q0 94 -61.5 151.5t-159.5 57.5q-110 0 -180 -60t-90 -173l-232 53q38 187 171.5 293t330.5 106q212 0 336.5 -115t124.5 -313q0 -118 -62 -225.5t-207 -241.5l-366 -342h653v-219h-997z" />
<glyph unicode="3" horiz-adv-x="1226" d="M80 414l235 49q12 -128 93.5 -199t216.5 -71q121 0 192.5 59t71.5 158q0 110 -72 166.5t-209 56.5h-86v207h88q123 0 187.5 54t64.5 155q0 91 -63 141.5t-178 50.5q-113 0 -184 -56t-91 -161l-225 57q35 177 168 276t334 99q218 0 347.5 -108t129.5 -291 q0 -118 -59.5 -201.5t-163.5 -112.5q113 -28 181 -119t68 -218q0 -197 -135 -313t-364 -116q-233 0 -378.5 116t-168.5 321z" />
<glyph unicode="4" horiz-adv-x="1269" d="M78 332v258q179 195 264.5 401.5t85.5 442.5h246q0 -220 -102.5 -469.5t-256.5 -415.5h471v457h234v-457h201v-217h-201v-332h-234v332h-708z" />
<glyph unicode="5" horiz-adv-x="1177" d="M66 410l233 51q15 -130 91.5 -199t205.5 -69q126 0 202 75.5t76 200.5q0 123 -73.5 196.5t-196.5 73.5q-171 0 -262 -116l-223 69l94 742h836v-220h-654l-51 -397q51 57 133 89t178 32q212 0 334.5 -126t122.5 -343q0 -223 -141 -357.5t-373 -134.5q-221 0 -364 117 t-168 316z" />
<glyph unicode="6" horiz-adv-x="1216" d="M76 662q0 375 152.5 584.5t426.5 209.5q186 0 313 -87.5t173 -246.5l-223 -84q-23 96 -92 149.5t-171 53.5q-158 0 -250 -134t-92 -362q47 92 142 143.5t215 51.5q209 0 340 -133t131 -344q0 -214 -141.5 -350t-364.5 -136q-267 0 -413 179t-146 506zM344 463 q0 -120 77.5 -195t203.5 -75q124 0 201 75t77 195t-77 194t-201 74q-126 0 -203.5 -74t-77.5 -194z" />
<glyph unicode="7" horiz-adv-x="1107" d="M37 981v453h1034v-211q-221 -247 -336.5 -537.5t-150.5 -685.5h-250q37 378 157.5 669t329.5 545h-563v-233h-221z" />
<glyph unicode="8" horiz-adv-x="1267" d="M100 397q0 130 79.5 224t211.5 122q-126 29 -196 113.5t-70 206.5q0 175 141 284t369 109q226 0 367 -109t141 -284q0 -121 -69.5 -206t-192.5 -114q130 -28 208 -122.5t78 -223.5q0 -188 -147 -304t-385 -116q-241 0 -388 115.5t-147 304.5zM338 410q0 -96 82.5 -156.5 t214.5 -60.5q130 0 212.5 61t82.5 156q0 103 -78.5 162t-216.5 59q-140 0 -218.5 -58.5t-78.5 -162.5zM362 1042q0 -92 74 -146t199 -54q122 0 196 54t74 146q0 91 -73.5 145t-196.5 54q-126 0 -199.5 -53.5t-73.5 -145.5z" />
<glyph unicode="9" horiz-adv-x="1216" d="M76 311l223 84q23 -96 91.5 -149t170.5 -53q158 0 250 133.5t92 361.5q-47 -92 -141.5 -143t-214.5 -51q-209 0 -340 133t-131 344q0 214 141.5 349.5t364.5 135.5q267 0 413 -178.5t146 -505.5q0 -375 -153 -585t-427 -210q-186 0 -312.5 87.5t-172.5 246.5zM313 971 q0 -120 77.5 -194.5t201.5 -74.5q126 0 203 74.5t77 194.5t-77 195t-203 75q-124 0 -201.5 -75t-77.5 -195z" />
<glyph unicode=":" horiz-adv-x="540" d="M111 145q0 67 46.5 114.5t112.5 47.5t113 -47.5t47 -114.5q0 -65 -47 -112t-113 -47t-112.5 47t-46.5 112zM111 801q0 67 46.5 114.5t112.5 47.5t113 -47.5t47 -114.5q0 -65 -47 -112.5t-113 -47.5t-112.5 47.5t-46.5 112.5z" />
<glyph unicode=";" horiz-adv-x="552" d="M90 -180q82 10 144 59.5t83 116.5q-23 -10 -47 -10q-70 0 -114.5 46.5t-44.5 112.5q0 69 44 115.5t115 46.5q79 0 125.5 -55.5t46.5 -145.5q0 -164 -87 -279t-236 -130zM123 801q0 67 47 114.5t113 47.5t112.5 -47.5t46.5 -114.5q0 -65 -46.5 -112.5t-112.5 -47.5 t-113 47.5t-47 112.5z" />
<glyph unicode="&#x3c;" horiz-adv-x="1228" d="M129 539v204l950 441v-221l-727 -322l727 -322v-221z" />
<glyph unicode="=" horiz-adv-x="1228" d="M129 254v195h950v-195h-950zM129 836v194h950v-194h-950z" />
<glyph unicode="&#x3e;" horiz-adv-x="1228" d="M129 98v221l727 322l-727 322v221l950 -441v-204z" />
<glyph unicode="?" horiz-adv-x="1067" d="M55 1061q34 185 166.5 290t331.5 105q213 0 336 -108t123 -293q0 -104 -48.5 -193.5t-162.5 -193.5l-37 -33q-57 -55 -82 -91.5t-25 -66.5v-53h-233v53q0 66 38 125t142 154l35 35q72 68 102.5 125.5t30.5 127.5q0 83 -62.5 136t-160.5 53q-110 0 -179.5 -58.5 t-88.5 -166.5zM383 145q0 67 47 114.5t113 47.5t112.5 -47.5t46.5 -114.5q0 -65 -46.5 -112t-112.5 -47t-113 47t-47 112z" />
<glyph unicode="@" horiz-adv-x="1900" d="M74 461q0 188 69.5 354t189 284t287 186.5t355.5 68.5q178 0 335.5 -61.5t271 -168t179.5 -256.5t66 -319q0 -227 -101.5 -370.5t-261.5 -143.5q-104 0 -176.5 53.5t-95.5 144.5q-31 -92 -107 -144t-180 -52q-162 0 -265 118.5t-103 305.5t103.5 306.5t264.5 119.5 q85 0 147.5 -41t94.5 -119v131h199v-485q0 -160 116 -160q73 0 117.5 83t44.5 230q0 189 -82.5 334t-230 224t-336.5 79q-200 0 -358 -89.5t-246 -249t-88 -361.5q0 -315 195.5 -511t510.5 -196q111 0 216.5 29t178.5 80l76 -182q-212 -115 -471 -115q-197 0 -367 67 t-290.5 184t-189 283.5t-68.5 358.5zM743 461q0 -109 55 -174.5t146 -65.5t147 66t56 174q0 109 -56 174t-147 65t-146 -64.5t-55 -174.5z" />
<glyph unicode="A" horiz-adv-x="1312" d="M37 0l477 1434h281l481 -1434h-246l-119 379h-512l-118 -379h-244zM469 596h375l-189 596z" />
<glyph unicode="B" horiz-adv-x="1259" d="M168 0v1434h500q206 0 324 -102.5t118 -280.5q0 -102 -59.5 -188t-151.5 -120q111 -31 183.5 -126.5t72.5 -215.5q0 -189 -122.5 -295t-340.5 -106h-524zM401 207h275q117 0 179.5 54t62.5 155q0 102 -63 156.5t-181 54.5h-273v-420zM401 836h250q101 0 161 56.5 t60 151.5q0 84 -59 133.5t-160 49.5h-252v-391z" />
<glyph unicode="C" horiz-adv-x="1323" d="M76 719q0 334 168 535.5t446 201.5q226 0 374 -145t167 -387h-234q-43 307 -307 307q-177 0 -276 -136t-99 -376q0 -247 98 -381.5t277 -134.5q135 0 213 73.5t109 227.5h235q-26 -243 -177 -385t-380 -142q-283 0 -448.5 200t-165.5 542z" />
<glyph unicode="D" horiz-adv-x="1325" d="M168 0v1434h385q316 0 506 -195t190 -518q0 -327 -190.5 -524t-505.5 -197h-385zM401 219h152q209 0 333 136t124 366q0 226 -124 359.5t-333 133.5h-152v-995z" />
<glyph unicode="E" horiz-adv-x="1146" d="M168 0v1434h858v-220h-625v-380h594v-218h-594v-397h635v-219h-868z" />
<glyph unicode="F" horiz-adv-x="1079" d="M168 0v1434h821v-220h-588v-403h557v-215h-557v-596h-233z" />
<glyph unicode="G" d="M76 719q0 333 167 535t447 202q211 0 356.5 -125.5t180.5 -337.5l-234 -53q-48 291 -303 291q-177 0 -276 -136t-99 -376q0 -247 98 -381.5t277 -134.5q154 0 248 96t117 276h-344v211h596v-67q0 -344 -165.5 -543t-451.5 -199q-283 0 -448.5 200t-165.5 542z" />
<glyph unicode="H" horiz-adv-x="1376" d="M168 0v1434h233v-598h574v598h233v-1434h-233v614h-574v-614h-233z" />
<glyph unicode="I" horiz-adv-x="569" d="M168 0v1434h233v-1434h-233z" />
<glyph unicode="J" horiz-adv-x="1187" d="M109 455v84h233v-84q0 -118 61.5 -185t169.5 -67q106 0 166 67t60 185v759h-410v220h643v-979q0 -209 -129 -343.5t-330 -134.5q-212 0 -338 130t-126 348z" />
<glyph unicode="K" horiz-adv-x="1234" d="M168 0v1434h233v-662l504 662h277l-461 -600l461 -834h-267l-346 635l-168 -217v-418h-233z" />
<glyph unicode="L" horiz-adv-x="1052" d="M168 0v1434h233v-1215h594v-219h-827z" />
<glyph unicode="M" horiz-adv-x="1605" d="M168 0v1434h348l287 -918l287 918h348v-1434h-234v1098l-284 -893h-234l-285 893v-1098h-233z" />
<glyph unicode="N" horiz-adv-x="1398" d="M168 0v1434h250l579 -1024v1024h234v-1434h-250l-580 1024v-1024h-233z" />
<glyph unicode="O" d="M76 719q0 333 167 535t447 202q186 0 326.5 -92t215.5 -258.5t75 -386.5q0 -343 -166.5 -542.5t-450.5 -199.5q-283 0 -448.5 200t-165.5 542zM315 719q0 -247 98 -381.5t277 -134.5t278 134.5t99 381.5q0 240 -99.5 376t-277.5 136q-177 0 -276 -136t-99 -376z" />
<glyph unicode="P" horiz-adv-x="1191" d="M168 0v1434h481q220 0 353 -120.5t133 -318.5t-133 -318t-353 -120h-248v-557h-233zM401 770h248q116 0 182 60t66 165t-65.5 164.5t-182.5 59.5h-248v-449z" />
<glyph unicode="Q" d="M76 719q0 333 167 535t447 202q186 0 326.5 -92t215.5 -258.5t75 -386.5q0 -222 -73 -387.5t-206 -255.5l279 -281h-283l-203 195q-70 -13 -131 -13q-283 0 -448.5 200t-165.5 542zM315 719q0 -247 98 -381.5t277 -134.5t278 134.5t99 381.5q0 240 -99.5 376t-277.5 136 q-177 0 -276 -136t-99 -376z" />
<glyph unicode="R" horiz-adv-x="1245" d="M168 0v1434h502q218 0 350.5 -118.5t132.5 -314.5q0 -154 -83 -261.5t-232 -147.5l315 -592h-254l-291 571h-207v-571h-233zM401 784h269q116 0 182 58t66 159t-66.5 159.5t-181.5 58.5h-269v-435z" />
<glyph unicode="S" horiz-adv-x="1165" d="M72 422l223 47q10 -133 95.5 -208t223.5 -75q114 0 179 56.5t65 154.5q0 148 -186 191l-189 43q-174 40 -265 142.5t-91 262.5q0 183 130.5 301.5t332.5 118.5q196 0 321.5 -91.5t169.5 -268.5l-217 -72q-20 104 -92 163.5t-178 59.5q-114 0 -173 -52.5t-59 -152.5 q0 -145 170 -188l187 -43q375 -82 375 -410q0 -187 -135 -305.5t-347 -118.5q-229 0 -373 119t-167 326z" />
<glyph unicode="T" horiz-adv-x="1089" d="M31 1214v220h1028v-220h-397v-1214h-234v1214h-397z" />
<glyph unicode="U" horiz-adv-x="1366" d="M156 514v920h233v-920q0 -151 76 -231t219 -80q141 0 217 80.5t76 230.5v920h233v-920q0 -249 -141.5 -393t-384.5 -144q-245 0 -386.5 144t-141.5 393z" />
<glyph unicode="V" horiz-adv-x="1280" d="M37 1434h250l356 -1174l352 1174h248l-465 -1434h-274z" />
<glyph unicode="W" horiz-adv-x="1744" d="M37 1434h244l221 -1155l217 1155h307l217 -1155l223 1155h242l-305 -1434h-307l-226 1094l-215 -1094h-315z" />
<glyph unicode="X" horiz-adv-x="1253" d="M37 0l457 717l-437 717h271l311 -510l305 510h268l-450 -715l438 -719h-270l-312 512l-313 -512h-268z" />
<glyph unicode="Y" horiz-adv-x="1230" d="M37 1434h252l327 -623l326 623h252l-463 -836v-598h-233v598z" />
<glyph unicode="Z" horiz-adv-x="1132" d="M98 0v211l670 1003h-655v220h921v-211l-669 -1004h669v-219h-936z" />
<glyph unicode="[" horiz-adv-x="620" d="M168 -410v1954h401v-180h-188v-1593h188v-181h-401z" />
<glyph unicode="\" horiz-adv-x="851" d="M-20 1475h233l659 -1885h-233z" />
<glyph unicode="]" horiz-adv-x="620" d="M51 -229h189v1593h-189v180h402v-1954h-402v181z" />
<glyph unicode="^" horiz-adv-x="1228" d="M168 795l317 639h238l317 -639h-235l-199 446l-203 -446h-235z" />
<glyph unicode="_" horiz-adv-x="700" d="M41 0h618v-209h-618v209z" />
<glyph unicode="`" horiz-adv-x="669" d="M102 1475h281l184 -328h-217z" />
<glyph unicode="a" horiz-adv-x="1079" d="M74 276q0 160 111.5 243t326.5 83q116 0 217 -37v97q0 86 -51 130t-150 44q-75 0 -130.5 -35t-80.5 -99l-190 68q36 116 145 187t260 71q198 0 308 -97t110 -272v-659h-221v113q-46 -65 -126.5 -100.5t-182.5 -35.5q-161 0 -253.5 80t-92.5 219zM297 285 q0 -65 45.5 -102.5t126.5 -37.5q114 0 187 69t73 175v2q-96 45 -207 45q-117 0 -171 -36.5t-54 -114.5z" />
<glyph unicode="b" horiz-adv-x="1243" d="M139 0v1475h221v-613q43 74 135.5 120t200.5 46q209 0 341 -146.5t132 -379.5q0 -232 -132 -378.5t-341 -146.5q-109 0 -200 48.5t-136 128.5v-154h-221zM354 502q0 -141 83 -231.5t212 -90.5q130 0 212.5 90.5t82.5 231.5t-82.5 232t-212.5 91t-212.5 -90t-82.5 -233z " />
<glyph unicode="c" horiz-adv-x="1118" d="M74 502q0 229 145 377.5t369 148.5q171 0 295.5 -89.5t165.5 -244.5l-203 -65q-26 92 -94.5 144t-163.5 52q-129 0 -210 -90t-81 -233t81 -232.5t210 -89.5q94 0 167 52.5t99 140.5l201 -68q-43 -146 -172.5 -237t-294.5 -91q-224 0 -369 148.5t-145 376.5z" />
<glyph unicode="d" horiz-adv-x="1243" d="M74 502q0 233 132 379.5t341 146.5q108 0 200.5 -46t135.5 -120v613h221v-1475h-221v154q-45 -80 -136 -128.5t-200 -48.5q-209 0 -341 146.5t-132 378.5zM299 502q0 -141 82.5 -231.5t212.5 -90.5q129 0 212 90.5t83 231.5q0 143 -82.5 233t-212.5 90t-212.5 -91 t-82.5 -232z" />
<glyph unicode="e" horiz-adv-x="1130" d="M74 502q0 230 144 378t366 148q218 0 345.5 -136.5t127.5 -371.5q0 -51 -6 -78h-754q15 -124 93.5 -197t197.5 -73q73 0 136 33t101 92l174 -115q-65 -96 -174 -150.5t-237 -54.5q-225 0 -369.5 148.5t-144.5 376.5zM305 606h535q-14 108 -81 169t-175 61 q-103 0 -177.5 -62.5t-101.5 -167.5z" />
<glyph unicode="f" horiz-adv-x="802" d="M29 809v197h190v163q0 156 90 242t252 86q245 0 322 -199l-178 -92q-37 94 -132 94q-63 0 -98 -36t-35 -101v-157h353v-197h-353v-809h-221v809h-190z" />
<glyph unicode="g" horiz-adv-x="1243" d="M74 528q0 216 133.5 358t333.5 142q117 0 208 -47.5t134 -132.5v158h221v-924q0 -248 -132.5 -381t-383.5 -133q-177 0 -306.5 77.5t-175.5 209.5l199 82q34 -78 110.5 -124t174.5 -46q143 0 218 80t75 235v121q-42 -78 -134 -125t-208 -47q-201 0 -334 141t-133 356z M297 528q0 -132 83 -214.5t214 -82.5t214 82.5t83 214.5t-83 215.5t-214 83.5t-214 -83.5t-83 -215.5z" />
<glyph unicode="h" horiz-adv-x="1140" d="M139 0v1475h221v-615q38 76 119 122t176 46q165 0 261 -103.5t96 -283.5v-641h-221v602q0 107 -55.5 165t-157.5 58q-95 0 -156.5 -66.5t-61.5 -172.5v-586h-221z" />
<glyph unicode="i" horiz-adv-x="499" d="M104 1356q0 61 42 103t104 42t103.5 -41.5t41.5 -103.5t-42 -104t-103 -42q-62 0 -104 42t-42 104zM139 0v1006h221v-1006h-221z" />
<glyph unicode="j" horiz-adv-x="499" d="M-117 -391l51 180q37 -22 93 -22q55 0 83.5 34.5t28.5 98.5v1106h221v-1106q0 -158 -76.5 -245t-217.5 -87q-117 0 -183 41zM104 1356q0 61 42 103t104 42t103.5 -41.5t41.5 -103.5t-42 -104t-103 -42q-62 0 -104 42t-42 104z" />
<glyph unicode="k" horiz-adv-x="1081" d="M139 0v1475h221v-893l404 424h280l-399 -414l399 -592h-249l-297 438l-138 -143v-295h-221z" />
<glyph unicode="l" horiz-adv-x="499" d="M139 0v1475h221v-1475h-221z" />
<glyph unicode="m" horiz-adv-x="1792" d="M139 0v1006h221v-146q39 76 121.5 122t182.5 46q213 0 301 -164q114 164 335 164q168 0 265.5 -103t97.5 -284v-641h-223v602q0 106 -55 164.5t-156 58.5q-97 0 -157 -66.5t-60 -172.5v-586h-221v602q0 106 -56 164.5t-157 58.5q-94 0 -156 -67t-62 -172v-586h-221z" />
<glyph unicode="n" horiz-adv-x="1140" d="M139 0v1006h221v-146q38 76 119 122t176 46q165 0 261 -103.5t96 -283.5v-641h-221v602q0 107 -55.5 165t-157.5 58q-95 0 -156.5 -66.5t-61.5 -172.5v-586h-221z" />
<glyph unicode="o" horiz-adv-x="1185" d="M74 502q0 229 147 377.5t373 148.5q224 0 371 -148.5t147 -377.5q0 -226 -147 -375.5t-371 -149.5q-225 0 -372.5 149.5t-147.5 375.5zM297 502q0 -141 83.5 -231.5t213.5 -90.5q131 0 213 90t82 232q0 143 -82.5 233t-212.5 90q-131 0 -214 -89.5t-83 -233.5z" />
<glyph unicode="p" horiz-adv-x="1243" d="M139 -410v1416h221v-154q45 80 135.5 128t200.5 48q209 0 341 -146t132 -378q0 -233 -132 -380t-341 -147q-108 0 -200.5 46t-135.5 120v-553h-221zM354 504q0 -143 82.5 -233.5t212.5 -90.5t212.5 91t82.5 233q0 141 -82.5 231t-212.5 90q-129 0 -212 -90t-83 -231z" />
<glyph unicode="q" horiz-adv-x="1243" d="M74 504q0 232 132 378t341 146q110 0 200.5 -48t135.5 -128v154h221v-1416h-221v553q-43 -74 -135.5 -120t-200.5 -46q-209 0 -341 147t-132 380zM299 504q0 -142 82.5 -233t212.5 -91t212.5 90.5t82.5 233.5q0 141 -83 231t-212 90q-130 0 -212.5 -90t-82.5 -231z" />
<glyph unicode="r" horiz-adv-x="948" d="M139 0v1006h221v-152q29 84 93 129t149 45q128 0 202 -84.5t97 -234.5l-213 -58q-11 67 -25.5 105t-47 62t-85.5 24q-87 0 -128.5 -68.5t-41.5 -187.5v-586h-221z" />
<glyph unicode="s" horiz-adv-x="913" d="M66 274l194 45q12 -81 68.5 -126.5t144.5 -45.5q76 0 120 33t44 90q0 50 -31.5 79t-101.5 44l-131 29q-134 29 -205.5 106.5t-71.5 192.5q0 138 100 222.5t263 84.5q151 0 255 -75t126 -201l-191 -50q-12 75 -61.5 115.5t-128.5 40.5q-69 0 -110.5 -35t-41.5 -94 q0 -92 123 -119l131 -26q149 -32 218 -102.5t69 -190.5q0 -143 -102.5 -228.5t-274.5 -85.5q-161 0 -275.5 84t-129.5 213z" />
<glyph unicode="t" horiz-adv-x="952" d="M29 809v197h190v299h221v-299h353v-197h-353v-498q0 -65 35 -101t98 -36q59 0 93 33t47 106l190 -45q-20 -140 -108 -215.5t-234 -75.5q-162 0 -252 86t-90 242v504h-190z" />
<glyph unicode="u" horiz-adv-x="1140" d="M129 365v641h221v-603q0 -107 55.5 -165t157.5 -58q95 0 156 67t61 173v586h221v-1006h-221v145q-38 -76 -119 -122t-176 -46q-164 0 -260 104t-96 284z" />
<glyph unicode="v" horiz-adv-x="1095" d="M27 1006h245l277 -762l274 762h246l-403 -1006h-236z" />
<glyph unicode="w" horiz-adv-x="1572" d="M27 1006h241l185 -766l209 766h249l211 -766l183 766h241l-289 -1006h-262l-207 760l-206 -760h-271z" />
<glyph unicode="x" horiz-adv-x="1058" d="M37 0l369 512l-355 494h252l236 -330l221 330h246l-353 -492l369 -514h-252l-248 346l-237 -346h-248z" />
<glyph unicode="y" horiz-adv-x="1095" d="M27 1006h245l285 -742l266 742h246l-467 -1143q-63 -156 -150 -225.5t-219 -69.5q-129 0 -184 41l45 182q43 -24 115 -24q69 0 113 35t84 120l40 88z" />
<glyph unicode="z" horiz-adv-x="940" d="M82 0v186l504 623h-496v197h768v-187l-504 -622h504v-197h-776z" />
<glyph unicode="{" horiz-adv-x="710" d="M51 465v205q121 0 164 34.5t43 131.5v358q0 350 371 350h30v-180h-30q-77 0 -117.5 -43.5t-40.5 -126.5v-358q0 -100 -51 -169t-146 -100q95 -31 146 -99.5t51 -168.5v-358q0 -83 40.5 -126.5t117.5 -43.5h30v-181h-30q-371 0 -371 351v358q0 97 -43 131.5t-164 34.5z " />
<glyph unicode="|" horiz-adv-x="585" d="M188 -410v1885h209v-1885h-209z" />
<glyph unicode="}" horiz-adv-x="710" d="M51 -229h31q77 0 117.5 43.5t40.5 126.5v358q0 100 50.5 168.5t145.5 99.5q-95 31 -145.5 100t-50.5 169v358q0 83 -40.5 126.5t-117.5 43.5h-31v180h31q371 0 371 -350v-358q0 -97 42.5 -131.5t163.5 -34.5v-205q-121 0 -163.5 -34.5t-42.5 -131.5v-358 q0 -351 -371 -351h-31v181z" />
<glyph unicode="~" horiz-adv-x="1228" d="M129 532q0 125 66 195t184 70q58 0 120.5 -16.5t106 -37t92.5 -37t84 -16.5q96 0 111 107l186 -37q0 -128 -66.5 -198t-187.5 -70q-73 0 -151.5 26.5t-144 53t-107.5 26.5q-96 0 -111 -106z" />
<glyph unicode="&#xa1;" horiz-adv-x="540" d="M111 1004q0 65 46.5 112t112.5 47t113 -47t47 -112q0 -67 -47 -114.5t-113 -47.5t-112.5 47.5t-46.5 114.5zM156 -285v1010h233v-1010h-233z" />
<glyph unicode="&#xa2;" horiz-adv-x="1118" d="M74 502q0 200 113.5 342t297.5 176v149h205v-149q134 -25 229 -110.5t130 -215.5l-203 -65q-26 92 -94.5 144t-163.5 52q-129 0 -210 -90t-81 -233t81 -232.5t210 -89.5q94 0 167 52.5t99 140.5l201 -68q-36 -122 -134.5 -206t-230.5 -111v-152h-205v150 q-184 34 -297.5 175.5t-113.5 340.5z" />
<glyph unicode="&#xa3;" horiz-adv-x="1185" d="M88 0v203q128 53 190 118.5t62 149.5q0 26 -8 76h-244v198h158q-27 52 -42.5 86t-29.5 87.5t-14 105.5q0 185 138 308.5t349 123.5q197 0 328.5 -102.5t163.5 -280.5l-217 -72q-20 117 -90.5 178.5t-184.5 61.5q-117 0 -182.5 -57t-65.5 -160q0 -46 15.5 -100t29 -84.5 t43.5 -94.5h367v-198h-291q8 -33 8 -76q0 -161 -129 -260h697v-211h-1051z" />
<glyph unicode="&#xa5;" horiz-adv-x="1230" d="M37 1434h252l327 -623l326 623h252l-451 -813h349v-172h-361v-113h361v-172h-361v-164h-233v164h-359v172h359v113h-359v172h346z" />
<glyph unicode="&#xa7;" horiz-adv-x="1118" d="M129 557q0 99 49 174t133 109q-182 83 -182 270q0 152 117.5 249t300.5 97q169 0 283.5 -85t140.5 -232l-203 -54q-38 183 -227 183q-90 0 -143.5 -41.5t-53.5 -110.5q0 -57 47 -90t164 -59l115 -25q162 -35 240.5 -112.5t78.5 -200.5q0 -99 -48 -174t-132 -109 q180 -83 180 -270q0 -152 -117.5 -250t-300.5 -98q-169 0 -282.5 85.5t-141.5 233.5l205 53q38 -182 228 -182q89 0 141.5 41.5t52.5 110.5q0 55 -47 88t-164 61l-114 25q-163 35 -241.5 112t-78.5 201zM342 586q0 -66 40 -102.5t138 -59.5l60 -12q75 -19 135.5 39t60.5 149 q0 65 -39.5 101t-136.5 59l-59 14q-76 19 -137.5 -39t-61.5 -149z" />
<glyph unicode="&#xa8;" horiz-adv-x="1032" d="M102 1356q0 61 42 103t104 42t103.5 -41.5t41.5 -103.5t-42 -104t-103 -42q-62 0 -104 42t-42 104zM639 1356q0 62 41.5 103.5t103.5 41.5t104 -42t42 -103q0 -62 -42 -104t-104 -42q-61 0 -103 42t-42 104z" />
<glyph unicode="&#xa9;" horiz-adv-x="1669" d="M76 717q0 150 60 287t161.5 236t242 157.5t294.5 58.5q155 0 295.5 -58.5t242 -157.5t161.5 -236t60 -287t-60 -287t-161.5 -236.5t-242 -158t-295.5 -58.5q-154 0 -294.5 58.5t-242 158t-161.5 236.5t-60 287zM256 717q0 -157 78 -290t211 -210.5t289 -77.5 q157 0 290 77.5t210 210.5t77 290q0 118 -45.5 224.5t-123 184t-184 123t-224.5 45.5q-156 0 -289 -77t-211 -210t-78 -290zM416 717q0 192 120.5 316t303.5 124q141 0 245 -80.5t138 -218.5l-195 -53q-20 72 -69.5 112.5t-118.5 40.5q-92 0 -152.5 -68.5t-60.5 -172.5 q0 -106 60.5 -174t152.5 -68q68 0 121 40.5t73 109.5l195 -56q-37 -130 -144.5 -210t-244.5 -80q-183 0 -303.5 124t-120.5 314z" />
<glyph unicode="&#xaa;" horiz-adv-x="870" d="M57 854q0 128 89.5 195t261.5 67h167v43q0 65 -37.5 99t-107.5 34q-67 0 -112.5 -36t-55.5 -103l-176 41q13 117 109.5 189.5t234.5 72.5q161 0 250.5 -78.5t89.5 -218.5v-526h-195v86q-79 -105 -243 -105q-127 0 -201 65t-74 175zM252 864q0 -50 34 -78t95 -28 q84 0 139 52.5t55 129.5v39h-153q-87 0 -128.5 -28t-41.5 -87z" />
<glyph unicode="&#xab;" horiz-adv-x="1179" d="M80 522l307 420h242l-307 -420l307 -420h-242zM571 522l308 420h241l-307 -420l307 -420h-241z" />
<glyph unicode="&#xad;" horiz-adv-x="851" d="M117 489v209h618v-209h-618z" />
<glyph unicode="&#xae;" horiz-adv-x="1089" d="M70 983q0 97 37.5 184.5t100.5 150.5t150.5 100.5t184.5 37.5q199 0 338 -138t139 -335q0 -198 -139 -336.5t-338 -138.5q-97 0 -184.5 37.5t-150.5 101t-100.5 151.5t-37.5 185zM186 983q0 -151 104 -254.5t253 -103.5q121 0 213 67h-131l-119 228h-41v-228h-131v582 q-69 -51 -108.5 -126.5t-39.5 -164.5zM336 1274h237q84 0 137.5 -48.5t53.5 -127.5q0 -64 -34 -108.5t-93 -61.5l125 -232q66 51 103.5 125.5t37.5 161.5q0 150 -104 253t-256 103q-117 0 -207 -65zM465 1026h88q80 0 80 72q0 69 -80 69h-88v-141z" />
<glyph unicode="&#xaf;" horiz-adv-x="856" d="M102 1231v211h652v-211h-652z" />
<glyph unicode="&#xb0;" horiz-adv-x="958" d="M57 1036q0 173 123.5 296.5t298.5 123.5q173 0 297.5 -123.5t124.5 -296.5t-124.5 -297.5t-297.5 -124.5q-174 0 -298 124t-124 298zM254 1036q0 -95 65.5 -161t159.5 -66t160 66t66 161q0 94 -66 160t-160 66t-159.5 -66t-65.5 -160z" />
<glyph unicode="&#xb4;" horiz-adv-x="669" d="M102 1147l185 328h280l-248 -328h-217z" />
<glyph unicode="&#xb5;" horiz-adv-x="1140" d="M129 -410v1416h221v-603q0 -107 55.5 -165t157.5 -58q95 0 156 67t61 173v586h221v-1006h-221v145q-38 -76 -119 -122t-176 -46q-68 0 -135 23v-410h-221z" />
<glyph unicode="&#xb6;" horiz-adv-x="1306" d="M125 1122q0 139 102.5 225.5t288.5 86.5h217v-1844h-213v1221h-28q-169 0 -268 86.5t-99 224.5zM926 -410v1844h213v-1844h-213z" />
<glyph unicode="&#xb7;" horiz-adv-x="540" d="M111 637q0 67 46.5 114.5t112.5 47.5t113 -47.5t47 -114.5q0 -65 -47 -112.5t-113 -47.5t-112.5 47.5t-46.5 112.5z" />
<glyph unicode="&#xb8;" horiz-adv-x="618" d="M102 -369l41 146q60 -31 125 -31q66 0 66 43q0 25 -26 36t-87 11l-61 72l53 131h152l-46 -96q96 -10 146.5 -55t50.5 -119q0 -85 -58.5 -132t-162.5 -47q-121 0 -193 41z" />
<glyph unicode="&#xba;" horiz-adv-x="952" d="M57 1034q0 184 119 303t301 119q181 0 299.5 -119t118.5 -303q0 -181 -119 -300.5t-299 -119.5q-181 0 -300.5 119t-119.5 301zM254 1034q0 -107 62.5 -174t160.5 -67t160.5 67t62.5 174q0 109 -62.5 177.5t-160.5 68.5q-99 0 -161 -68t-62 -178z" />
<glyph unicode="&#xbb;" horiz-adv-x="1179" d="M59 102l308 420l-308 420h242l307 -420l-307 -420h-242zM551 102l307 420l-307 420h242l307 -420l-307 -420h-242z" />
<glyph unicode="&#xbf;" horiz-adv-x="1026" d="M55 94q0 104 48.5 193.5t162.5 193.5l37 33q57 55 82 91.5t25 66.5v53h233v-53q0 -66 -38 -125t-142 -154l-35 -35q-72 -68 -102.5 -126t-30.5 -128q0 -83 62.5 -135.5t160.5 -52.5q110 0 179.5 58.5t88.5 166.5l226 -53q-34 -185 -166.5 -290t-331.5 -105 q-213 0 -336 108t-123 293zM365 1004q0 65 46.5 112t112.5 47t113 -47t47 -112q0 -67 -47 -114.5t-113 -47.5t-112.5 47.5t-46.5 114.5z" />
<glyph unicode="&#xc0;" horiz-adv-x="1312" d="M37 0l477 1434h281l481 -1434h-246l-119 379h-512l-118 -379h-244zM346 1794h301l197 -278h-238zM469 596h375l-189 596z" />
<glyph unicode="&#xc1;" horiz-adv-x="1312" d="M37 0l477 1434h281l481 -1434h-246l-119 379h-512l-118 -379h-244zM469 596h375l-189 596zM526 1516l197 278h301l-260 -278h-238z" />
<glyph unicode="&#xc2;" horiz-adv-x="1312" d="M37 0l477 1434h281l481 -1434h-246l-119 379h-512l-118 -379h-244zM264 1516l234 278h319l232 -278h-242l-152 196l-149 -196h-242zM469 596h375l-189 596z" />
<glyph unicode="&#xc3;" horiz-adv-x="1312" d="M37 0l477 1434h281l481 -1434h-246l-119 379h-512l-118 -379h-244zM256 1556q0 125 56 195t157 70q47 0 97.5 -16.5t86.5 -37t76 -37t68 -16.5q64 0 73 107l187 -37q0 -128 -56.5 -198t-160.5 -70q-59 0 -123 26.5t-117.5 53t-87.5 26.5q-65 0 -74 -106zM469 596h375 l-189 596z" />
<glyph unicode="&#xc4;" horiz-adv-x="1312" d="M37 0l477 1434h281l481 -1434h-246l-119 379h-512l-118 -379h-244zM242 1659q0 61 42 103t103 42t103 -42t42 -103q0 -62 -42 -104t-103 -42t-103 42t-42 104zM469 596h375l-189 596zM778 1659q0 61 42 103t104 42t103.5 -42t41.5 -103q0 -62 -42 -104t-103 -42 q-62 0 -104 42.5t-42 103.5z" />
<glyph unicode="&#xc5;" horiz-adv-x="1312" d="M37 0l477 1434h281l481 -1434h-246l-119 379h-512l-118 -379h-244zM410 1690q0 97 70 160t177 63t177.5 -63t70.5 -160q0 -95 -70.5 -158.5t-177.5 -63.5t-177 63t-70 159zM469 596h375l-189 596zM573 1690q0 -36 24 -60t60 -24t60 24t24 60q0 38 -24 62t-60 24t-60 -24 t-24 -62z" />
<glyph unicode="&#xc6;" horiz-adv-x="1931" d="M37 0l835 1434h938v-220h-587v-380h557v-218h-557v-397h598v-219h-832v379h-471l-213 -379h-268zM639 596h350v625z" />
<glyph unicode="&#xc7;" horiz-adv-x="1323" d="M76 719q0 334 168 535.5t446 201.5q226 0 374 -145t167 -387h-234q-43 307 -307 307q-177 0 -276 -136t-99 -376q0 -247 98 -381.5t277 -134.5q135 0 213 73.5t109 227.5h235q-25 -220 -152.5 -358.5t-326.5 -163.5l-18 -39q96 -10 146 -55t50 -119q0 -85 -58.5 -132 t-162.5 -47q-121 0 -193 41l41 146q60 -31 125 -31q66 0 66 43q0 25 -26 36t-87 11l-61 72l31 74q-253 25 -399 221t-146 516z" />
<glyph unicode="&#xc8;" horiz-adv-x="1146" d="M168 0v1434h858v-220h-625v-380h594v-218h-594v-397h635v-219h-868zM305 1794h301l197 -278h-238z" />
<glyph unicode="&#xc9;" horiz-adv-x="1146" d="M168 0v1434h858v-220h-625v-380h594v-218h-594v-397h635v-219h-868zM485 1516l197 278h301l-260 -278h-238z" />
<glyph unicode="&#xca;" horiz-adv-x="1146" d="M168 0v1434h858v-220h-625v-380h594v-218h-594v-397h635v-219h-868zM223 1516l234 278h319l232 -278h-242l-152 196l-149 -196h-242z" />
<glyph unicode="&#xcb;" horiz-adv-x="1146" d="M168 0v1434h858v-220h-625v-380h594v-218h-594v-397h635v-219h-868zM203 1659q0 61 41.5 103t103.5 42t104 -42t42 -103t-42 -103.5t-104 -42.5q-61 0 -103 42t-42 104zM739 1659q0 61 42 103t104 42q61 0 103 -42t42 -103q0 -62 -42 -104t-103 -42t-103.5 42.5 t-42.5 103.5z" />
<glyph unicode="&#xcc;" horiz-adv-x="569" d="M-27 1794h301l197 -278h-238zM168 0v1434h233v-1434h-233z" />
<glyph unicode="&#xcd;" horiz-adv-x="569" d="M154 1516l196 278h301l-260 -278h-237zM168 0v1434h233v-1434h-233z" />
<glyph unicode="&#xce;" horiz-adv-x="569" d="M-109 1516l234 278h319l232 -278h-242l-151 196l-150 -196h-242zM168 0v1434h233v-1434h-233z" />
<glyph unicode="&#xcf;" horiz-adv-x="569" d="M-129 1659q0 61 41.5 103t103.5 42t104 -42t42 -103t-42 -103.5t-104 -42.5q-61 0 -103 42t-42 104zM168 0v1434h233v-1434h-233zM408 1659q0 61 42 103t103 42t103 -42t42 -103q0 -62 -42 -104t-103 -42t-103 42t-42 104z" />
<glyph unicode="&#xd0;" horiz-adv-x="1325" d="M-10 612v211h178v611h385q316 0 506 -195t190 -518q0 -327 -190.5 -524t-505.5 -197h-385v612h-178zM401 219h152q209 0 333 136t124 366q0 226 -124 359.5t-333 133.5h-152v-391h363v-211h-363v-393z" />
<glyph unicode="&#xd1;" horiz-adv-x="1398" d="M168 0v1434h250l579 -1024v1024h234v-1434h-250l-580 1024v-1024h-233zM299 1556q0 125 56 195t157 70q47 0 97.5 -16.5t86.5 -37t76 -37t68 -16.5q64 0 73 107l187 -37q0 -128 -56.5 -198t-160.5 -70q-59 0 -123 26.5t-117.5 53t-87.5 26.5q-65 0 -74 -106z" />
<glyph unicode="&#xd2;" d="M76 719q0 333 167 535t447 202q186 0 326.5 -92t215.5 -258.5t75 -386.5q0 -343 -166.5 -542.5t-450.5 -199.5q-283 0 -448.5 200t-165.5 542zM315 719q0 -247 98 -381.5t277 -134.5t278 134.5t99 381.5q0 240 -99.5 376t-277.5 136q-177 0 -276 -136t-99 -376zM381 1794 h301l197 -278h-238z" />
<glyph unicode="&#xd3;" d="M76 719q0 333 167 535t447 202q186 0 326.5 -92t215.5 -258.5t75 -386.5q0 -343 -166.5 -542.5t-450.5 -199.5q-283 0 -448.5 200t-165.5 542zM315 719q0 -247 98 -381.5t277 -134.5t278 134.5t99 381.5q0 240 -99.5 376t-277.5 136q-177 0 -276 -136t-99 -376zM561 1516 l197 278h301l-260 -278h-238z" />
<glyph unicode="&#xd4;" d="M76 719q0 333 167 535t447 202q186 0 326.5 -92t215.5 -258.5t75 -386.5q0 -343 -166.5 -542.5t-450.5 -199.5q-283 0 -448.5 200t-165.5 542zM299 1516l233 278h320l231 -278h-241l-152 196l-149 -196h-242zM315 719q0 -247 98 -381.5t277 -134.5t278 134.5t99 381.5 q0 240 -99.5 376t-277.5 136q-177 0 -276 -136t-99 -376z" />
<glyph unicode="&#xd5;" d="M76 719q0 333 167 535t447 202q186 0 326.5 -92t215.5 -258.5t75 -386.5q0 -343 -166.5 -542.5t-450.5 -199.5q-283 0 -448.5 200t-165.5 542zM291 1556q0 125 56 195t157 70q47 0 97.5 -16.5t86 -37t75.5 -37t68 -16.5q65 0 74 107l187 -37q0 -128 -57 -198t-161 -70 q-59 0 -122.5 26.5t-117 53t-87.5 26.5q-65 0 -74 -106zM315 719q0 -247 98 -381.5t277 -134.5t278 134.5t99 381.5q0 240 -99.5 376t-277.5 136q-177 0 -276 -136t-99 -376z" />
<glyph unicode="&#xd6;" d="M76 719q0 333 167 535t447 202q186 0 326.5 -92t215.5 -258.5t75 -386.5q0 -343 -166.5 -542.5t-450.5 -199.5q-283 0 -448.5 200t-165.5 542zM279 1659q0 61 41.5 103t103.5 42t103.5 -42t41.5 -103q0 -62 -42 -104t-103 -42t-103 42t-42 104zM315 719q0 -247 98 -381.5 t277 -134.5t278 134.5t99 381.5q0 240 -99.5 376t-277.5 136q-177 0 -276 -136t-99 -376zM815 1659q0 61 42 103t104 42q61 0 103 -42t42 -103q0 -62 -42 -104t-103 -42t-103.5 42.5t-42.5 103.5z" />
<glyph unicode="&#xd8;" d="M-63 0l237 276q-98 185 -98 443q0 333 167 535t447 202q226 0 381 -133l96 111h281l-242 -281q101 -179 101 -434q0 -343 -166.5 -542.5t-450.5 -199.5q-228 0 -381 132l-92 -109h-280zM315 719q0 -133 31 -242l576 670q-93 84 -232 84q-177 0 -276 -136t-99 -376z M461 285q91 -82 229 -82q179 0 278 134.5t99 381.5q0 130 -31 235z" />
<glyph unicode="&#xd9;" horiz-adv-x="1366" d="M156 514v920h233v-920q0 -151 76 -231t219 -80q141 0 217 80.5t76 230.5v920h233v-920q0 -249 -141.5 -393t-384.5 -144q-245 0 -386.5 144t-141.5 393zM373 1794h301l196 -278h-237z" />
<glyph unicode="&#xda;" horiz-adv-x="1366" d="M156 514v920h233v-920q0 -151 76 -231t219 -80q141 0 217 80.5t76 230.5v920h233v-920q0 -249 -141.5 -393t-384.5 -144q-245 0 -386.5 144t-141.5 393zM553 1516l197 278h301l-260 -278h-238z" />
<glyph unicode="&#xdb;" horiz-adv-x="1366" d="M156 514v920h233v-920q0 -151 76 -231t219 -80q141 0 217 80.5t76 230.5v920h233v-920q0 -249 -141.5 -393t-384.5 -144q-245 0 -386.5 144t-141.5 393zM291 1516l233 278h320l231 -278h-241l-152 196l-150 -196h-241z" />
<glyph unicode="&#xdc;" horiz-adv-x="1366" d="M156 514v920h233v-920q0 -151 76 -231t219 -80q141 0 217 80.5t76 230.5v920h233v-920q0 -249 -141.5 -393t-384.5 -144q-245 0 -386.5 144t-141.5 393zM268 1659q0 61 42 103t104 42t103.5 -42t41.5 -103q0 -62 -42 -104t-103 -42q-62 0 -104 42.5t-42 103.5zM805 1659 q0 61 41.5 103t103.5 42t104 -42t42 -103t-42 -103.5t-104 -42.5q-61 0 -103 42t-42 104z" />
<glyph unicode="&#xdd;" horiz-adv-x="1230" d="M37 1434h252l327 -623l326 623h252l-463 -836v-598h-233v598zM485 1516l197 278h301l-260 -278h-238z" />
<glyph unicode="&#xde;" horiz-adv-x="1212" d="M168 0v1434h233v-238h269q220 0 352.5 -120t132.5 -318t-132.5 -318.5t-352.5 -120.5h-269v-319h-233zM401 532h269q116 0 182 60.5t66 165.5q0 104 -65.5 163.5t-182.5 59.5h-269v-449z" />
<glyph unicode="&#xdf;" horiz-adv-x="1236" d="M139 0v991q0 226 134.5 355t369.5 129q214 0 341.5 -111t127.5 -297q0 -121 -60 -207t-165 -117q111 -28 180.5 -125.5t69.5 -228.5q0 -195 -114.5 -303.5t-320.5 -108.5q-71 0 -139.5 17.5t-111.5 46.5l61 190q65 -53 172 -53q112 0 170.5 56t58.5 163q0 116 -72.5 176 t-211.5 60h-78v194h80q124 0 190 59.5t66 172.5q0 101 -64 157t-180 56q-133 0 -208 -74.5t-75 -206.5v-991h-221z" />
<glyph unicode="&#xe0;" horiz-adv-x="1079" d="M74 276q0 160 111.5 243t326.5 83q116 0 217 -37v97q0 86 -51 130t-150 44q-75 0 -130.5 -35t-80.5 -99l-190 68q36 116 145 187t260 71q198 0 308 -97t110 -272v-659h-221v113q-46 -65 -126.5 -100.5t-182.5 -35.5q-161 0 -253.5 80t-92.5 219zM236 1475h280l184 -328 h-217zM297 285q0 -65 45.5 -102.5t126.5 -37.5q114 0 187 69t73 175v2q-96 45 -207 45q-117 0 -171 -36.5t-54 -114.5z" />
<glyph unicode="&#xe1;" horiz-adv-x="1079" d="M74 276q0 160 111.5 243t326.5 83q116 0 217 -37v97q0 86 -51 130t-150 44q-75 0 -130.5 -35t-80.5 -99l-190 68q36 116 145 187t260 71q198 0 308 -97t110 -272v-659h-221v113q-46 -65 -126.5 -100.5t-182.5 -35.5q-161 0 -253.5 80t-92.5 219zM297 285 q0 -65 45.5 -102.5t126.5 -37.5q114 0 187 69t73 175v2q-96 45 -207 45q-117 0 -171 -36.5t-54 -114.5zM430 1147l184 328h281l-248 -328h-217z" />
<glyph unicode="&#xe2;" horiz-adv-x="1079" d="M74 276q0 160 111.5 243t326.5 83q116 0 217 -37v97q0 86 -51 130t-150 44q-75 0 -130.5 -35t-80.5 -99l-190 68q36 116 145 187t260 71q198 0 308 -97t110 -272v-659h-221v113q-46 -65 -126.5 -100.5t-182.5 -35.5q-161 0 -253.5 80t-92.5 219zM147 1147l236 328h315 l234 -328h-242l-151 231l-150 -231h-242zM297 285q0 -65 45.5 -102.5t126.5 -37.5q114 0 187 69t73 175v2q-96 45 -207 45q-117 0 -171 -36.5t-54 -114.5z" />
<glyph unicode="&#xe3;" horiz-adv-x="1079" d="M74 276q0 160 111.5 243t326.5 83q116 0 217 -37v97q0 86 -51 130t-150 44q-75 0 -130.5 -35t-80.5 -99l-190 68q36 116 145 187t260 71q198 0 308 -97t110 -272v-659h-221v113q-46 -65 -126.5 -100.5t-182.5 -35.5q-161 0 -253.5 80t-92.5 219zM139 1219q0 125 56 194.5 t157 69.5q47 0 97.5 -16.5t86.5 -37t76 -37t68 -16.5q65 0 74 107l186 -37q0 -128 -56.5 -198t-160.5 -70q-59 0 -123 26.5t-117.5 53t-87.5 26.5q-64 0 -73 -106zM297 285q0 -65 45.5 -102.5t126.5 -37.5q114 0 187 69t73 175v2q-96 45 -207 45q-117 0 -171 -36.5 t-54 -114.5z" />
<glyph unicode="&#xe4;" horiz-adv-x="1079" d="M74 276q0 160 111.5 243t326.5 83q116 0 217 -37v97q0 86 -51 130t-150 44q-75 0 -130.5 -35t-80.5 -99l-190 68q36 116 145 187t260 71q198 0 308 -97t110 -272v-659h-221v113q-46 -65 -126.5 -100.5t-182.5 -35.5q-161 0 -253.5 80t-92.5 219zM127 1356 q0 62 41.5 103.5t103.5 41.5t104 -42t42 -103q0 -62 -42 -104t-104 -42q-61 0 -103 42t-42 104zM297 285q0 -65 45.5 -102.5t126.5 -37.5q114 0 187 69t73 175v2q-96 45 -207 45q-117 0 -171 -36.5t-54 -114.5zM664 1356q0 62 42 103.5t103 41.5t103 -41.5t42 -103.5 t-42 -104t-103 -42t-103 42t-42 104z" />
<glyph unicode="&#xe5;" horiz-adv-x="1079" d="M74 276q0 160 111.5 243t326.5 83q116 0 217 -37v97q0 86 -51 130t-150 44q-75 0 -130.5 -35t-80.5 -99l-190 68q36 116 145 187t260 71q198 0 308 -97t110 -272v-659h-221v113q-46 -65 -126.5 -100.5t-182.5 -35.5q-161 0 -253.5 80t-92.5 219zM293 1335 q0 97 70.5 160.5t177.5 63.5t177 -63.5t70 -160.5q0 -95 -70 -158t-177 -63t-177.5 63t-70.5 158zM297 285q0 -65 45.5 -102.5t126.5 -37.5q114 0 187 69t73 175v2q-96 45 -207 45q-117 0 -171 -36.5t-54 -114.5zM457 1335q0 -36 24 -60t60 -24t60 24t24 60q0 38 -24 62 t-60 24t-60 -24t-24 -62z" />
<glyph unicode="&#xe6;" horiz-adv-x="1785" d="M74 276q0 160 111.5 243t326.5 83h217v60q0 86 -50.5 130t-146.5 44q-90 0 -148.5 -48.5t-70.5 -132.5l-202 47q17 145 134 235.5t287 90.5q241 0 349 -139q142 139 356 139q218 0 345.5 -136.5t127.5 -371.5q0 -32 -6 -78h-750q15 -123 92 -195.5t195 -72.5 q93 0 166.5 53t99.5 140l201 -68q-43 -144 -172.5 -233t-294.5 -89q-124 0 -227 48.5t-172 136.5q-75 -100 -171.5 -142.5t-236.5 -42.5q-169 0 -264.5 79t-95.5 220zM297 285q0 -65 45.5 -102.5t126.5 -37.5q114 0 187 69t73 175v47h-207q-117 0 -171 -36.5t-54 -114.5z M963 604h528q-14 107 -80.5 167t-173.5 60q-103 0 -176 -61t-98 -166z" />
<glyph unicode="&#xe7;" horiz-adv-x="1118" d="M74 502q0 229 145 377.5t369 148.5q171 0 295.5 -89.5t165.5 -244.5l-203 -65q-26 92 -94.5 144t-163.5 52q-129 0 -210 -90t-81 -233t81 -232.5t210 -89.5q94 0 167 52.5t99 140.5l201 -68q-40 -134 -154 -222.5t-262 -102.5l-18 -37q96 -10 146 -55t50 -119 q0 -85 -58.5 -132t-162.5 -47q-121 0 -193 41l41 146q60 -31 125 -31q66 0 66 43q0 25 -26 36t-87 11l-61 72l31 78q-187 31 -302.5 172.5t-115.5 343.5z" />
<glyph unicode="&#xe8;" horiz-adv-x="1130" d="M74 502q0 230 144 378t366 148q218 0 345.5 -136.5t127.5 -371.5q0 -51 -6 -78h-754q15 -124 93.5 -197t197.5 -73q73 0 136 33t101 92l174 -115q-65 -96 -174 -150.5t-237 -54.5q-225 0 -369.5 148.5t-144.5 376.5zM262 1475h281l184 -328h-217zM305 606h535 q-14 108 -81 169t-175 61q-103 0 -177.5 -62.5t-101.5 -167.5z" />
<glyph unicode="&#xe9;" horiz-adv-x="1130" d="M74 502q0 230 144 378t366 148q218 0 345.5 -136.5t127.5 -371.5q0 -51 -6 -78h-754q15 -124 93.5 -197t197.5 -73q73 0 136 33t101 92l174 -115q-65 -96 -174 -150.5t-237 -54.5q-225 0 -369.5 148.5t-144.5 376.5zM305 606h535q-14 108 -81 169t-175 61 q-103 0 -177.5 -62.5t-101.5 -167.5zM457 1147l184 328h281l-248 -328h-217z" />
<glyph unicode="&#xea;" horiz-adv-x="1130" d="M74 502q0 230 144 378t366 148q218 0 345.5 -136.5t127.5 -371.5q0 -51 -6 -78h-754q15 -124 93.5 -197t197.5 -73q73 0 136 33t101 92l174 -115q-65 -96 -174 -150.5t-237 -54.5q-225 0 -369.5 148.5t-144.5 376.5zM174 1147l236 328h315l233 -328h-241l-152 231 l-149 -231h-242zM305 606h535q-14 108 -81 169t-175 61q-103 0 -177.5 -62.5t-101.5 -167.5z" />
<glyph unicode="&#xeb;" horiz-adv-x="1130" d="M74 502q0 230 144 378t366 148q218 0 345.5 -136.5t127.5 -371.5q0 -51 -6 -78h-754q15 -124 93.5 -197t197.5 -73q73 0 136 33t101 92l174 -115q-65 -96 -174 -150.5t-237 -54.5q-225 0 -369.5 148.5t-144.5 376.5zM152 1356q0 62 42 103.5t103 41.5t103 -41.5 t42 -103.5t-42 -104t-103 -42t-103 42t-42 104zM305 606h535q-14 108 -81 169t-175 61q-103 0 -177.5 -62.5t-101.5 -167.5zM688 1356q0 61 42 103t104 42t103.5 -41.5t41.5 -103.5t-42 -104t-103 -42q-62 0 -104 42t-42 104z" />
<glyph unicode="&#xec;" horiz-adv-x="499" d="M-55 1475h280l185 -328h-217zM139 0v1006h221v-1006h-221z" />
<glyph unicode="&#xed;" horiz-adv-x="499" d="M139 0v1006h221v-1006h-221zM139 1147l185 328h280l-248 -328h-217z" />
<glyph unicode="&#xee;" horiz-adv-x="499" d="M-102 1147l198 328h307l197 -328h-238l-114 215l-113 -215h-237zM139 0v1006h221v-1006h-221z" />
<glyph unicode="&#xef;" horiz-adv-x="499" d="M-104 1356q0 62 42 103.5t103 41.5t103 -41.5t42 -103.5t-42 -104t-103 -42t-103 42t-42 104zM139 0v1006h221v-1006h-221zM313 1356q0 61 42 103t104 42q61 0 103 -41.5t42 -103.5t-42 -104t-103 -42t-103.5 42t-42.5 104z" />
<glyph unicode="&#xf0;" horiz-adv-x="1214" d="M74 463q0 210 130 341.5t337 131.5q120 0 216.5 -51t143.5 -140q0 115 -47.5 211.5t-132.5 165.5l-461 -168v172l272 101q-125 43 -272 43v205q320 0 545 -150l334 123v-172l-195 -72q195 -214 195 -542q0 -327 -145 -506t-412 -179q-224 0 -366 136t-142 350zM311 463 q0 -120 77.5 -195t201.5 -75q126 0 203 75t77 195t-77 194t-203 74q-125 0 -202 -74t-77 -194z" />
<glyph unicode="&#xf1;" horiz-adv-x="1140" d="M139 0v1006h221v-146q38 76 119 122t176 46q165 0 261 -103.5t96 -283.5v-641h-221v602q0 107 -55.5 165t-157.5 58q-95 0 -156.5 -66.5t-61.5 -172.5v-586h-221zM170 1219q0 125 56 194.5t157 69.5q47 0 97.5 -16.5t86.5 -37t76 -37t68 -16.5q64 0 73 107l187 -37 q0 -128 -56.5 -198t-160.5 -70q-59 0 -123 26.5t-117.5 53t-87.5 26.5q-65 0 -74 -106z" />
<glyph unicode="&#xf2;" horiz-adv-x="1185" d="M74 502q0 229 147 377.5t373 148.5q224 0 371 -148.5t147 -377.5q0 -226 -147 -375.5t-371 -149.5q-225 0 -372.5 149.5t-147.5 375.5zM289 1475h280l185 -328h-217zM297 502q0 -141 83.5 -231.5t213.5 -90.5q131 0 213 90t82 232q0 143 -82.5 233t-212.5 90 q-131 0 -214 -89.5t-83 -233.5z" />
<glyph unicode="&#xf3;" horiz-adv-x="1185" d="M74 502q0 229 147 377.5t373 148.5q224 0 371 -148.5t147 -377.5q0 -226 -147 -375.5t-371 -149.5q-225 0 -372.5 149.5t-147.5 375.5zM297 502q0 -141 83.5 -231.5t213.5 -90.5q131 0 213 90t82 232q0 143 -82.5 233t-212.5 90q-131 0 -214 -89.5t-83 -233.5zM483 1147 l185 328h280l-248 -328h-217z" />
<glyph unicode="&#xf4;" horiz-adv-x="1185" d="M74 502q0 229 147 377.5t373 148.5q224 0 371 -148.5t147 -377.5q0 -226 -147 -375.5t-371 -149.5q-225 0 -372.5 149.5t-147.5 375.5zM201 1147l235 328h316l233 -328h-242l-151 231l-150 -231h-241zM297 502q0 -141 83.5 -231.5t213.5 -90.5q131 0 213 90t82 232 q0 143 -82.5 233t-212.5 90q-131 0 -214 -89.5t-83 -233.5z" />
<glyph unicode="&#xf5;" horiz-adv-x="1185" d="M74 502q0 229 147 377.5t373 148.5q224 0 371 -148.5t147 -377.5q0 -226 -147 -375.5t-371 -149.5q-225 0 -372.5 149.5t-147.5 375.5zM193 1219q0 125 56 194.5t157 69.5q47 0 97.5 -16.5t86 -37t75.5 -37t68 -16.5q65 0 74 107l186 -37q0 -128 -56.5 -198t-160.5 -70 q-59 0 -122.5 26.5t-117 53t-87.5 26.5q-65 0 -74 -106zM297 502q0 -141 83.5 -231.5t213.5 -90.5q131 0 213 90t82 232q0 143 -82.5 233t-212.5 90q-131 0 -214 -89.5t-83 -233.5z" />
<glyph unicode="&#xf6;" horiz-adv-x="1185" d="M74 502q0 229 147 377.5t373 148.5q224 0 371 -148.5t147 -377.5q0 -226 -147 -375.5t-371 -149.5q-225 0 -372.5 149.5t-147.5 375.5zM180 1356q0 61 42 103t104 42t103.5 -41.5t41.5 -103.5t-42 -104t-103 -42q-62 0 -104 42t-42 104zM297 502q0 -141 83.5 -231.5 t213.5 -90.5q131 0 213 90t82 232q0 143 -82.5 233t-212.5 90q-131 0 -214 -89.5t-83 -233.5zM717 1356q0 62 41.5 103.5t103.5 41.5t104 -42t42 -103q0 -62 -42 -104t-104 -42q-61 0 -103 42t-42 104z" />
<glyph unicode="&#xf7;" horiz-adv-x="1228" d="M129 545v194h950v-194h-950zM453 211q0 63 44 107t107 44t107.5 -44t44.5 -107q0 -62 -44.5 -107t-107.5 -45t-107 45t-44 107zM453 1071q0 63 44 107.5t107 44.5t107.5 -44.5t44.5 -107.5t-44.5 -107t-107.5 -44t-107 44t-44 107z" />
<glyph unicode="&#xf8;" horiz-adv-x="1185" d="M63 0l132 156q-121 143 -121 346q0 229 147 377.5t373 148.5q150 0 276 -74l43 52h211l-131 -156q119 -148 119 -348q0 -226 -147 -375.5t-371 -149.5q-154 0 -277 74l-43 -51h-211zM297 502q0 -100 43 -176l393 467q-66 32 -139 32q-131 0 -214 -89.5t-83 -233.5z M455 213q68 -33 139 -33q131 0 213 90t82 232q0 102 -41 176z" />
<glyph unicode="&#xf9;" horiz-adv-x="1140" d="M129 365v641h221v-603q0 -107 55.5 -165t157.5 -58q95 0 156 67t61 173v586h221v-1006h-221v145q-38 -76 -119 -122t-176 -46q-164 0 -260 104t-96 284zM276 1475h281l184 -328h-217z" />
<glyph unicode="&#xfa;" horiz-adv-x="1140" d="M129 365v641h221v-603q0 -107 55.5 -165t157.5 -58q95 0 156 67t61 173v586h221v-1006h-221v145q-38 -76 -119 -122t-176 -46q-164 0 -260 104t-96 284zM471 1147l184 328h281l-248 -328h-217z" />
<glyph unicode="&#xfb;" horiz-adv-x="1140" d="M129 365v641h221v-603q0 -107 55.5 -165t157.5 -58q95 0 156 67t61 173v586h221v-1006h-221v145q-38 -76 -119 -122t-176 -46q-164 0 -260 104t-96 284zM188 1147l236 328h315l234 -328h-242l-151 231l-150 -231h-242z" />
<glyph unicode="&#xfc;" horiz-adv-x="1140" d="M129 365v641h221v-603q0 -107 55.5 -165t157.5 -58q95 0 156 67t61 173v586h221v-1006h-221v145q-38 -76 -119 -122t-176 -46q-164 0 -260 104t-96 284zM166 1356q0 62 42 103.5t103 41.5q62 0 104 -42t42 -103q0 -62 -42.5 -104t-103.5 -42t-103 42t-42 104zM702 1356 q0 61 42 103t104 42t103.5 -41.5t41.5 -103.5t-42 -104t-103 -42q-62 0 -104 42t-42 104z" />
<glyph unicode="&#xfd;" horiz-adv-x="1095" d="M27 1006h245l285 -742l266 742h246l-467 -1143q-63 -156 -150 -225.5t-219 -69.5q-129 0 -184 41l45 182q43 -24 115 -24q69 0 113 35t84 120l40 88zM438 1147l185 328h280l-248 -328h-217z" />
<glyph unicode="&#xfe;" horiz-adv-x="1243" d="M139 -410v1885h221v-623q45 80 135.5 128t200.5 48q209 0 341 -146t132 -378q0 -233 -132 -380t-341 -147q-108 0 -200.5 46t-135.5 120v-553h-221zM354 504q0 -143 82.5 -233.5t212.5 -90.5t212.5 91t82.5 233q0 141 -82.5 231t-212.5 90q-129 0 -212 -90t-83 -231z" />
<glyph unicode="&#xff;" horiz-adv-x="1095" d="M27 1006h245l285 -742l266 742h246l-467 -1143q-63 -156 -150 -225.5t-219 -69.5q-129 0 -184 41l45 182q43 -24 115 -24q69 0 113 35t84 120l40 88zM133 1356q0 61 42 103t104 42q61 0 103 -41.5t42 -103.5t-42 -104t-103 -42t-103.5 42t-42.5 104zM670 1356 q0 62 42 103.5t103 41.5q62 0 104 -42t42 -103q0 -62 -42.5 -104t-103.5 -42t-103 42t-42 104z" />
<glyph unicode="&#x131;" horiz-adv-x="499" d="M139 0v1006h221v-1006h-221z" />
<glyph unicode="&#x152;" horiz-adv-x="1955" d="M76 721q0 323 197 518t522 195h1040v-220h-608v-380h577v-218h-577v-397h618v-219h-1050q-326 0 -522.5 197t-196.5 524zM315 721q0 -230 130 -366t350 -136h196v995h-196q-220 0 -350 -133.5t-130 -359.5z" />
<glyph unicode="&#x153;" horiz-adv-x="1943" d="M74 502q0 229 147 377.5t373 148.5q125 0 230 -49t175 -137q68 89 171.5 137.5t228.5 48.5q218 0 345.5 -136.5t127.5 -371.5q0 -51 -6 -78h-754q15 -124 93.5 -197t197.5 -73q73 0 136 33t101 92l175 -115q-65 -96 -174 -150.5t-238 -54.5q-125 0 -230 49.5t-174 137.5 q-72 -88 -176.5 -137.5t-228.5 -49.5q-225 0 -372.5 149.5t-147.5 375.5zM297 502q0 -141 83.5 -231.5t213.5 -90.5q131 0 213 90t82 232q0 143 -82.5 233t-212.5 90q-131 0 -214 -89.5t-83 -233.5zM1120 606h535q-14 108 -81 169t-175 61q-103 0 -177.5 -62.5 t-101.5 -167.5z" />
<glyph unicode="&#x178;" horiz-adv-x="1230" d="M37 1434h252l327 -623l326 623h252l-463 -836v-598h-233v598zM201 1659q0 61 41.5 103t103.5 42t104 -42t42 -103t-42 -103.5t-104 -42.5q-61 0 -103 42t-42 104zM737 1659q0 61 42 103t104 42q61 0 103 -42t42 -103q0 -62 -42 -104t-103 -42t-103.5 42.5t-42.5 103.5z " />
<glyph unicode="&#x2c6;" horiz-adv-x="989" d="M102 1147l236 328h315l234 -328h-242l-151 231l-150 -231h-242z" />
<glyph unicode="&#x2c7;" horiz-adv-x="989" d="M102 1475h242l150 -232l151 232h242l-234 -328h-315z" />
<glyph unicode="&#x2d8;" horiz-adv-x="892" d="M102 1475h203q0 -82 36.5 -126t104.5 -44q69 0 105.5 43.5t36.5 126.5h203q0 -149 -94.5 -238.5t-250.5 -89.5t-250 89.5t-94 238.5z" />
<glyph unicode="&#x2d9;" horiz-adv-x="495" d="M102 1356q0 61 42 103t104 42t103.5 -41.5t41.5 -103.5t-42 -104t-103 -42q-62 0 -104 42t-42 104z" />
<glyph unicode="&#x2da;" horiz-adv-x="700" d="M102 1335q0 97 70.5 160.5t177.5 63.5t177.5 -63.5t70.5 -160.5q0 -95 -70.5 -158t-177.5 -63t-177.5 63t-70.5 158zM266 1335q0 -36 24 -60t60 -24t60 24t24 60q0 38 -24 62t-60 24t-60 -24t-24 -62z" />
<glyph unicode="&#x2db;" horiz-adv-x="622" d="M102 -215q0 93 77 166.5t210 105.5l90 -57q-85 -26 -137.5 -73t-52.5 -97q0 -74 90 -74q53 0 100 21l41 -146q-72 -41 -192 -41q-105 0 -165.5 51.5t-60.5 143.5z" />
<glyph unicode="&#x2dc;" horiz-adv-x="1005" d="M102 1219q0 125 56 194.5t157 69.5q47 0 97.5 -16.5t86.5 -37t76 -37t68 -16.5q65 0 74 107l186 -37q0 -128 -56.5 -198t-160.5 -70q-59 0 -123 26.5t-117.5 53t-87.5 26.5q-64 0 -73 -106z" />
<glyph unicode="&#x2dd;" horiz-adv-x="1091" d="M102 1147l185 328h280l-248 -328h-217zM524 1147l185 328h280l-248 -328h-217z" />
<glyph unicode="&#x2000;" horiz-adv-x="956" />
<glyph unicode="&#x2001;" horiz-adv-x="1913" />
<glyph unicode="&#x2002;" horiz-adv-x="956" />
<glyph unicode="&#x2003;" horiz-adv-x="1913" />
<glyph unicode="&#x2004;" horiz-adv-x="637" />
<glyph unicode="&#x2005;" horiz-adv-x="478" />
<glyph unicode="&#x2006;" horiz-adv-x="318" />
<glyph unicode="&#x2007;" horiz-adv-x="318" />
<glyph unicode="&#x2008;" horiz-adv-x="239" />
<glyph unicode="&#x2009;" horiz-adv-x="382" />
<glyph unicode="&#x200a;" horiz-adv-x="106" />
<glyph unicode="&#x2010;" horiz-adv-x="851" d="M117 489v209h618v-209h-618z" />
<glyph unicode="&#x2011;" horiz-adv-x="851" d="M117 489v209h618v-209h-618z" />
<glyph unicode="&#x2012;" horiz-adv-x="851" d="M117 489v209h618v-209h-618z" />
<glyph unicode="&#x2013;" horiz-adv-x="1105" d="M117 489v209h872v-209h-872z" />
<glyph unicode="&#x2014;" horiz-adv-x="1757" d="M117 489v209h1523v-209h-1523z" />
<glyph unicode="&#x2018;" horiz-adv-x="532" d="M90 1047q0 164 87.5 279t236.5 130l28 -123q-82 -10 -144 -59.5t-83 -116.5q23 10 47 10q70 0 115 -46.5t45 -112.5q0 -69 -44.5 -115.5t-115.5 -46.5q-79 0 -125.5 55.5t-46.5 145.5z" />
<glyph unicode="&#x2019;" horiz-adv-x="532" d="M90 971q82 10 144 59.5t83 116.5q-23 -10 -47 -10q-70 0 -114.5 46.5t-44.5 112.5q0 69 44 115.5t115 46.5q79 0 125.5 -55.5t46.5 -145.5q0 -164 -87 -279t-236 -130z" />
<glyph unicode="&#x201a;" horiz-adv-x="552" d="M90 -180q82 10 144 59.5t83 116.5q-23 -10 -47 -10q-70 0 -114.5 46.5t-44.5 112.5q0 69 44 115.5t115 46.5q79 0 125.5 -55.5t46.5 -145.5q0 -164 -87 -279t-236 -130z" />
<glyph unicode="&#x201c;" horiz-adv-x="958" d="M90 1047q0 164 87.5 279t236.5 130l28 -123q-82 -10 -144 -59.5t-83 -116.5q23 10 47 10q70 0 115 -46.5t45 -112.5q0 -69 -44.5 -115.5t-115.5 -46.5q-79 0 -125.5 55.5t-46.5 145.5zM516 1047q0 164 87.5 279t236.5 130l28 -123q-82 -10 -144 -59.5t-83 -116.5 q23 10 47 10q70 0 115 -46.5t45 -112.5q0 -69 -44.5 -115.5t-115.5 -46.5q-79 0 -125.5 55.5t-46.5 145.5z" />
<glyph unicode="&#x201d;" horiz-adv-x="958" d="M90 971q82 10 144 59.5t83 116.5q-23 -10 -47 -10q-70 0 -114.5 46.5t-44.5 112.5q0 69 44 115.5t115 46.5q79 0 125.5 -55.5t46.5 -145.5q0 -164 -87 -279t-236 -130zM516 971q82 10 144 59.5t83 116.5q-23 -10 -47 -10q-70 0 -114.5 46.5t-44.5 112.5q0 69 44 115.5 t115 46.5q79 0 125.5 -55.5t46.5 -145.5q0 -164 -87 -279t-236 -130z" />
<glyph unicode="&#x201e;" horiz-adv-x="978" d="M90 -180q82 10 144 59.5t83 116.5q-23 -10 -47 -10q-70 0 -114.5 46.5t-44.5 112.5q0 69 44 115.5t115 46.5q79 0 125.5 -55.5t46.5 -145.5q0 -164 -87 -279t-236 -130zM516 -180q82 10 144 59.5t83 116.5q-23 -10 -47 -10q-70 0 -114.5 46.5t-44.5 112.5q0 69 44 115.5 t115 46.5q79 0 125.5 -55.5t46.5 -145.5q0 -164 -87 -279t-236 -130z" />
<glyph unicode="&#x2020;" horiz-adv-x="712" d="M68 1108v176h194v191h193v-191h190v-176h-190v-494h-193v494h-194z" />
<glyph unicode="&#x2021;" horiz-adv-x="712" d="M68 805v172h194v135h-194v172h194v191h193v-191h190v-172h-190v-135h190v-172h-190v-191h-193v191h-194z" />
<glyph unicode="&#x2022;" horiz-adv-x="755" d="M131 655q0 106 73 179t177 73q103 0 175.5 -73.5t72.5 -178.5q0 -102 -73 -175.5t-175 -73.5q-104 0 -177 73.5t-73 175.5z" />
<glyph unicode="&#x2026;" horiz-adv-x="1830" d="M111 145q0 67 46.5 114.5t112.5 47.5t113 -47.5t47 -114.5q0 -65 -47 -112t-113 -47t-112.5 47t-46.5 112zM754 145q0 67 46.5 114.5t112.5 47.5t113 -47.5t47 -114.5q0 -65 -47 -112t-113 -47t-112.5 47t-46.5 112zM1401 145q0 67 47 114.5t113 47.5t112.5 -47.5 t46.5 -114.5q0 -65 -46.5 -112t-112.5 -47t-113 47t-47 112z" />
<glyph unicode="&#x202f;" horiz-adv-x="382" />
<glyph unicode="&#x2039;" horiz-adv-x="688" d="M80 522l307 420h242l-307 -420l307 -420h-242z" />
<glyph unicode="&#x203a;" horiz-adv-x="688" d="M59 102l308 420l-308 420h242l307 -420l-307 -420h-242z" />
<glyph unicode="&#x205f;" horiz-adv-x="478" />
<glyph unicode="&#x20ac;" horiz-adv-x="1386" d="M0 467l41 172h100l-2 80l2 63h-141l41 172h123q54 235 210 368.5t380 133.5q226 0 373.5 -145t166.5 -387h-233q-43 307 -307 307q-127 0 -215.5 -72t-128.5 -205h428l-41 -172h-416l-2 -63l2 -80h457l-41 -172h-383q40 -129 127 -196.5t213 -67.5q135 0 212.5 73.5 t108.5 227.5h236q-26 -243 -177 -385t-380 -142q-225 0 -378.5 129t-209.5 361h-166z" />
<glyph unicode="&#x2122;" horiz-adv-x="1898" d="M31 1253v181h661v-181h-235v-639h-191v639h-235zM807 614v820h326l163 -637l185 637h305v-820h-191v635l-165 -635h-267l-166 635v-635h-190z" />
<glyph unicode="&#x2260;" horiz-adv-x="1228" d="M131 254v195h287l151 387h-438v194h514l98 252h228l-99 -252h209v-194h-284l-152 -387h436v-195h-512l-100 -254h-227l100 254h-211z" />
<glyph unicode="&#x25fc;" horiz-adv-x="1003" d="M0 0v1004h1004v-1004h-1004z" />
<glyph unicode="&#xf8ff;" horiz-adv-x="2252" d="M205 -410v1844h1843v-1844h-1843zM397 68h140l63 186h371l61 -186h146l-306 852h-167zM639 373l145 424h4l146 -424h-295zM1171 578h117v-334q0 -176 176 -176h121v106h-98q-62 0 -62 57v347h160v110h-160v182h-129v-141q0 -41 -43 -41h-82v-110zM1634 782 q0 -64 40.5 -104.5t105.5 -40.5q64 0 104.5 40.5t40.5 104.5t-40 104t-105 40q-66 0 -106 -39.5t-40 -104.5zM1673 782q0 109 107 109q106 0 106 -109q0 -110 -106 -110q-107 0 -107 110zM1716 705h43v53h23l26 -53h45l-32 59q26 12 26 45q0 49 -53 49h-78v-153zM1759 786 v43h27q22 0 22 -20q0 -9 -6 -16t-16 -7h-27z" />
</font>
</defs>
</svg>
