<svg width="24" height="24" viewBox="0 0 24 24" fill="none" xmlns="http://www.w3.org/2000/svg">
<path d="M21.3564 8.82324L21.3555 8.82422C21.355 8.82533 21.355 8.82699 21.3545 8.82812C21.3534 8.83054 21.3518 8.83328 21.3506 8.83594C21.3481 8.84141 21.3458 8.84801 21.3428 8.85449C21.3367 8.86751 21.3286 8.88249 21.3203 8.89941C21.3038 8.93328 21.2834 8.97528 21.2578 9.02344C21.2066 9.11992 21.1353 9.2445 21.0439 9.3877C20.8629 9.67143 20.5893 10.0466 20.207 10.4238C20.0503 10.5785 19.8726 10.7336 19.6758 10.8848V20H20.4883V22H2.36914V20H3.18066V10.6611C3.12256 10.6143 3.06652 10.5704 3.01562 10.5273C2.6402 10.2097 2.33344 9.89697 2.12109 9.66602C2.01375 9.54926 1.92736 9.44955 1.86523 9.37598C1.83415 9.33916 1.80804 9.30846 1.78906 9.28516C1.77973 9.27369 1.77189 9.26369 1.76562 9.25586C1.76254 9.25198 1.76014 9.24805 1.75781 9.24512C1.75663 9.24369 1.75486 9.24241 1.75391 9.24121L1.75293 9.23926L1.75195 9.23828C1.75516 9.23516 1.82756 9.17792 3.32227 8C3.32227 8 4.80176 9.87684 6.32715 9.99414L6.47461 10C8.71186 9.99997 9.17103 9.01252 9.17676 9C9.18236 9.01228 9.63818 9.99976 11.4277 10C13.2176 10 13.674 9.01251 13.6797 9C13.6809 9.00258 14.0786 9.87955 15.9805 9.98926L16.3818 10C18.6232 9.99986 19.5262 8.0177 19.5342 8C21.2683 8.78091 21.3527 8.82053 21.3564 8.82324ZM13.7363 11.5156C13.1163 11.812 12.3503 12 11.4277 12C10.5051 11.9999 9.73913 11.8122 9.11914 11.5156C8.42322 11.8167 7.55195 12 6.47461 12C6.01535 12 5.58161 11.9162 5.18066 11.7871V20H8.04492V13.5H14.8125V20H17.6758V11.8467C17.2794 11.9424 16.8484 12 16.3818 12C15.3042 12 14.4323 11.8169 13.7363 11.5156ZM10.0449 20H12.8125V15.5H10.0449V20ZM19.5566 3.17871L21.3574 7.17871L21.7275 8L21.3574 8.82129L19.5342 8L17.7324 4H5.12402L3.32227 8L1.75098 9.23828L1 8.28516L1.49902 7.17871L3.2998 3.17871L3.83105 2H19.0254L19.5566 3.17871Z" fill="#1A172B"/>
</svg>
