<svg width="32" height="32" viewBox="0 0 32 32" fill="none" xmlns="http://www.w3.org/2000/svg">
<g clip-path="url(#clip0_1089_4356)">
<path d="M19.6708 9.21875H12.3261C11.9181 9.21874 11.514 9.29911 11.137 9.45527C10.76 9.61143 10.4174 9.84031 10.1289 10.1289C9.84031 10.4174 9.61143 10.76 9.45527 11.137C9.29911 11.514 9.21874 11.9181 9.21875 12.3261V19.6708C9.21875 20.4949 9.54613 21.2853 10.1289 21.868C10.4174 22.1565 10.76 22.3854 11.137 22.5416C11.514 22.6978 11.9181 22.7781 12.3261 22.7781H19.6708C20.4949 22.7781 21.2852 22.4507 21.868 21.868C22.4507 21.2852 22.7781 20.4949 22.7781 19.6708V12.3261C22.7781 11.9181 22.6977 11.514 22.5416 11.137C22.3854 10.76 22.1565 10.4174 21.868 10.1289C21.5794 9.84034 21.2369 9.61145 20.8599 9.45529C20.4829 9.29913 20.0788 9.21875 19.6708 9.21875ZM15.9984 20.2729C15.153 20.2729 14.3266 20.0222 13.6237 19.5525C12.9208 19.0828 12.3729 18.4152 12.0494 17.6342C11.7259 16.8531 11.6412 15.9937 11.8061 15.1645C11.9711 14.3354 12.3782 13.5737 12.976 12.976C13.5737 12.3782 14.3354 11.9711 15.1645 11.8061C15.9937 11.6412 16.8531 11.7259 17.6342 12.0494C18.4152 12.3729 19.0828 12.9208 19.5525 13.6237C20.0222 14.3266 20.2729 15.153 20.2729 15.9984C20.2729 16.5598 20.1623 17.1156 19.9475 17.6342C19.7327 18.1528 19.4178 18.624 19.0209 19.0209C18.624 19.4178 18.1528 19.7327 17.6342 19.9475C17.1156 20.1623 16.5598 20.2729 15.9984 20.2729ZM20.4511 12.5972C20.2499 12.5972 20.0533 12.5376 19.8861 12.4258C19.7188 12.3141 19.5885 12.1553 19.5115 11.9695C19.4345 11.7836 19.4144 11.5792 19.4536 11.3819C19.4928 11.1846 19.5897 11.0034 19.7319 10.8612C19.8741 10.719 20.0553 10.6221 20.2526 10.5829C20.4499 10.5436 20.6543 10.5637 20.8402 10.6407C21.026 10.7177 21.1848 10.848 21.2966 11.0153C21.4083 11.1825 21.4679 11.3791 21.4679 11.5803C21.4679 11.8499 21.3608 12.1086 21.1701 12.2993C20.9794 12.49 20.7208 12.5972 20.4511 12.5972Z" fill="white"/>
<path d="M16.0011 13.2188C15.4516 13.2188 14.9144 13.3817 14.4575 13.687C14.0006 13.9923 13.6444 14.4262 13.4342 14.9339C13.2239 15.4416 13.1688 16.0003 13.276 16.5392C13.3833 17.0782 13.6479 17.5733 14.0364 17.9618C14.425 18.3504 14.9201 18.615 15.459 18.7222C15.998 18.8294 16.5567 18.7744 17.0644 18.5641C17.5721 18.3538 18.006 17.9977 18.3113 17.5408C18.6166 17.0839 18.7795 16.5467 18.7795 15.9972C18.7795 15.2603 18.4868 14.5536 17.9657 14.0325C17.4447 13.5115 16.738 13.2187 16.0011 13.2188Z" fill="white"/>
<path d="M16 0C7.16344 0 0 7.16344 0 16C0 24.8366 7.16344 32 16 32C24.8366 32 32 24.8366 32 16C32 7.16344 24.8366 0 16 0ZM24.3333 19.5312C24.3333 20.8048 23.8273 22.0262 22.9268 22.9268C22.0262 23.8273 20.8048 24.3333 19.5312 24.3333H12.4688C11.1952 24.3333 9.97377 23.8273 9.07321 22.9268C8.17265 22.0262 7.66669 20.8048 7.66663 19.5312V12.4688C7.66667 11.1952 8.17263 9.97376 9.07319 9.07321C9.97376 8.17266 11.1952 7.66672 12.4688 7.66669H19.5312C20.8048 7.66674 22.0262 8.17268 22.9268 9.07323C23.8273 9.97378 24.3333 11.1952 24.3333 12.4688V19.5312Z" fill="white"/>
</g>
<defs>
<clipPath id="clip0_1089_4356">
<rect width="32" height="32" fill="white"/>
</clipPath>
</defs>
</svg>
