<svg width="78" height="64" viewBox="0 0 78 64" fill="none" xmlns="http://www.w3.org/2000/svg">
<path d="M63.4003 0L62.0754 7.64804C62.1411 7.65622 62.2085 7.66426 62.2774 7.67342C63.3737 7.81911 64.8855 8.09438 66.5538 8.61522C69.8641 9.64874 73.9558 11.703 76.5152 15.8047C77.9018 18.0268 78.1921 20.7615 77.8937 23.4865C77.5939 26.2249 76.6857 29.0993 75.4995 31.7533C74.311 34.4122 72.8179 36.9072 71.3009 38.8915C69.8241 40.8233 68.1912 42.4489 66.6752 43.1366C63.9465 44.3745 60.3097 44.3314 57.561 44.0603C56.1482 43.921 54.8926 43.7123 53.9903 43.5389C53.9544 43.532 53.9191 43.5247 53.8843 43.5179L48.6238 64H15.513L15.1009 63.2994L16.321 62.5698C15.1162 63.2901 15.1008 63.2989 15.1004 63.2986C15.1003 63.2985 15.1001 63.2981 15.0999 63.2977C15.0995 63.297 15.0989 63.2962 15.0983 63.2952C15.0972 63.2932 15.0956 63.2905 15.0937 63.2872C15.0899 63.2807 15.0847 63.2717 15.078 63.2602C15.0647 63.2372 15.0456 63.2043 15.0212 63.1613C14.9724 63.0754 14.9018 62.9497 14.8113 62.7847C14.6303 62.4547 14.3697 61.9671 14.044 61.3257C13.3926 60.0427 12.4807 58.1432 11.4253 55.6532C9.3146 50.6731 6.62899 43.3297 4.30355 33.8324C2.72654 27.3917 1.72494 21.5992 1.08982 16.7535C0.470703 12.0299 0.199721 8.20417 0.0835381 5.55261C0.0254421 4.22672 0.00608509 3.19398 0.00133606 2.48906C-0.00103764 2.13667 0.000103569 1.86614 0.00202877 1.6818C0.00299118 1.58966 0.00412173 1.51898 0.00503053 1.47044C0.00548506 1.44617 0.00588507 1.42727 0.00618506 1.41411C0.00633294 1.40762 0.00655379 1.4025 0.00664686 1.39874V1.39246L0.00687777 1.39199C0.00936717 1.39185 0.0674331 1.39318 1.42486 1.43017L0.00687777 1.39153L0.0440534 0H63.4003ZM2.84285 2.86034C2.8513 3.5063 2.87175 4.36807 2.91812 5.42644C3.0148 7.63285 3.22284 10.693 3.66163 14.4348C5.02717 13.8681 6.73073 13.3152 8.58198 12.9751C11.3968 12.4579 14.701 12.4061 17.7011 13.7023C21.0797 15.162 24.0012 16.5511 26.6717 17.5314C29.3426 18.5119 31.4924 18.9726 33.262 18.7249C34.038 18.6162 34.7546 19.1625 34.8624 19.9448C34.9701 20.7272 34.4282 21.4495 33.6522 21.5582C31.1658 21.9063 28.4684 21.2349 25.701 20.219C22.9333 19.2031 19.8254 17.7319 16.5835 16.3312C14.2872 15.3391 11.6059 15.327 9.09066 15.7891C7.09742 16.1553 5.30147 16.803 4.03893 17.3883C4.66611 21.9292 5.61715 27.2616 7.05824 33.1471C9.34348 42.4803 11.9779 49.677 14.0346 54.5293C15.0628 56.9554 15.9465 58.7953 16.5697 60.0226C16.8023 60.4808 16.9987 60.8536 17.1527 61.1397H46.4275L51.4729 41.4956L56.5822 19.2661C54.878 20.0946 52.8678 20.9645 50.8211 21.6606C49.1561 22.2269 47.4322 22.6905 45.8079 22.916C44.2032 23.1387 42.5815 23.1457 41.1831 22.6958C40.4367 22.4556 40.0248 21.651 40.263 20.8985C40.5012 20.146 41.2994 19.7308 42.0458 19.9709C42.87 20.2361 44.0115 20.2778 45.4209 20.0822C46.8108 19.8893 48.3523 19.4814 49.9141 18.9502C52.7523 17.9849 55.5426 16.6517 57.4194 15.6229L59.021 8.65386L60.0247 2.86034H2.84285ZM18.754 52.5905C19.4548 52.2373 20.3069 52.5236 20.6574 53.23L22.3125 56.567C22.6629 57.2735 22.3789 58.1325 21.6782 58.4858C20.9774 58.839 20.1253 58.5528 19.7748 57.8464L18.1197 54.5093C17.7693 53.8029 18.0533 52.9438 18.754 52.5905ZM11.2021 23.8615C11.9717 23.7137 12.7144 24.2228 12.8611 24.9986C13.4093 27.8997 14.3498 32.4498 15.3863 36.6581C15.9047 38.763 16.4435 40.7668 16.9654 42.4292C17.4997 44.131 17.9795 45.3523 18.3555 45.9777C18.7615 46.6531 18.5475 47.5324 17.8775 47.9418C17.2074 48.3512 16.3352 48.1354 15.9291 47.46C15.3593 46.5122 14.7948 44.9952 14.2601 43.2921C13.7132 41.5498 13.1583 39.4821 12.6325 37.3473C11.5804 33.0759 10.6293 28.4727 10.0741 25.534C9.92748 24.7581 10.4324 24.0093 11.2021 23.8615ZM54.5601 40.7365C55.3985 40.8967 56.5508 41.0866 57.8374 41.2135C60.5269 41.4787 63.5106 41.4355 65.5108 40.5282C66.3592 40.1433 67.6376 38.9978 69.0536 37.1457C70.4293 35.3461 71.8105 33.044 72.9127 30.5782C74.017 28.1074 74.8157 25.5292 75.0737 23.1727C75.3332 20.8028 75.0324 18.8 74.1136 17.3275C72.0623 14.0401 68.7027 12.2805 65.7144 11.3475C64.2335 10.8852 62.8841 10.639 61.9066 10.5091C61.7692 10.4908 61.6395 10.475 61.518 10.4611L54.5601 40.7365Z" fill="#1A172B"/>
</svg>
