<svg width="32" height="32" viewBox="0 0 32 32" fill="none" xmlns="http://www.w3.org/2000/svg">
<path d="M16 0C24.8366 0 32 7.16344 32 16C32 24.8366 24.8366 32 16 32C7.16344 32 0 24.8366 0 16C0 7.16344 7.16344 0 16 0ZM16.7705 19.2607C16.7705 20.7216 15.6042 21.9218 14.1523 21.9219C12.7004 21.9219 11.5332 20.7216 11.5332 19.2607C11.5333 17.8261 12.6742 16.6519 14.0742 16.5996V13.5215C10.989 13.5737 8.50006 16.1044 8.5 19.2607C8.5 22.4433 11.0407 24.9998 14.1777 25C17.3149 25 19.8564 22.4173 19.8564 19.2607V12.9736C20.9973 13.8084 22.3971 14.304 23.875 14.3301V11.252C21.5934 11.1737 19.8047 9.29565 19.8047 7H16.7705V19.2607Z" fill="white"/>
</svg>
